<ttFont>
          <CharString index="0">
            -88 -89 -3 -88 hhcurveto
            -51 -47 1 4 -47 hvcurveto
            151 -5 145 148 vvcurveto
            80 1 79 5 81 vhcurveto
            5 103 150 4 88 hhcurveto
            44 29 0 -3 hvcurveto
            2 -16 1 -16 -15 -32 -3 -32 -31 vvcurveto
            -1 vlineto
            -9 -39 -38 -1 -39 hhcurveto
            -79 hlineto
            -23 -21 1 -3 -23 hvcurveto
            -4 -1 rlineto
            -27 -3 -25 -27 vvcurveto
            -15 1 -12 3 -11 vhcurveto
            1 -1 40 -3 42 1 41 -1 rlinecurve
            -1 vlineto
            3 -17 0 -16 -19 -28 -1 -28 -31 vvcurveto
            -40 -11 -68 10 -13 -10 rrcurveto
            -3 -16 -1 -18 -19 vvcurveto
            -27 1 -26 3 -19 vhcurveto
            1 -1 rlineto
            75 69 -6 75 hhcurveto
            15 13 0 1 15 hvcurveto
            return
          </CharString>
          <CharString index="1">
            25 callgsubr
            15 9 0 11 13 10 -1 11 -37 callgsubr
            15 13 15 callgsubr
            23 32 callsubr
            return
          </CharString>
          <CharString index="2">
            rmoveto
            1 -7 6 -4 12 -1 rrcurveto
            -16 9 -4 20 vhcurveto
            47 14 6 16 hhcurveto
            9 20 -2 -1 16 hvcurveto
            1 45 1 55 43 129 -3 123 128 vvcurveto
            -9 -1 -6 0 -5 -1 rrcurveto
            22 vlineto
            -3 -23 -8 1 -9 -19 -13 1 -15 hhcurveto
            -16 -16 -1 -7 -25 hvcurveto
            -10 vlineto
            -4 -25 -1 -30 -27 -53 5 -50 -51 vvcurveto
            -68 -18 -17 -35 -7 -6 1 1 -7 vhcurveto
            -15 36 1 56 53 vvcurveto
            50 vlineto
            41 0 49 -3 31 vhcurveto
            -19 hlineto
            -1 7 0 6 7 vvcurveto
            -41 hlineto
            -21 hlineto
            -25 -30 50 callsubr
            -17 2 -28 -21 -73 -5 -87 -76 vvcurveto
            -109 8 -59 31 -19 vhcurveto
            -32 16 55 -11 36 hhcurveto
            36 38 12 17 31 hvcurveto
            -1 1 -2 -1 vvcurveto
            8 54 rmoveto
            return
          </CharString>
          <CharString index="3">
            rmoveto
            -48 vlineto
            -96 2 -13 -22 -28 vhcurveto
            1 1 rlineto
            -19 -17 -24 -9 -25 hhcurveto
            -18 -15 4 8 -13 hvcurveto
            -3 6 1 -1 -13 45 2 48 -8 47 rlinecurve
            -1 vlineto
            -1 17 0 16 17 vvcurveto
            39 2 37 8 35 -17 callgsubr
            42 10 38 39 43 hhcurveto
            51 -4 -77 -36 3 hvcurveto
            -4 vlineto
            148 159 rmoveto
            -11 27 -15 19 -21 21 rrcurveto
            48 -40 -75 21 -64 hhcurveto
            -49 -46 -10 -21 -43 hvcurveto
            -91 -53 7 -153 -84 vvcurveto
            -51 2 -56 3 -51 vhcurveto
            3 -58 -5 -71 30 -51 -28 callgsubr
            -78 38 74 -19 80 hhcurveto
            67 87 20 56 40 hvcurveto
            27 40 9 53 4 47 3 33 rcurveline
            7 79 -2 79 1 84 rrcurveto
            44 -1 44 -19 41 vhcurveto
            return
          </CharString>
          <CharString index="4">
            hvcurveto
            1 15 2 21 15 vvcurveto
            128 -73 115 -160 -80 -80 -32 -67 -29 vhcurveto
            -19 -51 -4 -56 -52 vvcurveto
            -101 25 -108 65 -54 vhcurveto
            -50 42 62 3 76 hhcurveto
            100 71 9 212 hvcurveto
            -21 3 rlineto
            7 1 7 3 vvcurveto
            hintmask 1010101001010100
            -51 callgsubr
            hintmask 0101001001010100
            -10 vlineto
            -55 callgsubr
            hintmask 1010101001011010
            -30 31 rmoveto
            -85 2 27 -43 51 hhcurveto
            31 29 23 56 hvcurveto
            8 vlineto
            -1 3 callgsubr
            hintmask 1001001001011010
            20 28 2 24 hhcurveto
            16 13 -1 -2 10 hvcurveto
            -5 -68 -4 -72 -19 -16 rrcurveto
            -40 -28 -52 -7 -53 -35 -33 3 -29 hhcurveto
            -107 16 -37 129 122 vvcurveto
            56 4 59 19 51 vhcurveto
            60 26 77 32 77 hhcurveto
            163 40 -95 -118 -15 -1 -13 -1 -15 hvcurveto
            -5 -21 -104 -6 -74 hhcurveto
            -31 -26 0 3 -12 hvcurveto
            return
          </CharString>
          <CharString index="5">
            -7 -29 -7 -40 hhcurveto
            -12 -12 -1 3 -13 hvcurveto
            -10 -28 41 8 -13 hvcurveto
            -10 -5 -32 -41 -10 -3 rrcurveto
            -1 -8 -5 -1 -5 hhcurveto
            -13 -17 1 5 -59 hvcurveto
            45 61 57 46 60 56 rrcurveto
            return
          </CharString>
          <CharString index="6">
            -3 -16 -17 -2 -19 hhcurveto
            -29 -27 3 6 -26 12 callsubr
            -16 43 -13 81 -18 39 rrcurveto
            1 -9 -6 1 -5 hhcurveto
            -13 hlineto
            -7 -7 -1 -15 hhcurveto
            -19 -42 -1 -82 -24 -43 -3 -1 rcurveline
            -1 -2 -4 0 -7 -17 -30 2 -56 hhcurveto
            -24 hlineto
            -1 0 0 1 -1 hvcurveto
            return
          </CharString>
          <CharString index="7">
            -11 0 5 7 hvcurveto
            -9 8 rlineto
            3 -21 -26 -1 -27 -13 -12 -1 -13 hhcurveto
            -11 -9 0 5 -31 hvcurveto
            43 -152 48 -179 29 -160 -28 callgsubr
            1 -7 0 -4 -5 vvcurveto
            -37 -26 -6 -32 vhcurveto
            -21 -21 2 -31 hhcurveto
            -4 -19 -2 -22 -24 vvcurveto
            -28 5 -32 8 -27 vhcurveto
            20 -4 -9 -11 4 hvcurveto
            -3 24 8 1 9 hhcurveto
            261 51 201 174 38 hvcurveto
            19 88 25 105 33 128 rrcurveto
            -7 -9 1 -9 hhcurveto
            1 5 1 7 3 7 rrcurveto
            1 -20 -31 2 -19 -32 -32 -2 -32 hhcurveto
            -30 -73 -11 -147 -13 -89 -21 85 -19 120 -13 74 rrcurveto
            -30 18 rmoveto
            19 -96 30 -184 29 -80 29 80 5 202 32 80 rrcurveto
            13 hlineto
            27 28 1 31 hhcurveto
            15 15 0 -1 17 hvcurveto
            -21 -80 -16 -72 -16 -69 rrcurveto
            return
          </CharString>
          <CharString index="8">
            -21 -23 3 -21 -15 -13 -3 -15 hhcurveto
            -8 3 -4 7 12 15 4 7 13 vvcurveto
            -32 -32 -53 -26 -47 hhcurveto
            -103 -44 161 107 133 74 95 94 3 hvcurveto
            48 35 0 -46 19 hvcurveto
            5 vlineto
            20 -1 28 15 vhcurveto
            8 11 -1 8 hhcurveto
            11 hlineto
            23 -1 32 -1 43 -3 rrcurveto
            return
          </CharString>
          <CharString index="9">
            28 -1 119 -80 -101 -10 -126 -75 -17 1 -17 1 -17 vhcurveto
            -76 11 -15 -109 101 hhcurveto
            27 29 10 21 17 hvcurveto
            24 27 -2 29 87 vvcurveto
            48 vlineto
            107 244 rmoveto
            19 -39 -1 -43 -43 vvcurveto
            -84 2 -77 -7 -80 vhcurveto
            -3 -33 -4 -47 -9 -49 -25 -39 rlinecurve
            -52 -37 -85 -20 -64 hhcurveto
            -110 -74 36 146 -3 hvcurveto
            -3 75 -5 73 76 vvcurveto
            79 -5 113 61 69 vhcurveto
            35 35 66 12 55 hhcurveto
            82 88 -31 -77 27 hvcurveto
            return
          </CharString>
          <CharString index="10">
            32 -24 -40 34 -43 hhcurveto
            -92 -43 -103 -82 -21 hvcurveto
            7 8 1 11 hhcurveto
            -3 -8 -2 -6 -1 -7 rrcurveto
            1 17 31 1 15 hhcurveto
            27 26 -1 -3 13 hvcurveto
            -18 30 rmoveto
            3 -13 -28 1 -27 hhcurveto
            -15 -17 0 -1 -17 hvcurveto
            69 19 38 95 84 72 11 -74 41 hhcurveto
            27 21 43 20 6 hvcurveto
            27 3 27 -1 28 1 2 return
          </CharString>
          <CharString index="11">
            12 13 1 13 hhcurveto
            51 48 -13 -31 32 hvcurveto
            38 -24 0 -87 3 -87 -3 -78 -3 -131 -26 -26 rrcurveto
            -40 -28 -51 -7 -53 -35 -34 3 -31 hhcurveto
            -112 19 -24 96 101 vvcurveto
            74 vlineto
            15 -1 14 13 vvcurveto
            43 6 36 15 52 vhcurveto
            return
          </CharString>
          <CharString index="12">
            hhcurveto
            -89 -157 -4 -5 -104 hvcurveto
            -5 -84 -3 -92 -84 -147 6 -143 -153 vvcurveto
            -15 callgsubr
            -19 vlineto
            -4 51 62 -2 53 87 87 3 88 hhcurveto
            8 32 4 33 31 vvcurveto
            15 -1 16 -1 15 vhcurveto
            -30 19 rmoveto
            1 -15 1 -15 -16 vvcurveto
            -29 -3 -29 -7 -27 vhcurveto
            return
          </CharString>
          <CharString index="13">
            -1 -108 -4 -113 -112 vvcurveto
            -55 1 -53 3 -53 vhcurveto
            -7 -5 -18 0 -23 -27 -32 2 -20 hhcurveto
            -9 -5 0 -1 -2 hvcurveto
            3 41 1 41 41 84 -4 81 80 vvcurveto
            47 1 46 5 44 vhcurveto
            1 4 vlineto
            24 18 -3 50 hhcurveto
            23 hlineto
            return
          </CharString>
          <CharString index="14">
            -3 11 0 16 19 28 2 30 12 vvcurveto
            7 15 26 1 27 hhcurveto
            25 23 -2 -4 9 hvcurveto
            -2 -6 -96 -19 vvcurveto
            return
          </CharString>
          <CharString index="15">
            -9 6 -2 25 vhcurveto
            15 19 1 31 31 17 -2 8 hhcurveto
            5 2 1 2 hvcurveto
            11 vlineto
            27 -15 26 -24 12 vhcurveto
            16 -29 rmoveto
            9 -9 4 -14 -13 vvcurveto
            -4 vlineto
            -10 1 rlineto
            return
          </CharString>
          <CharString index="16">
            vhcurveto
            -4 -25 -21 -1 -21 -19 -16 1 -23 hhcurveto
            -3 21 1 26 28 vvcurveto
            74 vlineto
            29 1 29 -3 25 vhcurveto
            51 -5 5 55 -62 hhcurveto
            -42 -21 -20 -83 hvcurveto
            -51 4 -50 -51 vvcurveto
            -25 -1 -24 -3 -25 vhcurveto
            -4 vlineto
            -5 -19 -12 -1 -13 -15 -13 1 -20 hhcurveto
            -9 -11 0 -1 -12 hvcurveto
            return
          </CharString>
          <CharString index="17">
            -4 -5 -5 -5 -4 -7 rrcurveto
            -4 64 33 -3 11 hhcurveto
            33 15 35 14 19 hvcurveto
            -56 return
          </CharString>
          <CharString index="18">
            rmoveto
            -21 vlineto
            -60 4 -35 -43 vvcurveto
            7 6 1 7 hhcurveto
            return
          </CharString>
          <CharString index="19">
            rmoveto
            7 -11 -9 3 -15 hhcurveto
            hintmask 1010010101011010
            -67 -18 -36 -41 hvcurveto
            hintmask 1010101001011010
            -92 callsubr
            hintmask 1010010101011010
            -69 callsubr
          </CharString>
          <CharString index="20">
            4 12 12 1 13 8 8 -1 8 -37 callgsubr
            15 14 0 15 hhcurveto
            25 22 2 12 11 hvcurveto
            -3 return
          </CharString>
          <CharString index="21">
            -39 16 48 -33 47 hhcurveto
            80 44 86 68 7 0 4 -1 7 hvcurveto
            -1 vlineto
            -2 13 rlineto
            -4 -6 13 callgsubr
            3 -1 2 3 vvcurveto
            -2 13 rlineto
            -33 -21 1 -5 -45 hvcurveto
            -19 -5 -21 -43 -21 hhcurveto
            -7 -6 2 7 -3 hvcurveto
            -1 vlineto
            return
          </CharString>
          <CharString index="22">
            1 vlineto
            -89 -27 -29 -89 -71 vvcurveto
            -7 0 -5 1 -5 vhcurveto
            -23 hlineto
            -52 hlineto
            3 -149 2 callgsubr
            16 1 19 hhcurveto
            -40 vlineto
            -47 -1 -58 -56 vvcurveto
            -65 1 -59 4 -28 vhcurveto
            7 4 -2 callgsubr
            -28 19 7 16 vhcurveto
            31 26 5 32 hhcurveto
            11 11 -1 -1 12 hvcurveto
            373 vlineto
            27 100 -1 -3 87 hvcurveto
            -4 0 -3 1 -2 -17 callsubr
            3 -70 4 -96 -176 vvcurveto
            7 -1 6 0 7 -1 rrcurveto
            -18 vlineto
            -1 11 11 -1 11 45 callsubr
            373 35 vlineto
            32 47 -1 -3 45 hvcurveto
            20 2 29 31 vvcurveto
            19 -2 22 -1 19 vhcurveto
            -19 hlineto
            7 -1 6 7 vvcurveto
            -138 hlineto
            1 20 7 return
          </CharString>
          <CharString index="23">
            29 7 27 27 49 hhcurveto
            28 -6 -21 -39 hvcurveto
            -26 vlineto
            -62 0 -37 -52 -46 -13 36 42 15 1 18 5 17 vhcurveto
            return
          </CharString>
          <CharString index="24">
            499 656 rmoveto
            -7 3 -7 3 -6 2 rrcurveto
            12 vlineto
            11 -17 -22 2 -24 -40 -27 -7 -36 hhcurveto
            -5 -161 3 -169 -7 -164 rrcurveto
            2 vlineto
            -27 -7 -23 -15 -24 hhcurveto
            -13 -13 2 16 -3 hvcurveto
            -2 vlineto
            return
          </CharString>
          <CharString index="25">
            3 -5 -12 -1 -16 -23 -32 -2 -21 hhcurveto
            -8 -7 1 1 -5 hvcurveto
            -114 hlineto
            -51 -66 -1 -60 hhcurveto
            -15 1 -19 -11 -28 -3 -18 -29 vvcurveto
            -11 2 -24 1 -16 vhcurveto
            7 1 4 0 7 1 rrcurveto
            -8 1 -7 1 -7 vhcurveto
            47 7 63 4 60 4 -23 -24 -25 -22 -24 -23 rrcurveto
            -40 -37 -86 -69 -40 -26 4 -15 -40 vvcurveto
            -11 -1 -20 -1 -13 vhcurveto
            21 hlineto
            -7 -1 -6 -7 vvcurveto
            128 176 3 3 124 hvcurveto
            52 -2 57 51 vvcurveto
            -7 -1 -6 -1 -7 -1 rrcurveto
            23 vlineto
            -5 -36 -32 -1 -33 hhcurveto
            -38 hlineto
            -9 -8 0 1 -9 hvcurveto
            51 51 78 73 62 64 rrcurveto
            -3 21 0 12 12 28 2 29 35 vvcurveto
            return
          </CharString>
          <CharString index="26">
            1 -2 0 -3 -3 vvcurveto
            -15 -7 -12 -13 vhcurveto
            -2 9 hlineto
            6 0 4 1 2 vhcurveto
            -3 -149 rmoveto
            8 3 5 4 8 hhcurveto
            3 hlineto
            -3 1 -3 -3 vvcurveto
            -15 -7 -12 -12 vhcurveto
            -1 3 0 4 6 vvcurveto
            return
          </CharString>
          <CharString index="27">
            -3 -56 -1 -57 -57 vvcurveto
            -107 4 -106 9 -108 vhcurveto
            -31 9 25 -14 25 hhcurveto
            28 29 18 32 7 hvcurveto
            7 161 -2 167 4 156 rrcurveto
            3 return
          </CharString>
          <CharString index="28">
            -59 callgsubr
            14 14 -170 169 rlineto
            143 -156 rmoveto
            -2 hlineto
            -102 callsubr
            return
          </CharString>
          <CharString index="29">
            466 580 rmoveto
            -11 27 -15 19 -21 21 rrcurveto
            48 -40 -75 21 -64 hhcurveto
            -49 -46 -10 -21 -43 hvcurveto
            -91 -53 7 -153 -84 vvcurveto
            -51 2 -56 3 -51 vhcurveto
            3 -58 -5 -71 30 -51 -28 callgsubr
            -78 38 74 -19 80 hhcurveto
            67 87 20 56 40 hvcurveto
            27 40 9 53 4 47 3 33 rcurveline
            7 79 -2 79 1 84 rrcurveto
            44 -1 44 -19 41 vhcurveto
            -29 16 rmoveto
            19 -39 -1 -43 -43 vvcurveto
            -84 2 -77 -7 -80 vhcurveto
            -3 -33 -4 -47 -9 -49 -25 -39 rlinecurve
            -52 -37 -85 -20 -64 hhcurveto
            -110 -74 36 146 -3 hvcurveto
            -3 75 -5 73 76 vvcurveto
            79 -5 113 61 69 vhcurveto
            return
          </CharString>
          <CharString index="30">
            rmoveto
            1 5 0 9 3 9 rrcurveto
            -1 vlineto
            7 45 6 49 47 vvcurveto
            63 -14 56 -47 39 vhcurveto
            11 -11 -19 21 -7 hhcurveto
            37 -61 -48 6 -57 hhcurveto
            -77 -87 -6 -66 -53 hvcurveto
            -45 -53 2 -66 -61 vvcurveto
            -39 3 -37 6 -37 -17 callsubr
            4 -39 18 -29 29 -25 rrcurveto
            -47 39 63 -23 88 hhcurveto
            98 11 113 -8 45 128 rrcurveto
            -29 23 rmoveto
            -43 -121 -112 5 -93 -8 rrcurveto
            -204 -15 117 128 29 1 28 3 31 hvcurveto
            134 11 133 20 102 hhcurveto
            52 57 -7 -32 49 hvcurveto
            12 -8 rlineto
            51 -37 12 -56 -63 vvcurveto
            -49 -5 -75 -11 -36 vhcurveto
            return
          </CharString>
          <CharString index="31">
            30 hintmask 0000000000000000
            return
          </CharString>
          <CharString index="32">
            -2 -50 -1 -42 -34 vvcurveto
            -37 vlineto
            -25 1 -36 -39 vvcurveto
            -1 -15 callgsubr
            -18 vlineto
            -3 11 14 1 15 16 16 1 13 hhcurveto
            48 hlineto
            27 -2 184 48 vvcurveto
            -3 5 -6 3 -11 1 rrcurveto
            11 vlineto
            8 -5 -17 3 -20 hhcurveto
            -19 -23 -1 -3 -16 hvcurveto
            -18 -2 rlineto
            return
          </CharString>
          <CharString index="33">
            -90 callsubr
            48 11 7 31 -59 callgsubr
            14 14 -170 169 rlineto
            return
          </CharString>
          <CharString index="34">
            -19 -17 vvcurveto
            -60 33 -48 56 59 3 37 61 114 7 13 -59 -56 -30 -31 -33 -7 vhcurveto
            return
          </CharString>
          <CharString index="35">
            -12 callgsubr
            -19 21 -67 -53 -42 -56 -80 -72 rlinecurve
            return
          </CharString>
          <CharString index="36">
            rmoveto
            18 -19 16 -16 -25 18 85 -74 rlinecurve
            88 90 93 64 84 111 -39 48 -49 43 -43 51 -3 3 rcurveline
            -13 13 -19 17 -28 31 -5 5 rcurveline
            -19 19 -22 23 -17 17 -20 20 rcurveline
            -37 -21 -19 -37 -35 -21 55 -71 68 -62 53 -60 -67 -60 -55 -61 -64 -53 rrcurveto
            15 -1 -84 callgsubr
            endchar
          </CharString>
          <CharString index="37">
            -28 callgsubr
            -11 24 16 1 23 hhcurveto
            92 20 52 56 5 hvcurveto
            12 vlineto
            1 27 1 28 28 27 -1 27 28 vvcurveto
            8 vlineto
            12 -2 11 -7 11 vhcurveto
            1 hlineto
            35 -24 -42 32 -60 hhcurveto
            -51 -53 -22 -48 -13 hvcurveto
            1 hlineto
            -3 -7 -1 -9 -11 -5 1 -4 -3 vvcurveto
            -21 20 -19 vlineto
            49 -1 rlineto
            -16 -2 -11 -13 vvcurveto
            -14 3 -13 5 -13 vhcurveto
            3 5 1 1 5 hvcurveto
            1 -9 3 -7 3 -6 rrcurveto
            1 8 10 1 9 hhcurveto
            7 9 1 -5 -5 -1 -4 -2 -3 hvcurveto
            1 1 rlineto
            -5 -3 -6 -3 -7 hhcurveto
            -7 return
          </CharString>
          <CharString index="38">
            -9 -14 1 -20 hhcurveto
            -44 hlineto
            -8 -4 13 callgsubr
            28 7 14 20 51 hhcurveto
            12 10 -3 -5 8 hvcurveto
            endchar
          </CharString>
          <CharString index="39">
            -23 4 -48 -51 -12 -1 -11 -7 vvcurveto
            3 -3 7 -2 11 -2 rrcurveto
            -5 -1 -5 -3 vvcurveto
            12 -9 53 -5 32 -3 rrcurveto
            -39 vlineto
            -5 -1 -6 -7 vvcurveto
            -11 1 -12 2 -13 -17 callsubr
            1 -19 2 1 6 1 10 1 rlinecurve
            -2 0 -2 1 -1 -17 callsubr
            -10 18 rmoveto
            2 vlineto
            -3 13 1 9 11 15 1 11 16 vvcurveto
            13 0 31 -3 3 vhcurveto
            -2 hlineto
            -17 -95 3 9 hvcurveto
            5 1 7 9 39 -5 66 7 vvcurveto
            4 hlineto
            21 97 8 2 5 hvcurveto
            26 4 77 5 27 vhcurveto
            -4 7 17 -1 23 return
          </CharString>
          <CharString index="40">
            -34 callsubr
            -6 6 -8 8 1 1 rcurveline
            return
          </CharString>
          <CharString index="41">
            -15 -1 -13 3 -15 vhcurveto
            -68 -73 -86 -74 -68 -76 rrcurveto
            1 15 16 0 17 27 27 -1 27 hhcurveto
            29 30 2 4 29 hvcurveto
            -43 2 -49 -47 vvcurveto
            -3 -123 -157 -3 -127 hhcurveto
            12 1 10 11 39 -4 15 23 vvcurveto
            7 0 4 1 7 vhcurveto
            65 83 97 71 67 80 -70 -3 -95 -5 -58 -8 rrcurveto
            -1 19 -1 14 13 31 3 18 28 8 -1 8 11 vvcurveto
            108 98 1 72 hhcurveto
            -1 7 8 -1 10 25 35 2 23 hhcurveto
            11 7 0 -1 2 hvcurveto
            endchar
          </CharString>
          <CharString index="42">
            1 1 rcurveline
            -15 -33 -9 -29 -9 -27 14 callsubr
            -1 -3 -3 -8 -4 -11 -28 callgsubr
            -9 -21 -11 -30 -17 vvcurveto
            -10 4 -5 7 vhcurveto
            3 3 1 3 hhcurveto
            -5 vlineto
            -11 4 -5 7 vhcurveto
            96 3 34 -12 8 24 rrcurveto
            -1 vlineto
            return
          </CharString>
          <CharString index="43">
            -3 21 16 0 17 hhcurveto
            39 45 5 5 23 hvcurveto
            return
          </CharString>
          <CharString index="44">
            56 -32 34 -34 180 -158 -21 169 225 -33 callgsubr
            174 return
          </CharString>
          <CharString index="45">
            17 14 -2 15 hhcurveto
            16 15 2 7 27 hvcurveto
            11 vlineto
            3 24 1 26 25 49 -4 48 51 vvcurveto
            77 14 20 39 9 7 -1 -2 5 vhcurveto
            return
          </CharString>
          <CharString index="46">
            -3 -3 0 -1 -2 hvcurveto
            -2 -14 rlineto
            -1 -3 0 -4 -4 vvcurveto
            -3 -1 -6 -1 -10 -17 callgsubr
            -45 -3 9 -9 -32 hhcurveto
            -53 52 hlineto
            27 1 25 3 vvcurveto
            1 -1 -7 0 -11 hhcurveto
            -68 hlineto
            -10 -5 0 1 -1 hvcurveto
            1 vlineto
            -1 4 -4 23 35 vvcurveto
            11 vlineto
            3 3 22 38 85 128 rrcurveto
            3 18 1 17 hhcurveto
            43 -123 hlineto
            -25 1 -22 1 -4 vhcurveto
            1 1 2 0 3 8 7 -3 7 hhcurveto
            return
          </CharString>
          <CharString index="47">
            -7 31 30 -3 29 hhcurveto
            19 22 3 4 23 hvcurveto
            -32 29 rmoveto
            -1 vlineto
            return
          </CharString>
          <CharString index="48">
            -38 callgsubr
            -16 callgsubr
            -58 callsubr
            return
          </CharString>
          <CharString index="49">
            35 -4 35 52 vvcurveto
            16 vlineto
            return
          </CharString>
          <CharString index="50">
            24 -43 49 callgsubr
            98 -10 55 -33 callgsubr
            121 -11 88 -33 callgsubr
            139 -10 return
          </CharString>
          <CharString index="51">
            -63 callgsubr
            14 14 -170 169 rlineto
            return
          </CharString>
          <CharString index="52">
            rmoveto
            -64 -58 -55 -45 -62 -83 33 -3 rcurveline
            return
          </CharString>
          <CharString index="53">
            -23 -29 -26 callsubr
            -58 callsubr
            -48 -3 rmoveto
            -59 callsubr
            return
          </CharString>
          <CharString index="54">
            1 -8 -8 0 -9 -28 -34 -3 -31 hhcurveto
            -8 -8 0 1 -8 hvcurveto
            -2 hlineto
            35 108 50 119 45 117 rrcurveto
            2 vlineto
            -29 118 -69 112 -27 114 rrcurveto
            27 37 6 35 hhcurveto
            19 19 -1 -7 15 hvcurveto
            15 -60 19 -62 25 -51 27 48 29 67 23 56 2 1 rcurveline
            3 24 43 3 35 hhcurveto
            16 14 -1 -1 8 hvcurveto
            return
          </CharString>
          <CharString index="55">
            rmoveto
            -24 3 -8 -35 30 hhcurveto
            39 -4 61 28 32 0 67 -32 -19 -15 -19 -24 hvcurveto
            -4 1 -4 -4 vvcurveto
            -1 vlineto
            return
          </CharString>
          <CharString index="56">
            vvcurveto
            -80 callgsubr
            return
          </CharString>
          <CharString index="57">
            186 219 rmoveto
            -9 callgsubr
            9 hhcurveto
            72 145 5 8 28 hvcurveto
            1 15 2 21 15 vvcurveto
            128 -73 115 -160 -80 -80 -32 -67 -29 vhcurveto
            -19 -51 -4 -56 -52 vvcurveto
            -101 25 -108 65 -54 vhcurveto
            -50 42 62 3 76 hhcurveto
            100 71 9 212 hvcurveto
            -21 3 rlineto
            7 1 7 3 vvcurveto
            return
          </CharString>
          <CharString index="58">
            1 -4 -7 1 -12 hhcurveto
            -1 -9 -8 0 -7 hhcurveto
            -12 -11 0 3 11 16 51 5 33 hvcurveto
            -47 4 rlineto
            -1 -1 0 1 -1 hvcurveto
            4 vlineto
            8 -1 21 5 82 vhcurveto
            1 1 rlineto
            4 12 12 1 15 hhcurveto
            24 26 -3 -3 31 hvcurveto
            -3 -115 -2 hlineto
            -1 -3 rlineto
            -5 -3 -10 -1 -7 vhcurveto
            return
          </CharString>
          <CharString index="59">
            -8 -21 0 1 -8 hvcurveto
            -68 -71 -19 -45 -21 hvcurveto
            9 -4 rmoveto
            return
          </CharString>
          <CharString index="60">
            -38 callsubr
            -53 53 -53 59 -59 48 rrcurveto
            1 -13 -93 callgsubr
            return
          </CharString>
          <CharString index="61">
            rmoveto
            47 -37 74 -82 46 -44 rrcurveto
            return
          </CharString>
          <CharString index="62">
            -67 callsubr
            -62 51 -60 77 -19 callsubr
          </CharString>
          <CharString index="63">
            -115 19 -21 99 100 19 1 19 19 vvcurveto
            20 -1 19 -2 18 vhcurveto
            139 40 50 132 vhcurveto
            35 callsubr
            12 13 1 13 hhcurveto
            49 50 -12 -31 32 hvcurveto
            37 -27 -1 -65 3 -88 rrcurveto
            -3 -10 -12 -1 -15 hhcurveto
            -31 -36 5 4 -23 hvcurveto
            return
          </CharString>
          <CharString index="64">
            -30 callgsubr
            hstemhm
            return
          </CharString>
          <CharString index="65">
            rmoveto
            11 0 16 4 7 -17 callgsubr
            3 5 5 4 6 2 rrcurveto
            return
          </CharString>
          <CharString index="66">
            rmoveto
            -3 7 -1 7 5 vvcurveto
            4 1 5 2 6 -17 callgsubr
            3 6 -1 -1 rlineto
            return
          </CharString>
          <CharString index="67">
            -21 1 -21 3 -19 vhcurveto
            17 hlineto
            return
          </CharString>
          <CharString index="68">
            -3 rmoveto
            -17 3 -71 -40 vvcurveto
            -16 callgsubr
            return
          </CharString>
          <CharString index="69">
            -67 callsubr
            40 callgsubr
            return
          </CharString>
          <CharString index="70">
            -71 -29 -109 -18 -96 hhcurveto
            -15 -12 0 1 -13 hvcurveto
            -7 16 -1 19 19 vvcurveto
            29 5 29 3 23 vhcurveto
            -9 callgsubr
            8 hhcurveto
            45 67 9 32 21 hvcurveto
            1 28 0 30 33 vvcurveto
            99 vlineto
            68 0 65 3 52 vhcurveto
            return
          </CharString>
          <CharString index="71">
            14 -104 hlineto
            -29 11 8 19 vhcurveto
            33 hlineto
            23 22 0 -3 15 hvcurveto
            -3 -56 4 -40 -5 -49 -8 -5 -98 6 -13 -8 rrcurveto
            -12 vlineto
            -31 -7 -62 -17 vvcurveto
            -2 vlineto
            -3 -16 -1 -21 vhcurveto
            -35 -49 2 -21 hhcurveto
            -9 hlineto
            return
          </CharString>
          <CharString index="72">
            40 23 19 79 hvcurveto
            52 -5 52 51 vvcurveto
            25 1 26 4 25 vhcurveto
            4 vlineto
            return
          </CharString>
          <CharString index="73">
            -64 callsubr
            -7 5 return
          </CharString>
          <CharString index="74">
            30 callsubr
            753 30 182 7 callgsubr
            hintmask 10110000
            -15 callsubr
            return
          </CharString>
          <CharString index="75">
            61 -33 callgsubr
            175 273 124 -29 195 return
          </CharString>
          <CharString index="76">
            -2 14 16 -1 19 hhcurveto
            hintmask 10100000
            15 13 0 1 11 hvcurveto
            46 hlineto
            return
          </CharString>
          <CharString index="77">
            -6 1 -7 return
          </CharString>
          <CharString index="78">
            -15 -9 -2 -15 -13 vvcurveto
            -24 3 -29 32 vhcurveto
            10 hlineto
            29 3 19 -2 53 vvcurveto
            36 -26 6 -20 -11 -10 -2 -4 -9 vhcurveto
            24 -29 rmoveto
            3 9 8 2 9 hhcurveto
            13 3 -1 -11 -21 return
          </CharString>
          <CharString index="79">
            -12 callgsubr
            0 -1 -1 -1 -2 -4 rcurveline
            return
          </CharString>
          <CharString index="80">
            165 -33 callgsubr
            127 -15 172 -30 -76 callsubr
            return
          </CharString>
          <CharString index="81">
            3 -27 hhcurveto
            -17 hlineto
            return
          </CharString>
          <CharString index="82">
            -39 16 46 -32 48 hhcurveto
            73 53 73 81 16 2 12 -23 hvcurveto
            25 -16 -5 -9 -24 -18 1 -4 -35 vhcurveto
            -19 -5 -21 -43 -21 hhcurveto
            -7 -6 2 7 -3 hvcurveto
            -1 vlineto
            return
          </CharString>
          <CharString index="83">
            rmoveto
            1 9 0 7 1 7 3 6 1 10 -1 14 rrcurveto
            -3 17 -3 0 3 hhcurveto
            16 hlineto
            5 98 rlineto
            -11 hlineto
            -3 -4 0 1 -3 hvcurveto
            1 19 rlineto
            -11 hlineto
            return
          </CharString>
          <CharString index="84">
            -41 -25 3 -13 hhcurveto
            -4 -5 -1 -1 -7 hvcurveto
            return
          </CharString>
          <CharString index="85">
            -43 rmoveto
            7 4 4 13 vvcurveto
            8 127 rlineto
            -7 -6 1 -8 hhcurveto
            1 19 rlineto
            3 -33 -32 4 -29 hhcurveto
            -15 -14 -1 -7 -19 hvcurveto
            -5 -75 0 -30 -12 vvcurveto
            return
          </CharString>
          <CharString index="86">
            -14 callsubr
            vlineto
            -2 1 rlineto
            endchar
          </CharString>
          <CharString index="87">
            rlineto
            7 5 1 7 hhcurveto
            1 -21 rlineto
            return
          </CharString>
          <CharString index="88">
            -67 54 rrcurveto
            1 -13 -93 callgsubr
            endchar
          </CharString>
          <CharString index="89">
            684 -83 callgsubr
            -34 callsubr
            return
          </CharString>
          <CharString index="90">
            vhcurveto
            1 vlineto
            return
          </CharString>
          <CharString index="91">
            rmoveto
            10 -10 hlineto
            10 -10 rlineto
            return
          </CharString>
          <CharString index="92">
            392 333 rmoveto
            -16 68 -52 242 -16 53 -5 -1 -5 0 -4 -1 -3 9 -2 8 -1 5 -116 -11 12 9 -35 -5 return
          </CharString>
          <CharString index="93">
            rmoveto
            -3 hlineto
            -93 callsubr
            -2 return
          </CharString>
          <CharString index="94">
            -97 callgsubr
            endchar
          </CharString>
          <CharString index="95">
            9 1 13 17 vvcurveto
            117 vlineto
            -3 -8 -1 -9 hhcurveto
            21 vlineto
            -7 -32 -1 -20 hhcurveto
            -37 hlineto
            -72 -109 -28 -44 -8 -13 rrcurveto
            return
          </CharString>
          <CharString index="96">
            56 callsubr
            5 -17 2 -20 -20 vvcurveto
            -31 -4 -30 -3 -24 vhcurveto
            return
          </CharString>
          <CharString index="97">
            -3 rmoveto
            -38 callgsubr
            -8 -5 return
          </CharString>
          <CharString index="98">
            3 5 0 7 return
          </CharString>
          <CharString index="99">
            46 19 41 0 48 hhcurveto
            94 -3 74 -95 -133 vvcurveto
            -107 -44 -161 -103 -45 -51 23 31 -32 vhcurveto
            146 247 rmoveto
            return
          </CharString>
          <CharString index="100">
            29 261 -20 21 7 callgsubr
            hintmask 11000000
            return
          </CharString>
          <CharString index="101">
            -17 -19 -5 -5 rcurveline
            -64 -67 -75 -68 -55 -71 return
          </CharString>
          <CharString index="102">
            30 hintmask 000000000000000000000000
            return
          </CharString>
          <CharString index="103">
            7 32 48 6 39 7 6 15 callsubr
            return
          </CharString>
          <CharString index="104">
            -89 callsubr
            -21 vlineto
            return
          </CharString>
          <CharString index="105">
            -7 3 rrcurveto
            return
          </CharString>
          <CharString index="106">
            27 3 102 8 vvcurveto
            379 hlineto
            -28 -1 -29 -28 vvcurveto
            -20 1 -19 3 -19 vhcurveto
            -35 hlineto
            -91 -242 6 -17 hhcurveto
            return
          </CharString>
          <CharString index="107">
            140 -11 171 -30 -76 callsubr
            return
          </CharString>
          <CharString index="108">
            rmoveto
            -20 callgsubr
            return
          </CharString>
          <CharString index="109">
            -29 29 -29 164 -144 -21 return
          </CharString>
          <CharString index="110">
            30 hintmask 00000000
            return
          </CharString>
          <CharString index="111">
            125 118 -51 -156 -56 -22 -55 -27 -45 hvcurveto
            -2 -3 -1 -3 -2 vvcurveto
            -3 3 -5 5 -5 vhcurveto
            return
          </CharString>
          <CharString index="112">
            5 13 15 2 17 8 9 -1 8 -37 callgsubr
            15 16 -1 15 hhcurveto
            23 20 3 11 11 hvcurveto
            return
          </CharString>
          <CharString index="113">
            1 -15 1 -12 -15 vvcurveto
            -41 vlineto
            -76 -5 -73 -76 vvcurveto
            return
          </CharString>
          <CharString index="114">
            1 -7 hhcurveto
            return
          </CharString>
          <CharString index="115">
            76 108 2 104 108 vvcurveto
            47 0 45 -1 47 vhcurveto
            1 1 rlineto
            13 47 55 9 52 hhcurveto
            return
          </CharString>
          <CharString index="116">
            rrcurveto
            -3 -21 -26 -1 -27 -41 -42 2 -31 hhcurveto
            -27 168 -34 178 -43 157 rrcurveto
            -3 15 return
          </CharString>
          <CharString index="117">
            17 hlineto
            -41 callgsubr
            return
          </CharString>
          <CharString index="118">
            197 -35 35 96 31 112 29 return
          </CharString>
          <CharString index="119">
            hvcurveto
            -1 hlineto
            return
          </CharString>
          <CharString index="120">
            -1 1 rlineto
            -5 -44 -69 -3 -3 hvcurveto
            6 -1 rlineto
            12 25 1 7 hhcurveto
            1 1 rlineto
            endchar
          </CharString>
          <CharString index="121">
            rrcurveto
            1 hlineto
            return
          </CharString>
          <CharString index="122">
            -2 callgsubr
            3 27 5 36 33 vvcurveto
            22 -3 22 -6 22 vhcurveto
            -19 2 5 15 -3 hvcurveto
            return
          </CharString>
          <CharString index="123">
            1 -30 callsubr
            return
          </CharString>
          <CharString index="124">
            -1 -7 rrcurveto
            -31 callsubr
            return
          </CharString>
          <CharString index="125">
            85 -12 183 -30 30 143 30 -30 89 -10 176 -30 30 130 return
          </CharString>
          <CharString index="126">
            2 -9 vhcurveto
            154 hlineto
            7 -1 10 11 5 1 4 4 vvcurveto
            1 4 vlineto
            return
          </CharString>
          <CharString index="127">
            -32 29 -10 -21 340 30 -30 return
          </CharString>
          <CharString index="128">
            rmoveto
            -21 26 5 24 -5 37 1 1 rcurveline
            20 21 4 24 hhcurveto
            1 hlineto
            return
          </CharString>
          <CharString index="129">
            -23 1 -21 4 -23 vhcurveto
            -40 hlineto
            -108 -282 7 -19 hhcurveto
            endchar
          </CharString>
          <CharString index="130">
            117 -117 137 -30 124 -30 30 -2 29 hintmask 0000000000000000
            return
          </CharString>
          <CharString index="131">
            -18 16 20 -27 55 hhcurveto
            103 21 121 77 68 -41 115 -103 return
          </CharString>
          <CharString index="132">
            -28 30 -30 164 220 30 -30 156 -10 216 hstemhm
            return
          </CharString>
          <CharString index="133">
            487 rmoveto
            -9 -2 1 11 hvcurveto
            -9 8 rlineto
            3 -21 -24 -1 return
          </CharString>
          <CharString index="134">
            hhcurveto
            110 47 167 111 153 -102 103 -96 5 hvcurveto
            return
          </CharString>
          <CharString index="135">
            vvcurveto
            51 callgsubr
            vhcurveto
            return
          </CharString>
          <CharString index="136">
            vlineto
            1 -8 -8 0 -8 return
          </CharString>
          <CharString index="137">
            14 -29 24 -9 -21 return
          </CharString>
          <CharString index="138">
            rmoveto
            8 9 9 6 11 2 -1 -15 -12 -1 -15 -1 rrcurveto
            return
          </CharString>
          <CharString index="139">
            17 5 12 8 hvcurveto
            43 -3 72 26 vvcurveto
            -20 20 hlineto
            return
          </CharString>
          <CharString index="140">
            15 9 0 -7 15 hvcurveto
            3 16 2 9 5 25 rrcurveto
            return
          </CharString>
          <CharString index="141">
            -1 -9 callsubr
            return
          </CharString>
          <CharString index="142">
            -9 callgsubr
            7 return
          </CharString>
          <CharString index="143">
            36 -29 30 -30 180 -10 222 -32 177 return
          </CharString>
          <CharString index="144">
            -7 7 -4 6 -2 7 rrcurveto
            -9 -7 1 -5 hhcurveto
            return
          </CharString>
          <CharString index="145">
            3 -10 -12 1 -13 hhcurveto
            -19 -19 -3 -4 -12 hvcurveto
            return
          </CharString>
          <CharString index="146">
            -160 -33 27 -11 -21 return
          </CharString>
          <CharString index="147">
            3 23 8 -1 9 hhcurveto
            return
          </CharString>
          <CharString index="148">
            -29 28 -12 -21 537 return
          </CharString>
          <CharString index="149">
            0 -1 11 hvcurveto
            return
          </CharString>
          <CharString index="150">
            -17 5 19 -15 19 hhcurveto
            12 17 10 20 hvcurveto
            return
          </CharString>
          <CharString index="151">
            -27 30 337 31 -31 168 -10 85 -31 return
          </CharString>
          <CharString index="152">
            31 24 5 35 hhcurveto
            11 10 1 -3 12 hvcurveto
            return
          </CharString>
          <CharString index="153">
            -26 -5 -4 -32 hhcurveto
            -62 2 -19 20 -23 vhcurveto
            return
          </CharString>
          <CharString index="154">
            1 7 0 5 1 7 rrcurveto
            return
          </CharString>
          <CharString index="155">
            -31 42 callgsubr
            return
          </CharString>
          <CharString index="156">
            -32 37 -37 206 return
          </CharString>
          <CharString index="157">
            -1 -4 -28 hvcurveto
            1 return
          </CharString>
          <CharString index="158">
            -5 0 -7 hhcurveto
            return
          </CharString>
          <CharString index="159">
            158 -132 132 -31 31 hintmask 00000000
            return
          </CharString>
          <CharString index="160">
            171 21 callgsubr
            return
          </CharString>
          <CharString index="161">
            30 418 -20 hstemhm
            85 113 -25 25 return
          </CharString>
          <CharString index="162">
            vhcurveto
            -5 -4 7 callsubr
            -35 -49 -7 -7 return
          </CharString>
          <CharString index="163">
            0 -1 15 hvcurveto
            return
          </CharString>
        <CharString name=".notdef">
          -182 endchar
        </CharString>
        <CharString name=".null">
          -420 endchar
        </CharString>
        <CharString name="A">
          30 callsubr
          751 7 callgsubr
          hintmask 10100000
          -95 callgsubr
          hintmask 01100000
          -60 callsubr
          hintmask 10100000
          -101 callsubr
          8 28 49 350 96 320 -53 callgsubr
          12 -52 54 -235 16 -67 rrcurveto
          -102 -65 -92 callgsubr
        </CharString>
        <CharString name="AE">
          296 -27 28 -28 145 -145 178 -161 -21 453 124 -30 -20 21 192 hstemhm
          449 35 96 30 113 28 hintmask 0000000000000000
          hintmask 0010011111000000
          728 126 rmoveto
          -7 -6 7 callsubr
          19 vlineto
          5 -59 -47 0 -49 hhcurveto
          -46 hlineto
          -15 -16 0 1 -15 hvcurveto
          -1 11 0 10 12 vvcurveto
          20 2 20 1 19 vhcurveto
          13 5 55 -10 53 13 rrcurveto
          33 2 31 32 vvcurveto
          19 -1 20 -4 21 vhcurveto
          1 -7 -5 1 -5 hhcurveto
          -3 18 rlineto
          5 -27 -20 -1 -23 hhcurveto
          -36 12 hlineto
          20 3 22 27 vvcurveto
          3 23 20 1 23 16 16 -1 15 hhcurveto
          35 hlineto
          39 37 0 11 43 hvcurveto
          39 2 31 35 vvcurveto
          16 -2 24 -1 16 vhcurveto
          -7 -13 -5 25 hvcurveto
          1 -8 -59 0 -80 hhcurveto
          -124 -176 -1 -5 -112 hvcurveto
          -160 -666 59 258 -54 -306 rrcurveto
          hintmask 0001100111000000
          5 7 0 1 4 hvcurveto
          3 2 0 1 2 hvcurveto
          -1 -7 -1 -7 -1 -8 rrcurveto
          hintmask 1000100111000000
          28 25 4 27 27 25 -2 27 hhcurveto
          13 13 9 45 11 39 -1 -1 rcurveline
          3 7 2 7 3 7 rrcurveto
          24 7 0 -1 7 hvcurveto
          3 -13 3 -13 4 -11 -28 callgsubr
          4 -16 7 -23 4 -17 rrcurveto
          20 -4 -8 -12 4 hvcurveto
          -3 47 57 -1 51 88 91 3 92 hhcurveto
          9 39 2 30 31 vvcurveto
          13 0 13 -1 15 vhcurveto
          -30 19 rmoveto
          1 -15 0 -12 -13 vvcurveto
          -31 -2 -30 -5 -27 vhcurveto
          -2 -2 rlineto
          -88 -89 -3 -88 hhcurveto
          -49 -49 1 3 -47 hvcurveto
          -9 39 -12 34 -7 37 -28 callgsubr
          hintmask 0100100111000000
          -34 25 2 -60 hhcurveto
          -3 -2 -11 -37 -13 -40 -8 -36 rlinecurve
          hintmask 1000100111000000
          -3 -2 rlineto
          -27 -28 1 -28 -20 -20 -3 -20 hhcurveto
          13 76 5 38 5 28 6 36 rcurveline
          8 53 19 53 95 410 rrcurveto
          8 181 343 0 18 hhcurveto
          -2 vlineto
          3 -16 -1 -16 -15 -32 -2 -32 -31 vvcurveto
          -2 vlineto
          -8 -33 -35 -1 -35 -28 -27 1 -28 hhcurveto
          -27 -27 -1 -4 -27 hvcurveto
          -13 vlineto
          -21 -3 -21 -23 vvcurveto
          -15 1 -12 5 -12 vhcurveto
          -3 15 13 0 16 hhcurveto
          32 hlineto
          15 15 -1 -2 15 hvcurveto
          3 -17 1 -17 -19 -28 -2 -30 -28 vvcurveto
          -39 -8 -71 9 -11 -11 rrcurveto
          -3 -19 0 -23 -23 vvcurveto
          -25 2 -22 7 -15 vhcurveto
          1 hlineto
          88 -4 90 5 80 -7 rrcurveto
          -444 150 rmoveto
          -7 43 -17 45 -11 43 -1 3 rcurveline
          -24 -66 -3 -12 -5 -59 rrcurveto
          2 hlineto
          1 3 4 0 5 12 13 -2 12 hhcurveto
          8 6 1 3 3 hvcurveto
          -35 7 rmoveto
          3 20 0 14 7 19 5 -20 6 -19 3 -16 rrcurveto
          -3 1 -1 -3 hhcurveto
          -6 -6 1 2 -6 hvcurveto
          endchar
        </CharString>
        <CharString name="Aacute">
          -33 callsubr
          -100 -324 -53 -367 -4 -26 -86 callgsubr
          -42 559 rmoveto
          -1 -1 -19 21 -67 -53 -42 -56 -80 -72 rlinecurve
          8 -3 12 -1 15 -3 -5 -4 -5 -5 -5 -4 rrcurveto
          -44 callgsubr
          -39 -631 -92 callgsubr
        </CharString>
        <CharString name="Acircumflex">
          30 callsubr
          761 23 183 7 callgsubr
          hintmask 10110000
          392 333 rmoveto
          -16 69 -60 247 -8 47 -5 -1 -5 0 -5 -1 -3 9 -1 8 -1 5 -116 -11 12 9 -35 -5 -77 -256 -46 -267 -21 -120 -14 -74 rcurveline
          23 hlineto
          -3 -20 53 -71 callgsubr
          8 28 49 350 96 320 -53 callgsubr
          12 -52 54 -235 16 -67 rrcurveto
          -141 581 -55 callsubr
          -63 callgsubr
          22 20 -178 163 rlineto
          143 -156 rmoveto
          -2 hlineto
          -102 callsubr
          39 -632 -92 callgsubr
        </CharString>
        <CharString name="Adieresis">
          30 callsubr
          763 30 -30 149 hstemhm
          68 184 hintmask 00000000
          hintmask 10101000
          -95 callgsubr
          hintmask 01101000
          -60 callsubr
          hintmask 10011000
          -101 callsubr
          8 28 49 350 96 320 -53 callgsubr
          12 -52 54 -235 16 -67 rrcurveto
          10 377 -52 callgsubr
          -16 -2 -24 -25 vvcurveto
          -19 1 -20 3 -15 vhcurveto
          17 hlineto
          -7 2 -30 callsubr
          vhcurveto
          166 30 rmoveto
          -3 hlineto
          -2 10 -1 13 17 24 2 26 11 vvcurveto
          4 13 25 2 23 hhcurveto
          20 19 -1 -4 9 hvcurveto
          -2 -6 -81 -18 vvcurveto
          hintmask 10101000
          -2 -2 vlineto
          -271 1 rmoveto
          -3 hlineto
          -2 10 -1 13 17 24 2 26 11 vvcurveto
          4 13 25 2 23 hhcurveto
          20 19 -1 -4 9 hvcurveto
          -2 -6 -81 -18 vvcurveto
          -1 vlineto
          -2 -1 rlineto
          91 -472 -92 callgsubr
        </CharString>
        <CharString name="Agrave">
          -33 callsubr
          -96 -325 -57 -365 -4 -27 -86 callgsubr
          -322 496 -83 callgsubr
          -67 callsubr
          -61 48 -61 80 -67 54 rrcurveto
          1 -13 -93 callgsubr
          206 -561 -92 callgsubr
        </CharString>
        <CharString name="Aring">
          30 callsubr
          756 30 44 96 -96 150 hstemhm
          126 148 -93 93 44 3 callsubr
          hintmask 10110101
          -95 callgsubr
          hintmask 01110101
          -60 callsubr
          hintmask 10101101
          -101 callsubr
          8 28 49 350 96 320 -53 callgsubr
          12 -52 54 -235 16 -67 rrcurveto
          -41 402 -25 callgsubr
          -32 callgsubr
          -32 -491 rmoveto
          151 -19 -10 58 -9 hhcurveto
          -12 -8 -94 -115 -16 hvcurveto
          8 7 -1 9 16 17 1 17 hhcurveto
          -74 599 rmoveto
          hintmask 10110011
          -29 callsubr
          1 -20 -33 -3 hvcurveto
          -20 hlineto
          -1 7 0 6 7 vvcurveto
          11 1 12 11 9 vhcurveto
          8 -561 rmoveto
          5 37 7 48 4 29 3 -28 5 -38 5 -48 rrcurveto
          endchar
        </CharString>
        <CharString name="Atilde">
          30 callsubr
          754 28 callgsubr
          438 3 callsubr
          hintmask 10100110
          -15 callsubr
          -77 -256 -46 -267 -21 -120 -14 -74 rcurveline
          23 hlineto
          -3 -20 53 -1 47 -1 25 0 17 -1 rlinecurve
          13 4 2 5 hhcurveto
          29 53 0 72 16 42 rrcurveto
          15 0 1 13 hhcurveto
          15 8 -72 -72 24 hvcurveto
          11 -3 2 2 7 -19 rrcurveto
          hintmask 01100110
          -60 callsubr
          hintmask 10001010
          -101 callsubr
          8 28 49 350 96 320 10 callgsubr
          -198 387 -41 callsubr
          12 9 20 5 13 hhcurveto
          3 -1 3 0 3 -1 rrcurveto
          -86 callsubr
          hintmask 10100110
          -97 callsubr
          -3 rcurveline
          1 -7 0 -5 -7 vvcurveto
          -67 -40 -75 -76 -35 -32 16 35 -15 vhcurveto
          hintmask 10010110
          12 -8 -10 11 -17 hhcurveto
          -15 -25 -5 -17 -11 hvcurveto
          -3 -6 rlineto
          -3 -7 -1 -7 -6 vvcurveto
          35 callgsubr
          vhcurveto
          126 -469 -92 callgsubr
        </CharString>
        <CharString name="B">
          57 -35 30 -30 184 268 134 -34 -20 24 -20 224 -20 hstemhm
          23 170 -30 139 -10 168 -30 30 -3 -76 callsubr
          hintmask 1010011001000000
          423 318 rmoveto
          -3 3 -1 2 2 vvcurveto
          2 vlineto
          -14 callgsubr
          -82 26 callgsubr
          4 hlineto
          19 -1 22 -1 21 -1 5 callgsubr
          -3 31 34 -1 32 hhcurveto
          hintmask 1010011000100000
          121 132 28 168 68 -36 43 -37 45 hvcurveto
          -28 14 rmoveto
          36 -44 35 -42 -64 vvcurveto
          -160 -126 -26 -117 -55 -55 6 1 -47 36 callgsubr
          76 8 callsubr
          hintmask 1010011001000000
          4 callsubr
          hintmask 1010011010000000
          -94 -166 rmoveto
          hintmask 1010010101000000
          7 9 3 12 15 vvcurveto
          87 -81 -12 -47 5 vhcurveto
          -7 -21 -4 -31 -28 vvcurveto
          -23 3 -22 11 -15 vhcurveto
          2 -1 rlineto
          11 13 -1 12 hhcurveto
          hintmask 0110011010000000
          29 29 3 23 19 hvcurveto
          -1 285 rmoveto
          7 11 6 15 15 vvcurveto
          50 -60 10 -36 -15 -13 -2 -5 -9 vhcurveto
          -13 vlineto
          -17 -2 -20 -23 vvcurveto
          -16 1 -18 5 -17 vhcurveto
          -2 13 14 -1 16 hhcurveto
          31 27 6 27 15 hvcurveto
          -7 -279 rmoveto
          -19 -16 -25 -3 -27 hhcurveto
          -27 4 11 21 23 5 26 4 20 hvcurveto
          25 -4 31 6 27 -16 1 -1 rcurveline
          1 vlineto
          3 -11 3 -11 -13 vvcurveto
          -13 -3 -10 -5 -7 vhcurveto
          -2 284 rmoveto
          -23 -12 -25 -5 -27 hhcurveto
          -18 hlineto
          3 -1 0 3 24 3 31 20 vvcurveto
          10 vlineto
          hintmask 1000111010000000
          3 8 7 0 11 hhcurveto
          hintmask 1001011010000000
          13 14 -1 -3 15 12 callsubr
          15 -4 10 -5 -17 vvcurveto
          -13 -5 -12 -7 -11 vhcurveto
          endchar
        </CharString>
        <CharString name="C">
          68 -44 30 -30 205 -10 144 -11 131 -30 30 113 30 -30 208 hstemhm
          17 187 -31 31 259 33 hintmask 0000000000000000
          hintmask 0100101101000000
          220 515 rmoveto
          7 7 21 6 15 hhcurveto
          41 -7 -37 -31 3 hvcurveto
          3 -40 -3 -5 22 -3 2 -16 rcurveline
          -7 35 33 -4 31 hhcurveto
          21 21 2 5 21 hvcurveto
          11 30 5 28 25 vvcurveto
          135 -134 126 -141 -108 -55 -48 -81 -29 -17 callsubr
          -9 -19 -4 -21 -21 -4 1 -4 -3 vvcurveto
          -1 -81 -1 -63 -56 vvcurveto
          -92 2 -63 3 -60 vhcurveto
          -104 11 105 -61 102 hhcurveto
          148 107 90 143 24 -3 25 -11 31 hvcurveto
          -15 3 -3 7 1 3 -3 7 rlinecurve
          hintmask 1010110101000000
          5 -19 -21 1 -21 -16 -15 -1 -16 hhcurveto
          -13 -14 1 2 -14 hvcurveto
          hintmask 0101010011000000
          -69 -16 22 -67 -72 -3 -3 1 -3 hhcurveto
          1 hlineto
          -38 8 6 91 67 vvcurveto
          138 9 48 1 1 vhcurveto
          -27 27 rmoveto
          -3 -3 -11 -45 -146 vvcurveto
          hintmask 1010110101000000
          -72 -7 -125 77 84 -23 81 54 14 vhcurveto
          hintmask 1001010101000000
          -1 9 9 -1 11 17 17 1 19 hhcurveto
          19 18 -1 -4 15 hvcurveto
          8 -24 3 -24 -23 vvcurveto
          -137 -104 -86 -141 -86 -94 39 97 -8 vhcurveto
          -3 60 -2 62 92 vvcurveto
          56 1 64 1 81 vhcurveto
          -1 3 0 4 5 vvcurveto
          20 5 18 7 17 vhcurveto
          91 32 66 31 85 hhcurveto
          130 115 -103 -128 -25 -4 -25 -9 -24 hvcurveto
          -4 -19 -19 -2 -18 hhcurveto
          -29 -30 3 7 -31 hvcurveto
          52 -8 15 81 -73 hhcurveto
          -16 -27 -5 -11 -11 hvcurveto
          endchar
        </CharString>
        <CharString name="CR">
          -182 endchar
        </CharString>
        <CharString name="Ccedilla">
          56 -159 33 87 29 -29 194 -10 141 -10 125 -30 30 109 30 -30 193 hstemhm
          16 183 -30 30 251 -76 callsubr
          hintmask 1010101010100000
          28 525 rmoveto
          -4 -60 -1 -63 -63 vvcurveto
          -47 1 -55 1 -43 vhcurveto
          -10 vlineto
          3 -105 43 -105 91 -11 rrcurveto
          -5 -28 -16 -44 -16 vvcurveto
          -12 -1 -2 21 vhcurveto
          -6 vlineto
          -15 7 1 20 vhcurveto
          17 14 2 23 hhcurveto
          7 9 42 callsubr
          8 32 13 52 8 30 rrcurveto
          2 0 2 1 1 vhcurveto
          116 8 72 103 108 vvcurveto
          24 -5 27 -8 27 vhcurveto
          -15 3 -2 0 -3 17 rrcurveto
          hintmask 1101011010100000
          7 -23 -21 1 -23 -28 -29 -2 -23 hhcurveto
          hintmask 1010010101100000
          -75 -11 11 -54 -62 hhcurveto
          -4 -3 0 1 -2 hvcurveto
          2 hlineto
          -36 8 4 111 54 vvcurveto
          66 -14 115 69 43 -20 -59 -51 19 vhcurveto
          17 -3 -2 -4 5 -13 rrcurveto
          -5 35 29 -4 25 hhcurveto
          18 18 2 4 18 hvcurveto
          18 3 62 13 68 -30 71 -51 44 hvcurveto
          56 -49 -62 12 -69 hhcurveto
          -29 hlineto
          -15 hlineto
          -28 -32 -2 -19 -28 hvcurveto
          -43 -36 -17 -53 -5 -57 1 2 rcurveline
          -3 -7 1 -2 -4 vvcurveto
          10 -1 rmoveto
          57 22 60 43 35 vhcurveto
          15 23 29 2 27 hhcurveto
          15 hlineto
          29 hlineto
          36 37 -1 -13 32 hvcurveto
          78 -32 48 -89 -86 vvcurveto
          -23 -3 -21 -7 -20 vhcurveto
          -3 -1 rlineto
          -5 -19 -16 -1 -17 hhcurveto
          -27 -25 4 4 -28 hvcurveto
          -2 hlineto
          hintmask 1101011001100000
          43 -16 24 88 -78 hhcurveto
          -79 15 -121 -71 -72 -8 -131 76 76 -12 73 56 8 hvcurveto
          hintmask 1100101010100000
          19 26 2 27 hhcurveto
          21 21 -1 -5 16 hvcurveto
          7 -24 4 -23 -23 vvcurveto
          -104 -70 -101 -113 -5 vhcurveto
          -3 1 -8 -29 -11 -52 -11 -35 rlinecurve
          -2 vlineto
          -5 -4 1 -7 -19 -21 -3 -17 hhcurveto
          -7 -10 -1 5 14 21 63 5 38 hvcurveto
          3 vlineto
          -1 -7 -4 0 -7 hhcurveto
          -93 -28 100 92 -3 hvcurveto
          10 vlineto
          -1 47 -1 47 51 vvcurveto
          63 1 62 4 60 vhcurveto
          endchar
        </CharString>
        <CharString name="D">
          62 -25 30 -13 -21 741 -20 hstemhm
          30 180 -27 145 -10 173 -30 3 callsubr
          hintmask 01110100
          422 602 rmoveto
          -25 44 -57 49 -55 16 rrcurveto
          -1 -13 -13 0 -13 -31 -31 2 -31 hhcurveto
          -39 -37 -1 -11 -39 hvcurveto
          -4 -4 -2 -3 -1 -3 rrcurveto
          -1 -1 0 -1 -1 vvcurveto
          1 -32 0 -32 -33 -92 -2 -85 -87 vvcurveto
          -116 3 -110 15 -109 vhcurveto
          5 5 1 7 hhcurveto
          3 -21 rlineto
          hintmask 10101010
          85 1 105 0 88 3 52 65 50 72 31 88 12 56 -2 69 4 61 -1 21 -1 22 -8 24 1 -1 rcurveline
          -12 53 -19 50 -31 47 rrcurveto
          -28 15 rmoveto
          39 -61 26 -77 4 -72 -3 -64 1 -63 -12 -61 -1 -2 rcurveline
          -27 -80 -49 -68 -51 -64 rrcurveto
          -3 -88 -91 0 -84 hhcurveto
          -1 -1 rlineto
          -15 101 -2 108 112 89 2 89 91 vvcurveto
          32 0 32 -1 32 vhcurveto
          1 1 1 2 1 1 rrcurveto
          9 36 38 2 39 33 34 -2 32 11 7 1 11 hhcurveto
          43 -11 42 -34 24 -39 rrcurveto
          -92 -363 rmoveto
          17 27 11 27 35 vvcurveto
          60 -17 85 -89 -13 -13 -1 -2 -12 vhcurveto
          -3 -4 hlineto
          1 -19 1 -19 -23 -39 -2 -44 -44 vvcurveto
          -24 1 -24 1 -23 vhcurveto
          -7 8 12 -2 13 hhcurveto
          12 12 1 2 11 hvcurveto
          2 hlineto
          16 20 22 16 11 hvcurveto
          -8 6 rmoveto
          -7 -11 -9 -11 -12 -7 14 callsubr
          -3 -4 -4 -3 -3 -1 0 1 -1 hhcurveto
          -1 -11 -9 -2 -16 hhcurveto
          -5 hlineto
          hintmask 10110100
          5 -1 6 5 51 3 52 51 vvcurveto
          20 -1 24 -1 19 vhcurveto
          1 11 9 1 11 hhcurveto
          12 12 -1 -1 12 hvcurveto
          10 -5 rlineto
          19 -33 11 -48 -27 vvcurveto
          -32 -10 -28 -16 -24 vhcurveto
          endchar
        </CharString>
        <CharString name="E">
          -32 callsubr
          hstemhm
          25 11 callsubr
          hintmask 00000000
          hintmask 01011011
          -105 callgsubr
          -1 vlineto
          -2 5 -18 -2 17 -51 callsubr
          hintmask 10100111
          -107 callsubr
          endchar
        </CharString>
        <CharString name="Eacute">
          -32 callsubr
          10 -43 callsubr
          17 11 callsubr
          hintmask 0000000000000000
          hintmask 0101111011000000
          -105 callgsubr
          -1 vlineto
          -3 6 -17 -5 19 -51 callsubr
          hintmask 1010110111000000
          -107 callsubr
          -115 774 rmoveto
          -1 -1 -19 21 -67 -53 -42 -56 -80 -72 rlinecurve
          8 -3 12 -1 15 -3 -5 -4 -5 -5 -5 -4 rrcurveto
          -45 callgsubr
        </CharString>
        <CharString name="Ecircumflex">
          -32 callsubr
          -19 60 -23 -4 callgsubr
          20 11 callsubr
          hintmask 0000000000000000
          hintmask 0101011101100000
          -105 callgsubr
          -1 vlineto
          -3 6 -17 -5 19 -51 callsubr
          hintmask 1010101011100000
          -107 callsubr
          -211 796 -55 callsubr
          hintmask 1010011101100000
          -4 -5 -5 -5 -4 -7 rrcurveto
          -4 64 33 -3 11 hhcurveto
          33 15 35 14 19 hvcurveto
          -56 48 11 7 31 -79 callsubr
          endchar
        </CharString>
        <CharString name="Edieresis">
          -32 callsubr
          -19 69 -33 callgsubr
          149 hstemhm
          22 197 -131 184 -88 35 96 31 112 29 hintmask 0000000000000000
          hintmask 0101010100110000
          -105 callgsubr
          -2 vlineto
          8 -20 -7 21 vvcurveto
          -1 vlineto
          -80 callgsubr
          hintmask 1010100001110000
          -107 callsubr
          hintmask 1010001100110000
          -52 592 -52 callgsubr
          hintmask 1010001010110000
          -16 -2 -24 -25 vvcurveto
          -19 1 -20 3 -15 vhcurveto
          17 hlineto
          -7 2 -30 callsubr
          vhcurveto
          166 30 rmoveto
          -3 hlineto
          -2 10 -1 13 17 24 2 26 11 vvcurveto
          4 13 25 2 23 hhcurveto
          20 19 -1 -4 9 hvcurveto
          -2 -6 -81 -18 vvcurveto
          hintmask 1010100100110000
          -2 -2 vlineto
          -271 1 rmoveto
          -3 hlineto
          -2 10 -1 13 17 24 2 26 11 vvcurveto
          4 13 25 2 23 hhcurveto
          20 19 -1 -4 9 hvcurveto
          -2 -6 -81 -18 vvcurveto
          -1 -2 vlineto
          endchar
        </CharString>
        <CharString name="Egrave">
          -32 callsubr
          -19 59 -30 -43 callsubr
          21 11 callsubr
          hintmask 0000000000000000
          hintmask 0101011101100000
          -105 callgsubr
          -1 vlineto
          -1 3 -6 3 -11 2 rrcurveto
          19 -5 -9 5 -71 -95 callsubr
          hintmask 1010101011100000
          -107 callsubr
          -366 711 -83 callgsubr
          hintmask 1010011101100000
          -47 callsubr
          endchar
        </CharString>
        <CharString name="Eth">
          62 -30 30 164 113 -33 callgsubr
          172 -14 129 -33 callgsubr
          211 hstemhm
          11 68 -7 151 -28 28 33 30 -30 102 -10 169 -30 -76 callsubr
          hintmask 1100100101101000
          -15 420 rmoveto
          -21 vlineto
          -60 4 -34 -43 vvcurveto
          20 -20 33 hlineto
          hintmask 1001001010100100
          -79 1 -81 3 -88 vhcurveto
          7 5 1 7 hhcurveto
          -7 1 -7 -7 vvcurveto
          17 hlineto
          56 49 -4 51 hhcurveto
          35 34 1 7 33 hvcurveto
          39 8 59 47 37 164 rrcurveto
          10 42 5 43 45 vvcurveto
          65 -10 60 -17 55 -17 callgsubr
          153 -45 -97 56 -108 hhcurveto
          -60 -62 -10 -9 -51 hvcurveto
          1 -49 1 -54 -47 -43 -1 -41 -43 vvcurveto
          hintmask 1100100101010100
          10 -10 rmoveto
          47 1 43 47 vvcurveto
          47 -1 45 -1 49 vhcurveto
          7 51 56 11 56 hhcurveto
          72 65 -19 -68 41 hvcurveto
          47 -79 22 -96 -96 vvcurveto
          -44 -6 -41 -9 -43 vhcurveto
          -37 -165 -54 -38 -36 -8 rrcurveto
          -7 -31 -33 -1 -32 -49 -47 4 -47 hhcurveto
          -24 hlineto
          -3 96 -1 87 84 vvcurveto
          1 -9 -10 0 -9 hhcurveto
          -25 hlineto
          -58 callsubr
          311 -205 rmoveto
          16 27 10 53 51 vvcurveto
          24 2 174 -108 -23 -23 -5 -5 -13 vhcurveto
          1 -15 1 -16 -21 -20 -1 -23 -23 vvcurveto
          59 -1 rlineto
          -38 callgsubr
          -63 1 rlineto
          -57 vlineto
          -30 -14 -27 48 57 25 6 35 23 vhcurveto
          -8 6 rmoveto
          -14 -21 -20 -11 -26 -3 rrcurveto
          -7 hlineto
          -8 -13 -1 -12 hhcurveto
          -1 73 rlineto
          hintmask 1010010101101000
          63 -1 rlineto
          47 -3 76 25 vvcurveto
          -20 20 hlineto
          -11 -13 0 1 -15 hvcurveto
          12 1 9 15 vvcurveto
          19 0 11 -1 15 vhcurveto
          3 12 17 4 19 hhcurveto
          14 12 -3 -5 11 hvcurveto
          2 -2 rlineto
          30 -40 7 -69 -49 vvcurveto
          -48 -10 -53 -15 -25 vhcurveto
          endchar
        </CharString>
        <CharString name="Euro">
          70 -32 30 -30 210 47 170 -34 34 112 56 -30 185 hstemhm
          324 28 114 24 hintmask 00000000
          hintmask 01100111
          244 -27 rmoveto
          -55 11 -49 19 -32 39 -1 1 rcurveline
          -8 7 -5 6 -7 8 rrcurveto
          -1 vlineto
          -59 67 -9 112 110 vvcurveto
          88 -10 98 56 86 vhcurveto
          95 64 128 -1 119 hhcurveto
          86 hlineto
          1 -7 1 -6 -7 vvcurveto
          18 hlineto
          4 -31 2 -35 -32 vvcurveto
          -27 2 -33 -12 -12 vhcurveto
          -35 -28 5 -32 hhcurveto
          -33 -32 -4 -13 -25 hvcurveto
          9 -1 11 -2 13 -5 rrcurveto
          -19 8 3 12 -4 vhcurveto
          3 -20 1 -19 -16 vvcurveto
          -19 -1 -20 -3 -21 vhcurveto
          -7 -3 -7 -1 -7 -1 3 -18 rcurveline
          7 3 -2 callgsubr
          4 -20 3 -21 -17 vvcurveto
          -21 -2 -22 -3 -17 vhcurveto
          -5 -29 -23 -1 -25 hhcurveto
          -22 hlineto
          -13 hlineto
          13 -45 81 1 54 -3 29 -1 27 -1 32 -7 rrcurveto
          -7 -1 -4 -5 vvcurveto
          7 -1 7 -2 7 -1 rrcurveto
          -7 -1 -6 -7 vvcurveto
          -16 1 -16 1 -15 -17 callsubr
          1 -15 1 -16 -15 vvcurveto
          -19 0 -17 -7 -23 vhcurveto
          -8 -47 -40 -2 -39 hhcurveto
          -31 -32 2 1 -35 hvcurveto
          -19 30 rmoveto
          hintmask 10011011
          -1 35 31 -2 31 hhcurveto
          39 36 2 7 43 hvcurveto
          3 19 2 17 15 29 -4 29 28 5 1 5 7 vvcurveto
          1 vlineto
          -90 16 -148 -32 -21 108 45 3 32 -4 39 7 rrcurveto
          3 15 1 17 19 vvcurveto
          17 -2 16 -3 15 vhcurveto
          1 -23 -21 1 -19 hhcurveto
          -62 hlineto
          -3 12 0 8 13 vvcurveto
          1 hlineto
          1 8 9 0 9 13 13 -1 13 hhcurveto
          23 22 0 7 17 hvcurveto
          1 vlineto
          1 15 2 17 19 vvcurveto
          17 -1 16 -2 15 -17 callsubr
          3 -12 -13 2 -15 hhcurveto
          -49 hlineto
          45 27 53 11 55 hhcurveto
          31 32 -2 -3 28 hvcurveto
          6 6 -2 41 15 vvcurveto
          31 -2 30 -3 27 vhcurveto
          -1 1 -183 -8 -222 44 -16 -274 rlinecurve
          -1 -39 -1 -40 -40 vvcurveto
          -172 21 -145 176 -32 vhcurveto
          endchar
        </CharString>
        <CharString name="F">
          74 -33 30 508 29 -29 202 hstemhm
          22 213 -30 30 110 30 105 31 hintmask 00000000
          hintmask 10110110
          359 438 rmoveto
          -4 -31 -38 -1 -32 hhcurveto
          -19 5 9 12 11 3 13 3 11 hvcurveto
          83 8 107 3 79 5 rrcurveto
          1 15 2 30 23 35 -2 37 25 vvcurveto
          -7 1 -6 0 -2 callsubr
          16 vlineto
          12 -51 -68 5 -72 hhcurveto
          -111 -123 -10 -8 -42 hvcurveto
          -317 -2 -130 -245 vvcurveto
          3 -3 7 -2 10 -2 rrcurveto
          -13 vlineto
          -8 11 31 -2 36 hhcurveto
          39 43 1 4 35 hvcurveto
          40 vlineto
          67 2 67 5 72 vhcurveto
          23 3 110 2 20 13 -2 15 19 28 2 31 23 vvcurveto
          15 -2 16 -5 15 vhcurveto
          -5 -1 -5 0 -5 -1 -1 8 -1 7 -3 7 rrcurveto
          -6 -177 rmoveto
          -41 -7 -47 -1 -40 -7 5 callgsubr
          hintmask 11001110
          -7 -84 0 -85 -1 -76 rrcurveto
          -3 -27 -44 -1 -36 hhcurveto
          -35 -27 1 3 -5 hvcurveto
          -1 113 rlineto
          142 2 111 170 vvcurveto
          143 vlineto
          8 42 115 9 109 hhcurveto
          71 66 -4 -11 44 hvcurveto
          -17 1 -29 -29 vvcurveto
          -41 vlineto
          -13 0 -10 -1 -9 vhcurveto
          -72 -5 -112 -3 -83 -8 rrcurveto
          -7 -15 -2 -14 -15 vvcurveto
          -54 18 4 53 27 24 0 3 17 vhcurveto
          2 -6 1 -12 -19 -27 -2 -32 -31 vvcurveto
          -15 1 -11 1 -11 vhcurveto
          -1 -1 -1 -2 vhcurveto
          endchar
        </CharString>
        <CharString name="G">
          61 -46 30 148 107 -107 236 -10 112 -29 29 58 29 -29 184 hstemhm
          16 177 -33 callgsubr
          158 130 -76 callsubr
          hintmask 1010101100100000
          230 357 rmoveto
          3 -53 -6 -5 8 -66 11 -4 5 5 4 -21 rrcurveto
          -4 11 13 -1 15 hhcurveto
          12 hlineto
          7 hlineto
          -7 -39 -5 -10 -19 -8 14 callsubr
          -6 -13 -15 -3 -17 hhcurveto
          -4 -5 0 1 -4 hvcurveto
          1 hlineto
          -12 3 rlineto
          -24 42 4 69 55 vvcurveto
          72 6 69 13 43 vhcurveto
          35 11 7 -3 20 hhcurveto
          47 6 -28 -35 11 hvcurveto
          21 -4 -5 -7 4 -9 rrcurveto
          -6 41 12 2 24 hhcurveto
          38 hlineto
          36 -4 25 27 133 -111 86 -132 -239 17 -211 -136 -60 3 -46 7 -59 hvcurveto
          -134 82 -112 136 107 116 28 122 13 -17 callgsubr
          7 32 1 35 35 vvcurveto
          43 -5 48 -4 45 vhcurveto
          -18 1 rlineto
          -1 7 -1 5 7 vvcurveto
          -12 1 rlineto
          -21 -57 6 -51 hhcurveto
          -35 -31 -2 -9 -15 hvcurveto
          -2 -2 rlineto
          1 -1 1 -2 vhcurveto
          10 -9 rmoveto
          hintmask 1101010010100000
          8 13 29 2 32 53 61 -6 17 hhcurveto
          3 -1 rlineto
          4 -40 4 -43 -43 vvcurveto
          -35 -1 -33 -7 -32 vhcurveto
          -116 -13 -115 -25 -98 hhcurveto
          -199 1 218 160 64 -13 177 83 59 hvcurveto
          31 37 57 9 48 hhcurveto
          119 94 -64 -125 -11 -1 -10 -1 -11 hvcurveto
          -1 -6 rlineto
          -4 -2 -48 -1 -24 hhcurveto
          -15 -14 1 3 -23 hvcurveto
          28 -8 -21 55 -39 -9 -8 1 -8 hhcurveto
          -15 -10 -1 -11 -11 hvcurveto
          -19 -19 -11 -104 -91 vvcurveto
          -55 -12 -145 84 vhcurveto
          hintmask 1101010001100000
          43 43 8 81 21 -6 -3 -12 hvcurveto
          -12 -15 -1 -13 hhcurveto
          -8 -8 -1 3 -4 hvcurveto
          -3 15 1 11 11 vvcurveto
          28 vlineto
          11 1 13 -3 16 -17 callsubr
          endchar
        </CharString>
        <CharString name="H">
          79 -26 27 -16 -21 36 -20 272 30 435 -20 hstemhm
          187 33 69 190 -30 3 callsubr
          hintmask 10011101
          472 695 rmoveto
          1 -8 51 callsubr
          19 vlineto
          3 -20 -10 -1 -12 hhcurveto
          hintmask 01011110
          -39 -45 -5 -9 -31 hvcurveto
          3 -40 0 -43 -35 vvcurveto
          -44 -2 -50 -4 -48 vhcurveto
          -7 hlineto
          -3 -19 -18 -1 -19 hhcurveto
          -11 hlineto
          -15 81 5 77 -9 87 -5 1 -6 2 -7 1 rrcurveto
          26 -5 -22 -4 -16 -24 -23 -4 -19 hhcurveto
          -9 -9 1 2 -9 hvcurveto
          -15 -1 rlineto
          -1 -32 0 -46 -39 vvcurveto
          -209 8 -303 8 -95 vhcurveto
          7 5 6 2 5 1 1 -11 0 -9 1 -8 rrcurveto
          hintmask 10011101
          8 15 11 2 11 20 25 -4 23 hhcurveto
          19 15 2 9 15 hvcurveto
          7 35 0 32 31 40 -2 38 41 vvcurveto
          13 0 21 1 15 vhcurveto
          4 19 15 1 19 hhcurveto
          8 8 -1 -1 11 hvcurveto
          8 -79 -7 -89 13 -93 rrcurveto
          1 5 5 0 7 hhcurveto
          3 -21 45 3 58 -6 57 11 rlinecurve
          -30 29 rmoveto
          -4 -23 -27 -1 -25 hhcurveto
          -36 hlineto
          hintmask 00111101
          -11 -10 0 -1 -8 12 callsubr
          -13 89 9 101 -11 86 -1 1 rcurveline
          3 -19 -17 2 -19 hhcurveto
          -21 -21 -2 -5 -19 hvcurveto
          -2 -22 -1 -22 -21 -39 2 -39 -39 vvcurveto
          -29 -1 -29 -4 -28 vhcurveto
          -7 -11 -12 0 -15 -25 -28 5 -23 hhcurveto
          hintmask 10011101
          -10 -7 -1 -3 -5 hvcurveto
          -8 96 -7 284 210 vvcurveto
          39 0 36 1 32 vhcurveto
          3 1 rlineto
          -2 7 7 -1 8 3 3 1 3 hhcurveto
          33 2 rlineto
          9 9 1 9 hhcurveto
          14 12 -1 -3 10 hvcurveto
          12 -92 -7 -86 16 -85 14 callsubr
          -3 11 13 -1 15 hhcurveto
          24 24 2 3 21 hvcurveto
          1 hlineto
          5 55 2 46 49 vvcurveto
          34 -1 37 -2 40 vhcurveto
          8 27 41 4 37 hhcurveto
          11 10 42 callsubr
          endchar
        </CharString>
        <CharString name="H18533">
          159 -24 30 497 -20 hstem
          510 31 vstem
          547 107 -77 callsubr
          endchar
        </CharString>
        <CharString name="I">
          39 callsubr
          756 -20 hstemhm
          26 217 -30 3 callsubr
          hintmask 01110000
          198 713 rmoveto
          -24 hlineto
          -59 -2 5 -57 hhcurveto
          -7 -4 -1 -1 -7 hvcurveto
          -7 -72 -3 -65 -64 -116 7 -114 -115 vvcurveto
          -59 -3 -70 -4 -59 vhcurveto
          8 3 6 0 7 1 rrcurveto
          -8 57 callgsubr
          hintmask 10101000
          4 17 13 1 13 27 31 -2 29 hhcurveto
          31 29 3 13 13 hvcurveto
          -4 69 -2 73 71 165 7 160 160 vvcurveto
          14 -20 20 vlineto
          -10 -10 rmoveto
          -4 vlineto
          -157 -7 -159 -160 vvcurveto
          -73 2 -73 4 -72 vhcurveto
          -8 -8 -24 -3 -27 -35 -38 4 -27 hhcurveto
          -9 -7 -1 -1 -7 hvcurveto
          4 56 2 56 56 120 -7 116 116 vvcurveto
          64 2 63 7 63 vhcurveto
          2 4 vlineto
          42 13 -5 69 hhcurveto
          23 hlineto
          endchar
        </CharString>
        <CharString name="Iacute">
          -161 -33 27 -11 -21 741 45 -30 -43 callsubr
          23 217 -30 3 callsubr
          hintmask 01011100
          198 713 rmoveto
          -24 hlineto
          -59 -2 5 -57 hhcurveto
          -7 -4 -1 -1 -7 hvcurveto
          -7 -72 -3 -65 -64 -116 7 -114 -115 vvcurveto
          -59 -3 -70 -4 -59 vhcurveto
          8 3 6 0 7 1 rrcurveto
          -8 57 callgsubr
          hintmask 10101010
          4 17 13 1 13 27 31 -2 29 hhcurveto
          31 29 3 13 13 hvcurveto
          -4 69 -2 73 71 165 7 160 160 vvcurveto
          14 -20 20 vlineto
          -10 -10 rmoveto
          -4 vlineto
          -157 -7 -159 -160 vvcurveto
          -73 2 -73 4 -72 vhcurveto
          -8 -8 -24 -3 -27 -35 -38 4 -27 hhcurveto
          -9 -7 -1 -1 -7 hvcurveto
          4 56 2 56 56 120 -7 116 116 vvcurveto
          64 2 63 7 63 vhcurveto
          2 4 vlineto
          42 13 -5 69 hhcurveto
          23 hlineto
          49 207 -50 callgsubr
          hintmask 10011100
          -45 callgsubr
        </CharString>
        <CharString name="Icircumflex">
          39 callsubr
          741 46 -23 -4 callgsubr
          60 217 -30 3 callsubr
          hintmask 01101100
          198 713 rmoveto
          -24 hlineto
          -59 -2 5 -57 hhcurveto
          -7 -4 -1 -1 -7 hvcurveto
          -7 -72 -3 -65 -64 -116 7 -114 -115 vvcurveto
          -59 -3 -70 -4 -59 vhcurveto
          8 3 6 0 7 1 rrcurveto
          -8 57 callgsubr
          hintmask 10101010
          4 17 13 1 13 27 31 -2 29 hhcurveto
          31 29 3 13 13 hvcurveto
          -4 69 -2 73 71 165 7 160 160 vvcurveto
          14 -20 20 vlineto
          -10 -10 rmoveto
          -4 vlineto
          -157 -7 -159 -160 vvcurveto
          -73 2 -73 4 -72 vhcurveto
          -8 -8 -24 -3 -27 -35 -38 4 -27 hhcurveto
          -9 -7 -1 -1 -7 hvcurveto
          4 56 2 56 56 120 -7 116 116 vvcurveto
          64 2 63 7 63 vhcurveto
          2 4 vlineto
          42 13 -5 69 hhcurveto
          23 hlineto
          -54 229 -55 callsubr
          hintmask 10011100
          -4 -5 -5 -5 -4 -7 rrcurveto
          -4 64 33 -3 11 hhcurveto
          33 15 35 14 19 hvcurveto
          -56 43 21 7 26 -79 callsubr
          endchar
        </CharString>
        <CharString name="Idieresis">
          39 callsubr
          741 55 -30 149 hstemhm
          9 184 -145 217 -30 3 callsubr
          hintmask 01100100
          198 713 rmoveto
          -24 hlineto
          -59 -2 5 -57 hhcurveto
          -7 -4 -1 -1 -7 hvcurveto
          -7 -72 -3 -65 -64 -116 7 -114 -115 vvcurveto
          -59 -3 -70 -4 -59 vhcurveto
          8 3 6 0 7 1 rrcurveto
          -8 57 callgsubr
          hintmask 10101010
          4 17 13 1 13 27 31 -2 29 hhcurveto
          31 29 3 13 13 hvcurveto
          -4 69 -2 73 71 165 7 160 160 vvcurveto
          14 -20 20 vlineto
          -10 -10 rmoveto
          -4 vlineto
          -157 -7 -159 -160 vvcurveto
          -73 2 -73 4 -72 vhcurveto
          -8 -8 -24 -3 -27 -35 -38 4 -27 hhcurveto
          -9 -7 -1 -1 -7 hvcurveto
          4 56 2 56 56 120 -7 116 116 vvcurveto
          64 2 63 7 63 vhcurveto
          2 4 vlineto
          42 13 -5 69 hhcurveto
          23 hlineto
          hintmask 10011010
          -67 25 -91 callgsubr
          -8 30 rmoveto
          -3 hlineto
          -2 10 -1 13 17 24 2 26 11 vvcurveto
          4 13 25 2 23 hhcurveto
          20 19 -1 -4 9 hvcurveto
          -2 -6 -81 -18 vvcurveto
          hintmask 10101010
          -2 -2 vlineto
          -271 1 rmoveto
          -3 hlineto
          -2 10 -1 13 17 24 2 26 11 vvcurveto
          4 13 25 2 23 hhcurveto
          20 19 -1 -4 9 hvcurveto
          -2 -6 -81 -18 vvcurveto
          -1 -2 vlineto
          endchar
        </CharString>
        <CharString name="Igrave">
          39 callsubr
          741 45 -30 -43 callsubr
          56 217 -30 3 callsubr
          hintmask 01011100
          198 713 rmoveto
          -24 hlineto
          -59 -2 5 -57 hhcurveto
          -7 -4 -1 -1 -7 hvcurveto
          -7 -72 -3 -65 -64 -116 7 -114 -115 vvcurveto
          -59 -3 -70 -4 -59 vhcurveto
          8 3 6 0 7 1 rrcurveto
          -8 57 callgsubr
          hintmask 10101010
          4 17 13 1 13 27 31 -2 29 hhcurveto
          31 29 3 13 13 hvcurveto
          -4 69 -2 73 71 165 7 160 160 vvcurveto
          14 -20 20 vlineto
          -10 -10 rmoveto
          -4 vlineto
          -157 -7 -159 -160 vvcurveto
          -73 2 -73 4 -72 vhcurveto
          -8 -8 -24 -3 -27 -35 -38 4 -27 hhcurveto
          -9 -7 -1 -1 -7 hvcurveto
          4 56 2 56 56 120 -7 116 116 vvcurveto
          64 2 63 7 63 vhcurveto
          2 4 vlineto
          42 13 -5 69 hhcurveto
          23 hlineto
          -228 144 -83 callgsubr
          hintmask 10011100
          -45 callsubr
        </CharString>
        <CharString name="J">
          43 -38 30 -30 213 -10 138 419 -20 hstemhm
          165 117 -7 189 -34 34 hintmask 00000000
          hintmask 01010100
          269 720 rmoveto
          -17 vlineto
          -63 -6 -60 3 -61 vhcurveto
          -92 1 -103 3 -88 vhcurveto
          -31 -3 -11 -30 -27 hhcurveto
          -37 0 53 32 -3 hvcurveto
          14 1 callgsubr
          hintmask 10111010
          7 -31 -36 2 -35 hhcurveto
          -25 -25 0 -7 -23 hvcurveto
          -11 -1 -16 -11 vvcurveto
          -144 49 -152 178 40 42 6 19 35 vhcurveto
          -1 hlineto
          116 43 3 130 3 108 rrcurveto
          33 2 32 33 96 -5 91 89 vvcurveto
          60 -20 20 vlineto
          hintmask 10110100
          -10 -10 rmoveto
          hintmask 10111010
          -1 -17 0 -16 -17 -93 5 -93 -96 vvcurveto
          -17 1 -17 -1 -17 vhcurveto
          -5 -109 13 -158 -124 -46 rrcurveto
          -17 -35 -39 -7 -39 hhcurveto
          -25 -24 3 5 -25 hvcurveto
          -99 29 -24 128 100 vvcurveto
          11 0 9 1 11 vhcurveto
          3 16 22 2 25 hhcurveto
          31 34 -3 -4 27 hvcurveto
          -6 vlineto
          -48 3 10 -67 57 hhcurveto
          33 15 35 36 3 hvcurveto
          -3 92 -1 94 97 vvcurveto
          61 1 61 2 62 vhcurveto
          7 vlineto
          endchar
        </CharString>
        <CharString name="K">
          39 -32 31 -9 -21 739 -20 21 -20 hstemhm
          26 181 -25 25 hintmask 00000000
          hintmask 10101000
          323 340 rmoveto
          45 104 87 109 40 130 -9 1 -9 1 -8 1 3 7 0 3 3 7 rrcurveto
          4 -27 -21 1 -21 -23 -19 -1 -24 -7 -5 7 callsubr
          -53 -74 -23 -56 -35 -62 rrcurveto
          41 vlineto
          41 0 50 -1 39 vhcurveto
          -20 20 hlineto
          hintmask 10011000
          -43 -40 2 -47 hhcurveto
          -24 hlineto
          -175 -6 -167 -167 vvcurveto
          -65 1 -73 3 -65 vhcurveto
          13 -3 3 6 4 -23 rrcurveto
          -5 23 33 -4 31 hhcurveto
          28 28 2 7 23 hvcurveto
          60 -4 77 68 vvcurveto
          24 -61 39 -85 41 -44 rrcurveto
          4 hlineto
          5 -7 4 -6 7 -7 rrcurveto
          hintmask 01101000
          31 27 -3 31 hhcurveto
          20 21 1 7 28 hvcurveto
          -34 27 rmoveto
          hintmask 10100100
          -4 -19 -19 -1 -19 hhcurveto
          -28 -29 2 1 -25 hvcurveto
          -57 65 -39 122 -42 74 rrcurveto
          -1 -16 0 -16 -17 -69 4 -80 -60 vvcurveto
          -5 -17 -25 -2 -27 hhcurveto
          -29 -29 3 4 -19 hvcurveto
          -3 65 -1 66 65 157 6 157 159 vvcurveto
          17 -7 8 26 vhcurveto
          39 39 -2 37 hhcurveto
          1 -24 0 -25 -25 vvcurveto
          -92 vlineto
          -27 0 -23 1 -24 vhcurveto
          1 1 1 1 1 2 2 2 rlinecurve
          56 72 29 84 55 79 rrcurveto
          -1 8 9 0 9 20 20 1 21 hhcurveto
          17 16 -1 -2 16 hvcurveto
          -32 -112 -90 -112 -48 -112 rrcurveto
          endchar
        </CharString>
        <CharString name="L">
          41 -32 29 -29 194 -162 -20 742 -20 hstemhm
          27 194 -30 30 232 3 callsubr
          hintmask 01011010
          487 72 rmoveto
          3 -1 3 4 17 3 12 33 vvcurveto
          -7 -1 -6 0 -7 -1 rrcurveto
          22 vlineto
          -1 -11 -13 -1 -17 hhcurveto
          -57 -90 5 3 -51 hvcurveto
          40 vlineto
          117 -3 121 119 vvcurveto
          39 1 44 1 36 vhcurveto
          -7 3 -6 1 -8 3 rrcurveto
          4 1 5 4 vvcurveto
          11 -25 -38 5 -33 hhcurveto
          -32 -35 -5 -7 -17 hvcurveto
          4 -147 0 -109 -105 vvcurveto
          -93 0 -98 -7 -141 vhcurveto
          -28 20 -20 vlineto
          -1 68 63 0 47 134 50 3 25 7 5 -1 5 hhcurveto
          29 10 -5 52 13 -1 17 -1 24 hvcurveto
          -30 20 rmoveto
          1 -24 1 -17 -13 vvcurveto
          hintmask 00111010
          -35 -5 -2 -16 vhcurveto
          -7 -6 1 -9 hhcurveto
          hintmask 10010110
          -23 -48 -4 -130 hhcurveto
          -48 -58 1 1 -73 hvcurveto
          18 vlineto
          7 141 0 98 93 vvcurveto
          105 -1 100 -3 149 vhcurveto
          5 13 30 4 31 hhcurveto
          32 35 -4 -8 19 hvcurveto
          -1 -39 -1 -40 -41 -113 4 -118 -112 -27 -1 -24 -27 vvcurveto
          -1 vlineto
          1 7 10 1 13 57 112 -9 45 hhcurveto
          8 5 0 1 2 hvcurveto
          -17 -3 -17 -17 -3 1 -4 -3 vvcurveto
          endchar
        </CharString>
        <CharString name="M">
          81 -32 33 -1 -20 727 -20 hstemhm
          24 175 -30 145 -10 173 -30 3 callsubr
          hintmask 10110010
          489 298 rmoveto
          -1 vlineto
          3 31 -1 31 31 72 -2 67 72 vvcurveto
          25 0 36 1 25 vhcurveto
          -21 hlineto
          7 1 6 7 vvcurveto
          -39 -63 -5 -36 hhcurveto
          -11 -6 1 1 -7 hvcurveto
          -21 -29 -23 -74 -8 -35 -13 34 -16 56 -22 25 rrcurveto
          -3 0 -1 -3 hhcurveto
          -5 8 -4 6 -5 7 rrcurveto
          -1 -11 -7 0 -11 -21 -21 2 -19 hhcurveto
          -20 -20 -2 -7 -21 hvcurveto
          -3 -257 0 -168 -103 vvcurveto
          -118 0 -37 3 -8 vhcurveto
          -8 4 5 -4 5 hhcurveto
          5 hlineto
          -28 52 6 31 29 28 2 4 26 vhcurveto
          -5 76 -5 87 77 vvcurveto
          23 0 23 1 24 vhcurveto
          12 -28 13 -22 11 -1 rrcurveto
          -13 8 7 -7 5 hhcurveto
          16 12 39 40 15 hvcurveto
          hintmask 10110100
          3 -80 -3 -126 5 -96 rrcurveto
          4 7 1 8 hhcurveto
          -7 0 -7 1 -7 vhcurveto
          27 29 2 32 hhcurveto
          20 23 -1 -3 21 hvcurveto
          -30 31 rmoveto
          1 -11 -10 1 -12 hhcurveto
          -36 hlineto
          hintmask 01101010
          -24 -23 -1 -16 hhcurveto
          -5 114 4 163 -13 112 rrcurveto
          -27 -16 -37 -119 -10 hhcurveto
          -16 -32 100 29 -11 hvcurveto
          -3 10 rlineto
          -4 -49 -2 -50 -49 vvcurveto
          -79 4 -76 5 -76 vhcurveto
          -3 -20 -22 -1 -23 -27 -25 1 -23 hhcurveto
          -6 -1 24 141 101 0 164 3 256 hvcurveto
          4 13 17 1 19 hhcurveto
          16 hlineto
          36 -1 rlineto
          12 12 0 1 11 hvcurveto
          1 hlineto
          -24 21 34 -130 17 hhcurveto
          7 -2 29 127 23 31 rrcurveto
          -1 2 5 0 9 31 66 5 35 hhcurveto
          -1 -25 0 -26 -25 -69 2 -68 -68 vvcurveto
          -33 1 -32 -3 -33 vhcurveto
          endchar
        </CharString>
        <CharString name="N">
          78 -29 24 -9 -21 35 -20 740 -20 hstemhm
          21 181 -29 29 -29 138 -11 178 -30 -76 callsubr
          hintmask 0101100100000000
          444 -35 rmoveto
          23 12 6 1 7 hvcurveto
          hintmask 0011100100000000
          1 28 rlineto
          13 -1 14 13 vvcurveto
          94 vlineto
          19 1 18 20 51 -1 69 51 vvcurveto
          330 1 callgsubr
          5 -25 -24 3 -27 hhcurveto
          -29 -28 -2 -5 -25 hvcurveto
          -22 vlineto
          -27 -3 -25 1 -24 vhcurveto
          -51 3 -42 -52 vvcurveto
          -21 vlineto
          -69 147 -7 15 -27 64 -3 5 -13 -1 -4 16 rrcurveto
          12 -3 -71 7 -19 hhcurveto
          -16 -18 -1 -5 -20 hvcurveto
          -8 -95 -2 -90 -91 -124 3 -110 -127 vvcurveto
          -80 20 vlineto
          hintmask 1001100100000000
          -20 vlineto
          hintmask 0101010100000000
          35 35 -6 36 hhcurveto
          17 16 0 7 21 hvcurveto
          -3 75 1 124 78 vvcurveto
          28 -76 45 -87 43 -96 rrcurveto
          11 hlineto
          3 -7 3 -6 3 -7 rrcurveto
          29 38 -5 31 hhcurveto
          hintmask 1001100100000000
          -20 30 rmoveto
          hintmask 0011010100000000
          -27 -38 5 -27 hhcurveto
          -44 100 -46 92 -31 85 -10 30 rcurveline
          15 -5 -5 15 -3 hhcurveto
          -4 -3 -142 -112 hvcurveto
          -45 vlineto
          -15 0 -12 1 -11 vhcurveto
          hintmask 1001001010000000
          -4 -15 -14 -1 -15 -32 -33 6 -31 hhcurveto
          70 vlineto
          127 -3 109 125 vvcurveto
          92 2 91 7 85 vhcurveto
          3 13 16 1 16 hhcurveto
          17 66 -4 -6 hvcurveto
          5 -12 4 -10 4 -8 11 -23 rcurveline
          7 -15 9 -16 12 -28 rrcurveto
          -19 8 73 -148 3 hhcurveto
          4 3 3 29 23 53 -3 44 48 vvcurveto
          28 1 28 1 33 vhcurveto
          4 23 24 2 25 hhcurveto
          25 22 -2 -4 19 hvcurveto
          -322 vlineto
          1 -28 0 -28 -29 vvcurveto
          -86 vlineto
          -39 -1 -35 -37 -27 1 -26 -27 vvcurveto
          hintmask 0011100100000000
          -20 vlineto
          hintmask 1001100100000000
          -1 -3 -7 -4 -23 hhcurveto
          endchar
        </CharString>
        <CharString name="Ntilde">
          96 -28 20 -9 -21 739 47 -30 103 -103 137 -10 84 hstemhm
          24 202 -58 30 -2 30 74 199 -30 -76 callsubr
          hintmask 1010011001000000
          506 -4 rmoveto
          -4 120 4 121 -3 125 1 328 rcurveline
          -5 1 -6 1 -9 1 rrcurveto
          17 vlineto
          3 -15 -32 3 -35 hhcurveto
          -29 -35 -2 -7 -29 hvcurveto
          -4 -27 -1 -19 -20 -47 6 -44 -36 vvcurveto
          -1 3 -2 1 -1 3 -37 59 -41 71 -5 24 -19 3 2 8 -3 9 rrcurveto
          9 -31 -43 7 -35 hhcurveto
          -19 -18 -2 -8 -19 hvcurveto
          -7 -91 -3 -97 -96 -128 4 -121 -121 vvcurveto
          -58 vlineto
          7 1 6 1 7 1 rrcurveto
          -23 vlineto
          2 13 12 1 11 39 28 -8 33 hhcurveto
          15 13 3 4 15 hvcurveto
          37 -1 42 33 vvcurveto
          39 1 38 1 39 vhcurveto
          28 -72 30 -75 31 -68 3 1 4 0 3 1 3 -8 4 -7 3 -7 rrcurveto
          2 11 12 1 13 hhcurveto
          hintmask 0110011001000000
          29 29 -5 24 hhcurveto
          21 18 5 15 7 hvcurveto
          -30 21 rmoveto
          hintmask 1010010011000000
          -7 -4 -12 -4 -21 -27 -33 5 -27 hhcurveto
          -9 -7 -1 -1 -7 12 callsubr
          -44 97 -41 110 -35 92 rrcurveto
          -5 -67 -2 -60 -64 vvcurveto
          hintmask 1010010100100000
          -33 1 -34 1 -36 vhcurveto
          -1 -1 rlineto
          -3 -9 -11 -2 -15 -31 -37 8 -32 hhcurveto
          -8 -8 -1 -1 -7 hvcurveto
          -1 1 rlineto
          62 vlineto
          120 -4 122 123 vvcurveto
          92 3 87 7 88 vhcurveto
          4 11 15 2 20 hhcurveto
          33 40 -6 -7 27 hvcurveto
          -1 vlineto
          5 -27 80 -122 37 -64 rrcurveto
          3 10 1 13 17 36 -6 47 45 vvcurveto
          21 1 18 3 15 vhcurveto
          3 vlineto
          5 23 32 2 29 hhcurveto
          33 30 -3 -1 9 hvcurveto
          -1 -320 rlineto
          1 -40 0 -41 -41 vvcurveto
          -98 vlineto
          -48 -1 -49 3 -48 vhcurveto
          -270 719 rmoveto
          -3 7 -1 7 5 vvcurveto
          25 23 11 21 3 4 -1 -1 5 vhcurveto
          hintmask 1000101000100000
          -25 callsubr
          hintmask 1010010011000000
          -97 callsubr
          -2 rcurveline
          1 -7 1 -7 -7 vvcurveto
          -71 -48 -69 -68 -35 -33 15 35 -15 vhcurveto
          hintmask 1001010101000000
          15 -9 -10 8 -20 hhcurveto
          -31 -23 -20 -28 35 callgsubr
          hvcurveto
          endchar
        </CharString>
        <CharString name="O">
          63 -44 -27 callgsubr
          hstemhm
          19 149 -31 194 -10 166 -31 31 hintmask 00000000
          hintmask 01011010
          320 348 -104 callsubr
          -138 -160 rmoveto
          hintmask 10100101
          -98 callsubr
          endchar
        </CharString>
        <CharString name="OE">
          410 -44 30 -14 30 -30 161 -161 175 -5 131 -29 186 84 29 -9 30 -30 171 5 -20 hstemhm
          39 131 30 146 10 196 0 35 98 30 112 28 hintmask 0000000000000000
          hintmask 0001011001110111
          842 127 rmoveto
          -7 -6 7 callsubr
          19 vlineto
          -80 3 -86 -2 -80 3 rrcurveto
          -3 11 1 11 13 vvcurveto
          24 0 25 3 8 vhcurveto
          23 9 1 21 hhcurveto
          15 20 -1 -1 33 hvcurveto
          3 39 1 32 35 vvcurveto
          13 -1 19 -1 15 vhcurveto
          -1 11 rlineto
          1 -7 -5 7 callsubr
          -1 18 rlineto
          4 -28 -24 0 -23 -9 -7 -1 -8 -3 -4 1 -4 hhcurveto
          13 vlineto
          19 3 26 21 vvcurveto
          5 31 30 0 28 hhcurveto
          65 hlineto
          36 38 1 7 37 hvcurveto
          4 39 1 36 32 17 -1 26 16 vvcurveto
          -3 -8 -1 -9 hhcurveto
          21 vlineto
          hintmask 1000100010111011
          -32 -125 -3 -152 hhcurveto
          -67 -68 1 1 -64 hvcurveto
          -5 -5 -1 -5 hhcurveto
          hintmask 1000101001111011
          -28 -23 4 -27 hhcurveto
          -108 -82 -96 -110 -3 hvcurveto
          -3 -80 -8 -83 -81 vvcurveto
          -52 3 -51 11 -45 vhcurveto
          -103 39 79 -53 120 hhcurveto
          33 31 3 3 33 hvcurveto
          hintmask 0100101001111011
          8 77 97 2 77 hhcurveto
          62 hlineto
          47 53 0 1 51 hvcurveto
          11 32 4 30 31 vvcurveto
          16 -1 18 -1 16 vhcurveto
          -30 19 rmoveto
          1 -16 1 -16 -17 vvcurveto
          -29 -3 -29 -8 -25 vhcurveto
          -1 hlineto
          -1 -31 -30 0 -29 hhcurveto
          -107 hlineto
          -56 -54 -1 -3 -60 hvcurveto
          hintmask 1000101001111011
          -3 -72 -55 -9 -60 hhcurveto
          -21 -19 1 3 -23 hvcurveto
          -140 16 -19 130 124 vvcurveto
          81 10 83 1 80 vhcurveto
          104 3 72 92 108 27 25 -3 27 hhcurveto
          15 hlineto
          -1 47 48 0 49 129 128 2 61 hhcurveto
          35 -49 hlineto
          -33 0 -34 -3 -31 vhcurveto
          -7 -35 -34 -1 -35 -23 -22 1 -23 hhcurveto
          -32 -30 -1 -5 -31 hvcurveto
          -1 -1 rlineto
          -12 vlineto
          -20 -3 -21 -21 vvcurveto
          -17 3 -13 5 -11 vhcurveto
          39 -4 44 4 39 -5 1 -3 rcurveline
          1 -16 1 -15 -15 -31 -2 -30 -33 vvcurveto
          -1 -1 rlineto
          1 -19 -13 0 -12 -24 -17 -1 -31 hhcurveto
          -1 hlineto
          -4 -3 -4 -32 -33 vvcurveto
          -27 3 -25 7 -11 vhcurveto
          2 hlineto
          88 -3 87 2 81 -4 rrcurveto
          -478 361 rmoveto
          hintmask 0010100101111011
          45 -29 -12 21 -52 hhcurveto
          -69 -15 -58 -60 hvcurveto
          -34 vlineto
          2 -17 1 -17 -15 -31 -3 -29 -29 vvcurveto
          -8 -1 -144 77 69 22 82 54 8 vhcurveto
          7 56 4 50 53 vvcurveto
          27 0 27 -9 27 vhcurveto
          -2 -47 rmoveto
          1 -12 0 -11 -11 vvcurveto
          -52 -4 -50 -7 -56 -17 callsubr
          -7 -44 -8 -40 -32 -28 1 1 rcurveline
          -11 -14 -14 -5 -15 hhcurveto
          -47 1 100 24 hvcurveto
          32 2 29 31 vvcurveto
          13 1 18 -3 13 vhcurveto
          12 vlineto
          72 6 57 68 24 22 -5 -20 11 -17 callsubr
          -1 1 -2 1 -3 vhcurveto
          1 -1 0 -1 -1 vvcurveto
          1 vlineto
          4 -17 4 -11 3 -23 rrcurveto
          endchar
        </CharString>
        <CharString name="Oacute">
          65 -39 -27 callgsubr
          -11 43 -30 -43 callsubr
          11 -11 callgsubr
          354 910 -101 callgsubr
          -114 -473 -104 callsubr
          -65 266 -97 callgsubr
          -4 -496 rmoveto
          hintmask 1010101010100000
          -98 callsubr
          endchar
        </CharString>
        <CharString name="Ocircumflex">
          64 -39 -27 callgsubr
          -11 44 -23 -4 callgsubr
          14 -11 callgsubr
          247 932 -55 callsubr
          -74 callsubr
          53 -559 -104 callsubr
          -138 -160 rmoveto
          hintmask 1010101010100000
          -98 callsubr
          -27 159 rmoveto
          -2 hlineto
          -102 callsubr
          endchar
        </CharString>
        <CharString name="Odieresis">
          64 -39 -27 callgsubr
          -11 53 -33 callgsubr
          149 hstemhm
          16 149 -74 184 -141 194 125 42 callgsubr
          hintmask 1001010100100000
          -78 callsubr
          hintmask 0110100001100000
          -39 callgsubr
          -10 hmoveto
          -48 vlineto
          -96 2 -13 -22 -28 vhcurveto
          1 1 rlineto
          -19 -17 -24 -9 -25 hhcurveto
          -18 -15 4 8 -13 hvcurveto
          -3 6 1 -1 -13 45 2 48 -8 47 rlinecurve
          -1 vlineto
          hintmask 1010001100100000
          -1 17 0 16 17 vvcurveto
          39 2 37 8 35 -17 callgsubr
          42 10 38 39 43 hhcurveto
          51 -4 -77 -36 3 hvcurveto
          -4 vlineto
          -83 307 rmoveto
          3 24 6 90 5 vvcurveto
          -7 3 -6 0 -2 callsubr
          14 vlineto
          7 -15 -22 3 -21 hhcurveto
          -25 -30 -4 -5 -16 hvcurveto
          hintmask 1010001010100000
          -16 -2 -24 -25 vvcurveto
          -19 1 -20 3 -15 vhcurveto
          17 hlineto
          -7 2 -30 callsubr
          vhcurveto
          292 -1 -104 callgsubr
          -182 30 rmoveto
          -3 hlineto
          -2 10 -1 13 17 24 2 26 11 vvcurveto
          4 13 25 2 23 hhcurveto
          20 19 -1 -4 9 hvcurveto
          -2 -6 -81 -18 vvcurveto
          hintmask 1010100010100000
          -2 -2 vlineto
          77 1 rmoveto
          -3 hlineto
          -2 10 -1 13 17 24 2 26 11 vvcurveto
          4 13 25 2 23 hhcurveto
          20 19 -1 -4 9 hvcurveto
          -2 -6 -81 -18 vvcurveto
          -1 -2 vlineto
          endchar
        </CharString>
        <CharString name="Ograve">
          65 -39 -27 callgsubr
          -11 43 -30 -43 callsubr
          17 -11 callgsubr
          52 847 -83 callgsubr
          -64 callsubr
          -10 8 -12 10 2 2 -61 48 -61 80 -67 54 rrcurveto
          187 -577 -104 callsubr
          -138 -160 rmoveto
          hintmask 1010101010100000
          -98 callsubr
          -303 320 -46 callsubr
          -4 -13 -37 -2 -36 hhcurveto
          hintmask 1010101101000000
          -19 -14 -1 3 -15 hvcurveto
          -14 19 -68 58 -19 19 -1 1 rcurveline
          endchar
        </CharString>
        <CharString name="Oslash">
          59 -50 30 -10 -21 755 30 -12 -20 31 -20 hstemhm
          452 32 hintmask 00000000
          hintmask 10010100
          481 413 rmoveto
          1 19 1 16 19 vvcurveto
          59 -9 58 -39 47 vhcurveto
          2 vlineto
          16 19 16 37 vvcurveto
          -7 3 -7 3 -7 2 rrcurveto
          1 3 0 4 5 vvcurveto
          hintmask 10100100
          9 -15 -19 3 -23 -21 -24 -2 -20 hhcurveto
          hintmask 01001100
          -8 -7 0 1 -7 hvcurveto
          -19 1 -10 -11 -1 hvcurveto
          1 -16 -16 1 -19 hhcurveto
          -47 -45 -7 -28 -36 hvcurveto
          -4 -4 -17 -17 -13 -21 -12 -24 rlinecurve
          1 vlineto
          -19 -32 1 -40 -3 -36 rrcurveto
          -3 -56 -3 -54 -56 vvcurveto
          -91 7 -91 23 -89 vhcurveto
          -1 -1 0 0 -1 -1 -1 -3 -1 vvcurveto
          1 vlineto
          -8 -21 -14 -38 -23 vvcurveto
          -6 1 -4 1 -2 vhcurveto
          1 3 6 0 9 hhcurveto
          -3 -1 -3 -3 vvcurveto
          -5 1 -4 2 -3 vhcurveto
          hintmask 10100100
          1 19 28 0 23 hhcurveto
          32 hlineto
          25 15 -1 20 15 hvcurveto
          3 16 17 -1 16 hhcurveto
          104 83 38 100 24 hvcurveto
          16 85 1 85 88 vvcurveto
          -30 67 rmoveto
          -162 25 -253 -186 -16 vhcurveto
          -37 -4 -41 3 -32 -4 rrcurveto
          -2 hlineto
          -1 -2 -6 -11 -8 vhcurveto
          -1 -1 rlineto
          1 hlineto
          -3 -11 -13 1 -19 hhcurveto
          -52 hlineto
          -13 -13 0 -1 -11 hvcurveto
          -1 1 0 1 1 vvcurveto
          15 22 54 5 16 vhcurveto
          4 vlineto
          -23 89 -7 88 91 vvcurveto
          43 1 40 3 43 vhcurveto
          8 72 -10 67 64 64 3 3 rcurveline
          27 35 43 6 44 hhcurveto
          20 19 -2 -1 19 hvcurveto
          3 5 -5 19 10 hhcurveto
          1 hlineto
          hintmask 10010100
          -1 7 9 0 9 21 23 1 21 hhcurveto
          19 17 0 -7 9 hvcurveto
          -1 -25 -17 -20 -21 vvcurveto
          -5 vlineto
          39 -44 8 -57 -57 vvcurveto
          -19 -1 -17 -1 -17 vhcurveto
          -129 -39 rmoveto
          -27 -72 -37 -109 -29 -83 2 -1 rcurveline
          26 5 53 18 8 34 rrcurveto
          9 33 1 32 28 47 -6 37 27 vvcurveto
          -181 -112 rmoveto
          27 85 37 102 29 96 -8 1 rcurveline
          -92 -11 18 -128 -11 -85 -2 -23 rcurveline
          -7 -1 -4 -5 vvcurveto
          -9 1 -7 2 -5 vhcurveto
          167 -89 rmoveto
          -5 -15 -13 -12 -16 -8 12 41 18 46 15 41 rrcurveto
          -28 -3 -31 -8 -35 vhcurveto
          -126 241 rmoveto
          1 27 -3 33 28 25 -8 -28 -9 -29 -9 -28 rrcurveto
          endchar
        </CharString>
        <CharString name="Otilde">
          64 -39 -27 callgsubr
          -11 141 -129 22 -22 95 24 84 hstemhm
          18 149 -31 194 -178 30 138 166 48 callsubr
          hintmask 1001010110001000
          -78 callsubr
          hintmask 1010100001001000
          -39 callgsubr
          -144 374 rmoveto
          hintmask 1010100000110000
          -3 7 -1 7 5 vvcurveto
          25 23 11 21 3 4 -1 -1 5 vhcurveto
          -25 callsubr
          hintmask 0110010110010000
          32 -24 -40 34 -43 hhcurveto
          -92 -43 -103 -82 -21 hvcurveto
          7 8 1 11 hhcurveto
          -3 -8 -2 -6 -1 -7 rrcurveto
          1 17 31 1 15 hhcurveto
          27 26 -1 -3 13 hvcurveto
          146 -360 rmoveto
          -48 vlineto
          -96 2 -13 -22 -28 vhcurveto
          1 1 rlineto
          -19 -17 -24 -9 -25 hhcurveto
          -18 -15 4 8 -13 hvcurveto
          -3 6 1 -1 -13 45 2 48 -8 47 rlinecurve
          -1 vlineto
          -1 17 0 16 17 vvcurveto
          39 2 37 8 35 -17 callgsubr
          42 10 38 39 43 hhcurveto
          51 -4 -77 -36 3 hvcurveto
          -4 vlineto
          -162 322 rmoveto
          3 -13 -28 1 -27 hhcurveto
          -15 -17 0 -1 -17 hvcurveto
          69 19 38 95 84 72 11 -74 41 hhcurveto
          27 21 43 20 6 hvcurveto
          27 3 27 -1 28 1 2 -2 rcurveline
          1 -7 1 -7 -7 vvcurveto
          -71 -48 -69 -68 -35 -33 15 35 -15 vhcurveto
          hintmask 1010001100110000
          15 -9 -10 8 -20 hhcurveto
          -31 -23 -20 -28 35 callgsubr
          hvcurveto
          endchar
        </CharString>
        <CharString name="P">
          77 -28 30 228 30 -30 186 -11 156 -33 callgsubr
          193 hstemhm
          23 184 -31 31 -31 157 -126 30 86 184 -30 -76 callsubr
          hintmask 1100010100100000
          514 471 rmoveto
          176 -11 -162 77 -158 hhcurveto
          -53 -56 -8 -13 -47 hvcurveto
          hintmask 1101001000100000
          3 -75 0 -87 -81 vvcurveto
          -121 vlineto
          -121 0 -124 4 -97 vhcurveto
          13 7 1 -21 hvcurveto
          -3 25 34 -2 28 hhcurveto
          hintmask 1101000001010000
          44 43 9 16 hhcurveto
          -3 112 0 63 33 vvcurveto
          42 vlineto
          -1 8 8 0 9 hhcurveto
          127 121 108 132 hvcurveto
          -30 6 rmoveto
          -121 -126 -95 -112 -12 -12 1 2 -12 vhcurveto
          1 -9 0 -10 -9 vvcurveto
          -39 vlineto
          -33 0 -54 3 -97 vhcurveto
          -3 -2 rlineto
          -7 -21 -34 -1 -35 hhcurveto
          -29 -28 1 3 -20 hvcurveto
          -2 49 -1 52 57 vvcurveto
          176 vlineto
          121 0 122 -4 112 vhcurveto
          11 43 51 8 51 hhcurveto
          143 151 -56 -167 8 hvcurveto
          -175 42 rmoveto
          19 -23 -30 9 -31 hhcurveto
          hintmask 1101000010010000
          -11 -26 -1 -5 -5 hvcurveto
          3 -47 -7 -64 13 -39 rrcurveto
          3 hlineto
          51 3 94 -9 76 vvcurveto
          23 -10 22 -21 13 vhcurveto
          hintmask 1010101000100000
          21 -57 rmoveto
          -56 -62 -4 -47 vhcurveto
          -5 hlineto
          -3 12 1 12 15 vvcurveto
          29 vlineto
          15 0 13 -1 15 vhcurveto
          3 10 11 1 11 hhcurveto
          36 49 -12 -43 hvcurveto
          endchar
        </CharString>
        <CharString name="Q">
          75 -37 30 -10 -21 573 30 -30 189 hstemhm
          23 162 -22 22 -22 66 -10 128 -11 165 -51 30 -9 -76 callsubr
          hintmask 1001100101000000
          253 724 rmoveto
          -106 -86 -43 -60 -19 hvcurveto
          -19 -69 -3 -82 -79 vvcurveto
          -139 vlineto
          -80 7 -71 56 -54 vhcurveto
          -51 51 40 -33 88 hhcurveto
          35 39 11 15 23 hvcurveto
          hintmask 0110100101000000
          -13 11 18 -14 9 hhcurveto
          35 45 35 31 11 -6 10 -11 11 hvcurveto
          11 23 6 19 4 15 -1 -2 rcurveline
          9 28 4 32 36 vvcurveto
          hintmask 1001100100100000
          59 5 27 51 vvcurveto
          135 -21 137 -69 53 vhcurveto
          48 -39 -47 3 -69 hhcurveto
          203 -559 rmoveto
          -3 -24 -8 -23 -17 -40 rrcurveto
          hintmask 1010100101000000
          9 -11 10 -10 -9 vvcurveto
          -25 -42 -31 -28 -8 -21 21 11 -8 vhcurveto
          -17 -15 -44 -14 -39 hhcurveto
          -160 -52 124 118 hvcurveto
          146 vlineto
          80 2 85 20 72 vhcurveto
          56 19 81 40 101 hhcurveto
          93 48 -5 -107 45 hvcurveto
          hintmask 1010010100100000
          23 -72 6 -82 -80 vvcurveto
          -41 0 -23 -3 -40 vhcurveto
          -3 -33 2 -34 -8 -32 rrcurveto
          -162 67 rmoveto
          17 6 -33 -17 17 hvcurveto
          9 37 1 35 39 vvcurveto
          95 -3 30 -5 66 vhcurveto
          48 -5 -18 33 -63 hhcurveto
          -77 -8 -9 -68 -5 hvcurveto
          -8 -78 0 -28 -111 vvcurveto
          -120 26 -36 73 vhcurveto
          9 hlineto
          4 3 0 1 2 hvcurveto
          hintmask 1010001010000000
          -19 19 -24 24 20 vvcurveto
          19 18 2 15 11 vhcurveto
          7 11 9 14 15 hhcurveto
          10 vmoveto
          -13 -10 -9 -7 -9 hvcurveto
          hintmask 1010100101000000
          -21 -21 -25 4 -30 vvcurveto
          -19 16 -20 15 -15 vhcurveto
          -24 -25 3 27 -8 hvcurveto
          1 -1 rlineto
          -7 23 -2 35 33 19 1 18 15 vvcurveto
          26 vlineto
          55 2 32 5 57 vhcurveto
          60 5 6 8 69 hhcurveto
          17 15 -3 -7 12 hvcurveto
          hintmask 1010100010000000
          21 -35 -2 -81 -48 vvcurveto
          -75 vlineto
          -15 0 -14 -1 -11 vhcurveto
          2 vlineto
          -3 -7 0 -12 -1 -12 rrcurveto
          7 -15 -2 18 -17 hhcurveto
          endchar
        </CharString>
        <CharString name="R">
          98 -30 29 -9 -21 464 142 -30 182 hstemhm
          30 203 -30 30 83 214 -31 31 hintmask 00000000
          hintmask 10101010
          179 559 rmoveto
          3 -34 -3 -59 5 -30 14 callsubr
          -2 17 18 -1 21 hhcurveto
          60 27 17 49 47 -33 29 -45 -22 -24 -5 -11 -25 hvcurveto
          140 -60 rmoveto
          -25 -11 -23 -24 -5 vhcurveto
          1 hlineto
          -2 -14 -15 -1 -15 hhcurveto
          -30 hlineto
          5 -1 4 5 11 1 9 9 vvcurveto
          17 -1 16 -1 13 vhcurveto
          hintmask 10011010
          9 23 20 4 18 hhcurveto
          33 16 -15 -31 hvcurveto
          -286 -395 rmoveto
          1 -52 0 -30 -9 vvcurveto
          -9 0 -14 1 -20 vhcurveto
          58 hlineto
          hintmask 01011001
          13 15 -1 16 hhcurveto
          37 39 1 15 31 hvcurveto
          40 -8 79 69 vvcurveto
          26 vlineto
          45 -69 41 -89 21 -50 rrcurveto
          15 0 -11 -9 5 hvcurveto
          -1 16 22 -1 15 44 41 4 36 hhcurveto
          14 hlineto
          -6 13 -40 110 -72 80 -59 101 rlinecurve
          104 11 55 108 82 vvcurveto
          60 -33 57 -39 48 vhcurveto
          65 -56 -82 19 -100 hhcurveto
          -68 -71 -11 -9 -63 hvcurveto
          8 -61 6 -355 -2 -187 rrcurveto
          483 -101 rmoveto
          hintmask 10100110
          -33 -40 -4 -40 hhcurveto
          -17 -18 1 1 -17 12 callsubr
          -26 61 -56 120 -57 70 -2 3 rcurveline
          -2 -17 -1 -21 -25 vvcurveto
          -64 5 -80 3 -37 vhcurveto
          -11 -23 -41 -1 -39 -25 -23 2 -13 hhcurveto
          -2 -2 0 1 -3 hvcurveto
          31 vlineto
          1 19 0 22 26 vvcurveto
          103 vlineto
          hintmask 10101001
          192 -3 262 -8 42 vhcurveto
          8 56 64 10 69 hhcurveto
          24 25 -1 -3 25 hvcurveto
          120 -5 86 -103 -107 vvcurveto
          -81 -52 -103 -107 -8 vhcurveto
          -5 -1 56 -99 82 -93 40 -110 rlinecurve
          endchar
        </CharString>
        <CharString name="S">
          65 -35 30 -30 188 -10 76 218 29 49 30 -30 194 hstemhm
          59 183 -10 30 76 207 -35 35 hintmask 0000000000000000
          hintmask 0101011010000000
          492 444 rmoveto
          4 21 2 19 17 vvcurveto
          132 -121 76 -131 -132 -102 -102 -125 -57 21 -55 49 -47 vhcurveto
          24 -24 25 -23 44 -9 15 -3 rcurveline
          41 -8 60 -4 -53 vvcurveto
          -31 -25 -15 -27 -27 -17 9 35 vhcurveto
          -17 hlineto
          -2 6 -1 7 7 vvcurveto
          hintmask 1011100101000000
          -36 -42 2 -37 hhcurveto
          -19 -19 -1 -3 -20 hvcurveto
          -14 vlineto
          -4 -1 -5 -4 vvcurveto
          -127 143 -96 132 114 103 85 139 115 -115 117 -125 19 vhcurveto
          -18 3 -20 -3 28 vvcurveto
          32 23 15 25 19 19 -4 -31 -5 0 -5 -1 -3 vhcurveto
          7 -3 7 -1 7 -1 rrcurveto
          -7 0 -5 -1 -3 vhcurveto
          -8 28 27 -2 27 hhcurveto
          31 26 3 4 25 hvcurveto
          -22 30 rmoveto
          -4 -25 -28 -4 -28 hhcurveto
          -24 -23 3 6 -22 hvcurveto
          1 3 0 4 5 vvcurveto
          36 -35 22 -35 -29 -29 -17 -39 -45 37 -11 30 -3 vhcurveto
          112 -13 99 -97 -112 vvcurveto
          -140 -98 -73 -108 vhcurveto
          hintmask 1011101001000000
          -116 -129 70 124 hvcurveto
          11 vlineto
          6 vlineto
          2 16 17 1 19 35 35 -2 31 hhcurveto
          -43 3 35 -21 36 hhcurveto
          32 30 17 39 77 -83 8 -61 13 hvcurveto
          -93 16 -42 104 65 vvcurveto
          120 96 97 128 115 107 -51 -127 -15 -2 -15 -3 -17 vhcurveto
          endchar
        </CharString>
        <CharString name="Scaron">
          65 -35 30 0 148 -148 214 -66 76 218 29 49 30 0 154 0 212 -202 218 hstemhm
          48 21 143 136 -116 30 76 22 155 25 hintmask 0000000000000000
          hintmask 1001110011100100
          439 883 rmoveto
          -14 14 rlineto
          1 1 0 0 1 vvcurveto
          0 -2 1 -5 1 vhcurveto
          -2 hlineto
          2 2 -7 7 -1 -1 1 1 -7 7 rlineto
          1 1 0 0 1 vvcurveto
          1 -36 7 -37 -27 -12 6 -38 -33 vhcurveto
          -35 callgsubr
          -20 34 rmoveto
          hintmask 1001110101100100
          -46 callgsubr
          3 13 13 -1 11 43 29 -8 5 hhcurveto
          73 -465 rmoveto
          -4 -25 -26 -3 -31 hhcurveto
          -27 -27 2 8 -28 hvcurveto
          1 3 0 5 7 vvcurveto
          -7 1 -7 1 -2 callsubr
          1 3 0 5 5 vvcurveto
          31 -19 4 -19 vhcurveto
          hintmask 1001110011011100
          -25 -23 -15 -32 -28 20 3 18 -3 hvcurveto
          125 -19 115 -117 -115 vvcurveto
          -139 -103 -85 -114 -132 -143 96 127 vhcurveto
          4 1 5 4 vvcurveto
          14 vlineto
          3 20 19 1 19 37 42 -2 36 hhcurveto
          -7 1 -7 2 -6 vhcurveto
          17 hlineto
          -35 17 -9 27 27 25 15 31 53 -60 4 -41 8 vhcurveto
          -15 3 -44 9 -25 23 -24 24 rlinecurve
          -49 47 -21 55 57 vvcurveto
          125 102 102 132 131 121 -76 -132 -17 -2 -19 -4 -21 vhcurveto
          -29 30 rmoveto
          3 17 2 15 15 vvcurveto
          hintmask 0100101011100100
          127 -107 51 -115 -128 -96 -97 -120 -65 42 -104 93 -16 vhcurveto
          61 -13 83 -8 -77 vvcurveto
          -39 -30 -17 -32 -36 -35 21 43 -3 vhcurveto
          hintmask 0010110101011100
          -31 -35 2 -35 hhcurveto
          -19 -17 -1 -2 -16 hvcurveto
          -6 vlineto
          -11 vlineto
          -124 129 -70 116 108 98 73 140 112 -99 97 -112 13 vhcurveto
          -30 3 -37 11 45 vvcurveto
          39 29 17 29 35 35 -22 -36 -5 0 -4 -1 -3 vhcurveto
          -6 22 23 -3 24 hhcurveto
          28 28 4 4 25 hvcurveto
          endchar
        </CharString>
        <CharString name="T">
          23 -27 29 -13 -21 542 33 -33 206 -203 -20 hstemhm
          134 212 -30 30 97 3 callsubr
          hintmask 01010101
          453 685 rmoveto
          -4 -3 1 -4 hhcurveto
          10 vlineto
          -9 9 rlineto
          9 -79 -80 2 -83 -65 -62 -2 -64 hhcurveto
          -1 -23 0 -31 -23 vvcurveto
          -47 4 -43 4 -9 vhcurveto
          23 -8 -6 -5 3 -7 31 -11 32 8 35 -4 rrcurveto
          7 -147 2 -105 -80 -65 -1 -65 -23 vvcurveto
          -16 1 -15 4 -7 vhcurveto
          1 7 5 1 3 hhcurveto
          1 -9 1 -8 3 -5 rrcurveto
          hintmask 10100011
          5 31 27 0 29 hhcurveto
          29 hlineto
          21 19 0 4 23 hvcurveto
          -5 275 -2 142 63 vvcurveto
          29 0 15 1 9 vhcurveto
          5 hlineto
          hintmask 10001101
          2 31 24 1 19 hhcurveto
          13 14 -2 -3 19 hvcurveto
          5 39 3 38 31 vvcurveto
          21 -1 22 -1 17 vhcurveto
          -30 19 rmoveto
          1 -19 1 -19 -21 vvcurveto
          -33 -2 -34 -4 -29 vhcurveto
          hintmask 10100011
          2 -11 -14 1 -15 hhcurveto
          -20 -27 -1 -2 -35 hvcurveto
          -3 hlineto
          -1 -3 rlineto
          -3 -7 1 -14 -39 vvcurveto
          -65 2 -130 5 -274 vhcurveto
          -2 vlineto
          -4 -24 -30 0 -29 hhcurveto
          -42 hlineto
          -14 -13 -1 -2 -12 hvcurveto
          1 -1 4 5 21 2 51 91 vvcurveto
          84 -1 117 -7 159 vhcurveto
          -1 1 -32 16 -72 -9 -16 5 rlinecurve
          -4 7 -2 40 45 vvcurveto
          23 -1 21 3 21 vhcurveto
          -1 2 rlineto
          59 59 1 63 hhcurveto
          81 81 -2 -8 79 hvcurveto
          endchar
        </CharString>
        <CharString name="Thorn">
          58 -33 29 -13 -21 141 30 -30 180 -10 225 -33 callgsubr
          174 98 -20 hstemhm
          28 183 -33 callgsubr
          152 -10 163 -30 -76 callsubr
          hintmask 0110001110010000
          290 642 rmoveto
          -31 -26 0 -9 -21 hvcurveto
          36 -2 5 43 vvcurveto
          -20 20 hlineto
          -156 3 rlineto
          -3 -60 -1 -64 -55 -115 4 -103 -115 vvcurveto
          -72 -3 -89 -5 -85 vhcurveto
          7 3 7 1 7 1 rrcurveto
          -8 -1 -9 -8 vvcurveto
          hintmask 1010001101001000
          4 12 17 1 17 16 18 -1 19 hhcurveto
          31 25 4 12 11 hvcurveto
          -2 6 -1 6 7 17 4 35 92 vvcurveto
          -25 33 44 -17 41 27 callsubr
          -107 -455 rmoveto
          -117 -4 -35 -17 vvcurveto
          -7 1 -3 1 -4 vhcurveto
          -7 -7 -22 -1 -27 -24 -25 1 -19 hhcurveto
          -9 -8 0 -1 -3 hvcurveto
          7 87 0 77 73 117 -4 102 112 vvcurveto
          53 1 54 3 59 vhcurveto
          136 -3 rlineto
          -42 2 7 -43 vvcurveto
          -63 vlineto
          -8 callsubr
          hintmask 1010100100101000
          -1 callgsubr
          hintmask 1001010110010000
          -19 callgsubr
        </CharString>
        <CharString name="U">
          30 callgsubr
          544 -20 hstemhm
          24 176 -30 43 -43 136 -10 200 -30 3 callsubr
          hintmask 01101010
          495 657 rmoveto
          -4 3 -5 2 -7 2 rrcurveto
          5 vlineto
          -4 8 rlineto
          11 -15 -21 1 -23 hhcurveto
          -39 -37 -4 -4 -27 hvcurveto
          -5 -160 3 -169 -7 -164 rrcurveto
          2 vlineto
          -27 -7 -23 -15 -24 hhcurveto
          -13 -13 2 16 -3 hvcurveto
          -2 vlineto
          hintmask 10110001
          -107 callgsubr
          hintmask 10100101
          -80 callsubr
          23 35 4 33 hhcurveto
          23 19 -2 -8 13 hvcurveto
          endchar
        </CharString>
        <CharString name="Uacute">
          30 callgsubr
          570 -43 callsubr
          14 -3 callgsubr
          hintmask 0111010100000000
          -83 callsubr
          hintmask 1011100010000000
          -107 callgsubr
          hintmask 1011001010000000
          -80 callsubr
          21 38 4 33 hhcurveto
          23 19 -2 -7 12 hvcurveto
          -98 240 rmoveto
          -1 -1 -19 21 -67 -53 -42 -56 -80 -72 rlinecurve
          8 -3 12 -1 15 -3 -5 -4 -5 -5 -5 -4 rrcurveto
          -45 callgsubr
        </CharString>
        <CharString name="Ucircumflex">
          30 callgsubr
          534 67 -23 -4 callgsubr
          18 -3 callgsubr
          hintmask 0110101010000000
          -83 callsubr
          hintmask 1010110001000000
          -107 callgsubr
          hintmask 1001100101000000
          -80 callsubr
          21 38 4 33 hhcurveto
          23 19 -2 -7 12 hvcurveto
          -221 262 -55 callsubr
          -4 -5 -5 -5 -4 -7 rrcurveto
          -4 64 33 -3 11 hhcurveto
          33 15 35 14 19 hvcurveto
          -56 43 21 7 26 -79 callsubr
          endchar
        </CharString>
        <CharString name="Udieresis">
          30 callgsubr
          534 76 -30 149 hstemhm
          19 176 -109 122 -122 184 -105 136 160 -76 callsubr
          hintmask 0110010010000000
          -83 callsubr
          hintmask 1010100010000000
          -107 callgsubr
          hintmask 1001000110000000
          -80 callsubr
          21 38 4 33 hhcurveto
          23 19 -2 -7 12 hvcurveto
          -54 58 -52 callgsubr
          hintmask 1001001010000000
          -16 -2 -24 -25 vvcurveto
          -19 1 -20 3 -15 vhcurveto
          17 hlineto
          -7 2 -30 callsubr
          vhcurveto
          -8 30 rmoveto
          -3 hlineto
          -2 10 -1 13 17 24 2 26 11 vvcurveto
          4 13 25 2 23 hhcurveto
          20 19 -1 -4 9 hvcurveto
          -2 -6 -81 -18 vvcurveto
          hintmask 1010001010000000
          -2 -2 vlineto
          77 1 rmoveto
          -3 hlineto
          -2 10 -1 13 17 24 2 26 11 vvcurveto
          4 13 25 2 23 hhcurveto
          20 19 -1 -4 9 hvcurveto
          -2 -6 -81 -18 vvcurveto
          -1 -2 vlineto
          endchar
        </CharString>
        <CharString name="Ugrave">
          30 callgsubr
          570 -43 callsubr
          19 -3 callgsubr
          hintmask 0111010100000000
          -83 callsubr
          hintmask 1011100010000000
          -107 callgsubr
          hintmask 1011001010000000
          -80 callsubr
          21 38 4 33 hhcurveto
          23 19 -2 -7 12 hvcurveto
          -388 177 -83 callgsubr
          -45 callsubr
        </CharString>
        <CharString name="V">
          20 -33 30 709 -20 hstem
          467 674 rmoveto
          -5 1 -4 0 -4 1 rrcurveto
          3 0 2 1 1 vhcurveto
          -8 12 -45 8 -44 -10 -64 13 rlinecurve
          -19 -60 -7 -57 -11 -68 -28 callgsubr
          -11 -64 -8 -66 -19 -84 -32 179 11 142 -11 53 rrcurveto
          -15 -2 1 19 -3 hvcurveto
          3 -12 -26 2 -29 hhcurveto
          -39 -42 -6 -15 -13 hvcurveto
          19 -240 38 -228 61 -219 19 -8 -4 1 5 -13 rrcurveto
          -11 29 34 0 29 33 18 4 20 hhcurveto
          65 235 58 217 45 239 rrcurveto
          -30 22 rmoveto
          -45 -237 -57 -213 -64 -233 rrcurveto
          -11 -24 -4 -28 hhcurveto
          -29 -33 1 7 -21 hvcurveto
          -60 217 -38 227 -19 232 -28 callgsubr
          11 9 39 3 36 hhcurveto
          27 22 -1 -3 9 hvcurveto
          10 -52 -10 -201 53 -216 51 216 8 140 29 112 rrcurveto
          1 1 1 1 vhcurveto
          45 -10 53 9 46 -8 rrcurveto
          endchar
        </CharString>
        <CharString name="W">
          45 -28 31 -9 -21 737 -20 21 -20 hstemhm
          15 187 -30 3 callsubr
          hintmask 10101000
          469 687 rmoveto
          -5 -4 1 -5 hhcurveto
          3 1 1 3 vvcurveto
          -7 12 rlineto
          2 -22 -24 1 -25 hhcurveto
          -24 -25 -1 -7 -31 hvcurveto
          -8 -89 -2 -139 -3 -99 -9 39 -8 31 -15 11 -4 -4 rcurveline
          -5 11 -6 8 -5 5 -20 -20 -8 -56 -3 -25 rrcurveto
          -3 28 1 28 31 vvcurveto
          59 vlineto
          56 0 55 -5 56 vhcurveto
          -8 -12 -6 26 hvcurveto
          hintmask 01011000
          -25 -31 3 -31 hhcurveto
          -26 -25 -2 -4 -24 hvcurveto
          3 -204 31 -224 27 -190 13 -91 rcurveline
          -1 7 5 -1 5 hhcurveto
          3 -18 rlineto
          hintmask 10101000
          -3 21 15 -1 12 hhcurveto
          19 14 2 4 21 hvcurveto
          24 39 4 54 13 45 12 -43 8 -49 23 -31 rrcurveto
          8 hlineto
          hintmask 01101000
          4 -7 3 -6 5 -7 rrcurveto
          61 hlineto
          11 9 0 4 15 hvcurveto
          19 240 29 230 19 228 rrcurveto
          -30 21 rmoveto
          -20 -232 -27 -226 -19 -233 rrcurveto
          hintmask 10100100
          -1 -5 -4 13 callgsubr
          -66 hlineto
          -23 31 -12 102 -24 37 5 callgsubr
          -24 -24 -9 -108 -21 -34 rrcurveto
          -3 -17 -13 -2 -19 hhcurveto
          -11 -12 1 2 -15 12 callsubr
          -32 229 -37 229 -4 232 -28 callgsubr
          3 20 22 2 23 hhcurveto
          27 27 -2 -1 24 hvcurveto
          3 -29 1 -33 -37 vvcurveto
          -111 vlineto
          -76 2 -74 15 -57 vhcurveto
          17 60 13 57 15 60 1 3 0 1 1 1 11 -9 28 -147 16 -39 11 115 -4 193 11 117 -28 callgsubr
          5 23 24 1 24 hhcurveto
          23 22 -1 -2 22 hvcurveto
          endchar
        </CharString>
        <CharString name="X">
          16 -30 31 -1 -20 709 20 hstemhm
          hintmask 00000000
          hintmask 10100000
          469 689 rmoveto
          -22 hlineto
          2 6 rlineto
          14 -40 vlineto
          -57 -39 -1 -3 -35 hvcurveto
          -17 -52 -19 -78 -19 -60 -16 52 -17 112 -27 3 rrcurveto
          23 -22 -2 -23 vhcurveto
          -19 hlineto
          -24 -47 -2 -3 -43 hvcurveto
          20 -52 39 -100 40 -95 19 -104 rlinecurve
          -26 -124 -53 -118 -27 -102 8 -3 8 -1 7 -3 -1 -4 -1 -5 -1 -4 rrcurveto
          -13 36 34 0 31 hhcurveto
          16 22 1 1 15 hvcurveto
          35 76 6 58 21 61 7 -19 3 -18 5 -20 8 -32 10 -79 29 -5 rrcurveto
          -27 9 26 4 24 25 18 2 21 hhcurveto
          7 5 0 -3 27 hvcurveto
          -28 111 -43 120 -25 121 19 126 52 112 37 115 rrcurveto
          -30 23 rmoveto
          -37 -116 -52 -117 -19 -124 9 -56 16 -58 19 -57 26 -85 rcurveline
          8 -28 8 -28 7 -27 rrcurveto
          1 -3 -5 0 -5 hhcurveto
          -13 hlineto
          -21 -20 -2 -23 hhcurveto
          -18 -15 1 3 -11 hvcurveto
          -1 1 -29 64 -7 96 -32 64 rlinecurve
          -1 1 -34 -76 -9 -85 -32 -68 rlinecurve
          hintmask 01100000
          -1 -15 -16 -1 -16 hhcurveto
          -31 -33 0 9 -25 hvcurveto
          7 25 8 26 9 28 28 85 rcurveline
          19 60 21 58 12 56 -23 117 -47 112 -44 113 rrcurveto
          3 43 33 1 24 hhcurveto
          38 hlineto
          7 5 -2 -3 2 hvcurveto
          16 -56 31 -114 19 -51 24 53 26 116 19 59 -28 callgsubr
          3 35 42 1 76 hhcurveto
          1 hlineto
          endchar
        </CharString>
        <CharString name="Y">
          15 -32 33 hstem
          480 682 rmoveto
          -7 -7 1 1 -8 hvcurveto
          1 1 0 1 1 3 rrcurveto
          13 vlineto
          1 -12 -19 2 -17 hhcurveto
          -36 -49 -1 -7 -27 hvcurveto
          -21 -47 -22 -86 -24 -57 -21 53 -24 70 -10 47 -6 3 -6 2 -5 1 rrcurveto
          27 -5 -39 -2 -15 -33 -33 -6 -33 hhcurveto
          29 -128 71 -104 29 -123 -48 -119 -52 -130 -35 -108 rrcurveto
          -1 11 8 -2 callgsubr
          -6 -18 rlineto
          -3 20 9 1 11 31 35 3 28 hhcurveto
          8 7 1 -3 16 hvcurveto
          83 240 143 226 72 234 rrcurveto
          -30 23 rmoveto
          -74 -239 -140 -218 -80 -235 rrcurveto
          1 -3 -4 0 -5 hhcurveto
          -13 hlineto
          -28 -35 -3 -31 hhcurveto
          -12 hlineto
          -5 -4 0 1 -3 hvcurveto
          -2 hlineto
          35 108 49 121 47 117 rrcurveto
          2 vlineto
          -29 117 -70 115 -27 113 rrcurveto
          27 30 6 29 hhcurveto
          16 16 -1 -7 15 hvcurveto
          13 -59 40 -109 24 -51 27 48 30 115 24 54 rrcurveto
          5 24 46 2 35 hhcurveto
          16 14 -1 -1 8 hvcurveto
          endchar
        </CharString>
        <CharString name="Yacute">
          14 -30 30 -11 -21 750 30 182 7 callgsubr
          hintmask 01110000
          478 677 rmoveto
          2 -7 -8 7 callsubr
          1 3 0 -1 1 3 rrcurveto
          12 vlineto
          4 -16 -15 0 -17 hhcurveto
          -33 -48 -4 -3 -28 hvcurveto
          -21 -47 -24 -53 -23 -47 -15 39 -10 40 -11 47 -7 3 -3 1 -7 1 -3 15 rcurveline
          8 -23 -19 3 -23 -37 -39 -6 -33 hhcurveto
          32 -134 67 -98 29 -123 -40 -109 -59 -136 -35 -109 rrcurveto
          26 hlineto
          -3 -7 0 -6 -3 -7 rrcurveto
          -1 11 16 0 16 hhcurveto
          hintmask 10110000
          35 18 2 31 hhcurveto
          hintmask 01110000
          -13 callgsubr
          hintmask 10110000
          -53 callsubr
          -111 221 rmoveto
          -1 -1 -19 21 -67 -53 -42 -56 -80 -72 rlinecurve
          8 -3 12 -1 15 -3 -5 -4 -5 -5 -5 -4 rrcurveto
          -45 callgsubr
        </CharString>
        <CharString name="Ydieresis">
          14 -30 30 -11 -21 726 64 -30 149 hstemhm
          83 184 hintmask 00000000
          hintmask 01101000
          478 677 rmoveto
          2 -7 -8 7 callsubr
          1 3 0 -1 1 3 rrcurveto
          12 vlineto
          4 -16 -15 0 -17 hhcurveto
          -33 -48 -4 -3 -28 hvcurveto
          -21 -47 -24 -53 -23 -47 -15 39 -10 40 -11 47 -7 3 -3 1 -7 1 -3 15 rcurveline
          8 -23 -19 3 -23 -37 -39 -6 -33 hhcurveto
          32 -134 67 -98 29 -123 -40 -109 -59 -136 -35 -109 rrcurveto
          26 hlineto
          -3 -7 0 -6 -3 -7 rrcurveto
          -1 11 16 0 16 hhcurveto
          hintmask 10101000
          35 18 2 31 hhcurveto
          hintmask 01101000
          -13 callgsubr
          hintmask 10101000
          -53 callsubr
          hintmask 10011000
          -229 39 -91 callgsubr
          -8 30 rmoveto
          -3 hlineto
          -2 10 -1 13 17 24 2 26 11 vvcurveto
          4 13 25 2 23 hhcurveto
          20 19 -1 -4 9 hvcurveto
          -2 -6 -81 -18 vvcurveto
          hintmask 10101000
          -2 -2 vlineto
          -271 1 rmoveto
          -3 hlineto
          -2 10 -1 13 17 24 2 26 11 vvcurveto
          4 13 25 2 23 hhcurveto
          20 19 -1 -4 9 hvcurveto
          -2 -6 -81 -18 vvcurveto
          -1 -2 vlineto
          endchar
        </CharString>
        <CharString name="Z">
          54 -26 30 -30 196 -182 -21 543 38 -38 198 -190 -20 hstemhm
          463 34 hintmask 00000000
          hintmask 10001010
          481 515 rmoveto
          19 0 20 1 20 -17 callgsubr
          1 19 0 18 19 vvcurveto
          16 0 16 -3 23 vhcurveto
          -18 hlineto
          -1 7 0 5 -1 8 rrcurveto
          -92 -84 4 -84 hhcurveto
          -65 -68 -3 -7 -76 hvcurveto
          40 -40 -32 -79 24 -41 rrcurveto
          12 hlineto
          hintmask 10000110
          3 -7 1 -6 4 -7 rrcurveto
          hintmask 01010010
          39 91 -3 -5 67 hvcurveto
          -75 -102 -97 -126 -53 -122 rrcurveto
          1 -12 1 -13 -12 -19 -2 -20 -19 vvcurveto
          -23 2 -25 11 -28 vhcurveto
          1 3 4 0 7 hhcurveto
          1 -7 2 -7 3 -7 rrcurveto
          4 64 69 1 63 hhcurveto
          hintmask 00110010
          76 81 -3 -4 71 hvcurveto
          3 39 4 41 35 vvcurveto
          23 -1 21 -4 24 vhcurveto
          -17 hlineto
          hintmask 01010010
          29 -5 -15 -9 -21 hhcurveto
          -71 -37 1 -5 -61 hvcurveto
          72 104 94 124 67 115 rrcurveto
          -29 25 rmoveto
          -77 -132 -96 -122 -84 -129 -1 -1 rcurveline
          107 13 31 -5 114 5 rrcurveto
          -3 vlineto
          2 -19 1 -20 -20 vvcurveto
          -35 -2 -35 -3 -31 vhcurveto
          -2 vlineto
          hintmask 10010010
          4 -70 -73 2 -76 hhcurveto
          -63 -63 -2 -3 -64 hvcurveto
          -7 21 -2 23 24 19 1 20 20 vvcurveto
          11 0 11 -1 11 vhcurveto
          59 129 108 137 78 110 rrcurveto
          8 -61 -132 5 -48 hhcurveto
          -7 12 -1 21 23 vvcurveto
          22 vlineto
          21 -1 21 -5 17 -17 callsubr
          1 -1 2 -1 1 vhcurveto
          7 60 61 0 64 83 83 -3 87 hhcurveto
          2 -16 1 -16 -17 -37 -3 -38 -35 vvcurveto
          endchar
        </CharString>
        <CharString name="Zcaron">
          54 -26 30 -16 -21 37 159 347 38 -30 -20 196 217 -203 219 hstemhm
          469 25 hintmask 00000000
          hintmask 10010101
          245 748 rmoveto
          -46 callgsubr
          1 13 12 1 11 hhcurveto
          39 35 -6 -5 -1 -1 -1 -1 -3 hvcurveto
          34 -18 rmoveto
          -14 14 rlineto
          hintmask 01110011
          33 -22 -20 -3 -50 hhcurveto
          -27 -12 6 -38 -33 hvcurveto
          -35 callgsubr
          215 -205 rmoveto
          -67 -115 -94 -124 -72 -104 rrcurveto
          5 61 37 -1 71 hhcurveto
          21 15 9 -29 5 hvcurveto
          17 hlineto
          4 -24 1 -21 -23 vvcurveto
          -35 -4 -41 -3 -39 vhcurveto
          hintmask 10010101
          4 -71 -81 3 -76 hhcurveto
          -63 -69 -1 -4 -64 hvcurveto
          -3 7 -2 7 -1 7 rrcurveto
          -7 -4 0 -1 -3 hvcurveto
          -11 28 -2 25 23 19 2 20 19 vvcurveto
          12 -1 13 -1 12 vhcurveto
          53 122 97 126 75 102 rrcurveto
          hintmask 10001011
          5 -67 -91 3 -39 hhcurveto
          -4 7 -1 6 -3 7 rrcurveto
          -12 hlineto
          -24 41 32 79 -40 40 rrcurveto
          7 76 68 3 65 84 84 -4 92 hhcurveto
          1 -8 0 -5 1 -7 rrcurveto
          18 hlineto
          3 -23 0 -16 -16 vvcurveto
          -19 0 -18 -1 -19 -17 callsubr
          -1 -20 0 -20 -19 vvcurveto
          -30 20 rmoveto
          35 3 38 37 vvcurveto
          hintmask 01110101
          17 -1 16 -2 16 vhcurveto
          -87 -83 3 -83 hhcurveto
          -64 -61 0 -7 -60 hvcurveto
          1 -1 1 -2 -1 vvcurveto
          -1 vlineto
          5 -17 1 -21 -21 vvcurveto
          -22 vlineto
          -23 1 -21 7 -12 vhcurveto
          48 132 -5 -8 61 hvcurveto
          -78 -110 -108 -137 -59 -129 rrcurveto
          1 -11 0 -11 -11 -20 -1 -20 -19 vvcurveto
          -24 2 -23 7 -21 vhcurveto
          3 64 63 2 63 hhcurveto
          76 73 -2 -4 70 hvcurveto
          2 vlineto
          3 31 2 35 35 vvcurveto
          20 -1 20 -2 19 vhcurveto
          3 vlineto
          -114 -5 -31 5 -107 -13 1 1 rcurveline
          84 129 96 122 77 132 rrcurveto
          endchar
        </CharString>
        <CharString name="a">
          -63 callsubr
          6 -20 23 -20 hstemhm
          14 163 -30 151 -10 189 -32 32 hintmask 0000000000000000
          hintmask 1001001010010000
          -76 callgsubr
          hintmask 1001000110100000
          -40 callgsubr
          hintmask 1000010010100000
          -90 callgsubr
          hintmask 0011001010010000
          -106 callgsubr
          hintmask 1001001001010000
          -99 callsubr
          -291 -199 -7 callgsubr
          hintmask 0100101010100000
          -84 callsubr
          endchar
        </CharString>
        <CharString name="aacute">
          -63 callsubr
          -10 88 -72 -20 23 -20 59 -43 callsubr
          3 -100 callgsubr
          hintmask 1001001000110100
          -99 callsubr
          -92 249 -50 callgsubr
          hintmask 1001000101101010
          -99 callgsubr
          -280 -364 rmoveto
          -5 -17 -1 -73 callsubr
          247 385 -97 callgsubr
          -148 -477 rmoveto
          hintmask 0100101000110100
          -84 callsubr
          endchar
        </CharString>
        <CharString name="acircumflex">
          -63 callsubr
          -10 91 -75 -20 23 -20 69 -4 callgsubr
          7 -100 callgsubr
          hintmask 1001001000110100
          -99 callsubr
          -187 273 -55 callsubr
          hintmask 1001000101101010
          -56 callsubr
          -124 -452 rmoveto
          -5 -17 -1 -73 callsubr
          267 296 rmoveto
          -2 hlineto
          -102 callsubr
          -74 -480 rmoveto
          hintmask 0100101000110100
          -84 callsubr
          endchar
        </CharString>
        <CharString name="acute">
          -165 493 -30 callgsubr
          hstem
          194 685 -72 callsubr
          9 -3 11 -1 15 -3 -5 -4 -5 -5 -5 -4 rrcurveto
          -45 callgsubr
        </CharString>
        <CharString name="adieresis">
          -63 callsubr
          -10 122 -106 -20 23 -20 95 28 151 -20 hstemhm
          10 163 -67 189 -152 30 82 40 -5 183 -32 32 hintmask 000000000000000000000000
          hintmask 100100010111001010000000
          -76 callgsubr
          hintmask 100100001111001010000000
          -40 callgsubr
          hintmask 100001000111000100000000
          -90 callgsubr
          hintmask 001100100011001010000000
          -106 callgsubr
          hintmask 100100100010100010000000
          -21 -23 3 -21 -15 -13 -3 -15 hhcurveto
          -8 3 -4 7 12 15 4 7 13 vvcurveto
          -32 -32 -53 -26 -47 hhcurveto
          -103 -44 161 107 133 74 95 94 3 hvcurveto
          hintmask 100100100011000100000000
          48 35 0 -46 19 hvcurveto
          5 vlineto
          20 -1 28 15 vhcurveto
          8 11 -1 8 hhcurveto
          11 hlineto
          23 -1 32 -1 43 -3 rrcurveto
          hintmask 100100010110100010000000
          -334 272 -106 callsubr
          hintmask 100100010110010100000000
          28 3 -106 callsubr
          -297 -468 rmoveto
          -7 -17 1 -73 callsubr
          287 458 rmoveto
          -59 callsubr
          -48 -3 rmoveto
          hintmask 010010100011001010000000
          -59 callsubr
          63 -483 rmoveto
          -84 callsubr
          endchar
        </CharString>
        <CharString name="ae">
          283 -38 38 -38 142 -142 159 -27 110 -93 93 -10 52 -52 107 -85 30 45 41 -29 29 -11 77 -24 24 -24 134 hstemhm
          74 32 84 31 10 123 -10 191 -33 callgsubr
          133 122 -5 callsubr
          hintmask 100100010100111010010000
          460 217 rmoveto
          -1 7 5 0 9 hhcurveto
          69 136 5 8 27 hvcurveto
          1 15 1 21 15 vvcurveto
          121 -72 107 -150 -51 -52 -16 -28 -36 vhcurveto
          23 -29 -48 12 -51 hhcurveto
          -97 -107 -45 -101 -15 -2 -9 21 -3 hvcurveto
          -23 36 0 24 31 33 3 4 21 vhcurveto
          36 26 22 27 17 13 -7 -24 vhcurveto
          -13 vlineto
          -39 vlineto
          hintmask 001000100101011101010000
          11 -27 -31 5 -33 hhcurveto
          -114 -65 -70 -90 -95 99 -84 110 56 51 21 40 51 hvcurveto
          1 0 0 -1 1 hvcurveto
          -48 40 58 -4 86 hhcurveto
          52 51 8 39 28 hvcurveto
          -1 -2 24 22 -5 66 11 76 rlinecurve
          -7 1 -8 2 -7 1 rrcurveto
          4 1 5 1 7 vhcurveto
          hintmask 100100011001011101010000
          3 -15 -14 2 -14 -23 -21 -2 -21 hhcurveto
          -12 -11 1 1 -9 hvcurveto
          hintmask 001001001001011010010000
          -10 vlineto
          -52 -21 -21 -23 -45 -3 37 44 vhcurveto
          hintmask 100010011001011100110000
          -30 30 rmoveto
          -81 2 26 -40 50 hhcurveto
          29 26 22 52 hvcurveto
          8 vlineto
          -1 3 4 0 7 hhcurveto
          hintmask 100001001001011101010000
          19 26 2 23 hhcurveto
          15 12 -1 -2 9 hvcurveto
          -5 -65 -3 -67 -18 -16 rrcurveto
          -36 -27 -48 -7 -49 hhcurveto
          -92 -53 6 53 -37 hvcurveto
          -41 -51 -51 -26 -60 hhcurveto
          -94 -84 61 88 82 58 68 111 39 36 -8 -15 27 hvcurveto
          hintmask 100100010101011101010000
          -1 15 0 11 9 vvcurveto
          36 vlineto
          hintmask 100100010010011101010000
          40 -33 19 -27 -31 -32 -22 -37 vhcurveto
          hintmask 100001001001011100110000
          -3 -19 -29 -4 -27 hhcurveto
          -29 -21 -1 25 92 102 41 93 52 49 -13 -25 27 hvcurveto
          31 35 51 16 53 hhcurveto
          156 36 -91 -107 -15 -1 -13 -1 -15 hvcurveto
          -5 -19 -100 -6 -69 hhcurveto
          -29 -24 0 3 -12 hvcurveto
          -261 -152 rmoveto
          hintmask 100100010010011101010000
          -2 11 10 -1 10 hhcurveto
          55 17 30 28 53 -49 10 -30 -31 -47 -22 -48 -23 14 -18 40 -7 hvcurveto
          376 298 rmoveto
          5 -11 -9 4 -13 hhcurveto
          -63 -18 -35 -38 -8 5 -2 23 hvcurveto
          15 19 1 29 31 14 -2 8 hhcurveto
          4 2 1 2 hvcurveto
          10 vlineto
          25 -13 26 -23 11 vhcurveto
          -375 -288 rmoveto
          -15 1 -9 2 15 vvcurveto
          42 38 18 29 17 33 -3 -29 vhcurveto
          hintmask 010010011001011101010000
          -23 -16 -26 -47 -9 -9 1 2 -11 vhcurveto
          390 259 rmoveto
          6 10 -31 -8 vvcurveto
          -4 vlineto
          3 -3 -23 0 -23 hhcurveto
          -43 hlineto
          -7 -3 -1 -4 hhcurveto
          24 7 13 19 47 hhcurveto
          11 7 -4 -4 11 hvcurveto
          endchar
        </CharString>
        <CharString name="agrave">
          -63 callsubr
          -10 88 -72 -20 23 -20 59 -43 callsubr
          8 -100 callgsubr
          hintmask 1001001000101010
          -99 callsubr
          -291 -199 rmoveto
          -5 -17 -1 -73 callsubr
          -48 385 -83 callgsubr
          hintmask 0100100101110100
          -67 callsubr
          -61 48 -61 80 -67 54 rrcurveto
          1 -13 -93 callgsubr
          64 -407 rmoveto
          -84 callsubr
          endchar
        </CharString>
        <CharString name="ampersand">
          145 -31 30 -30 180 -10 149 -30 30 453 -20 hstemhm
          14 191 -168 190 -52 123 -101 63 68 114 -30 30 105 -76 callsubr
          hintmask 0101101001010000
          227 514 rmoveto
          -4 15 -2 16 12 vvcurveto
          17 8 10 15 3 vhcurveto
          -1 -33 -4 -29 -12 -11 rrcurveto
          28 -363 rmoveto
          -1 -7 -6 13 callgsubr
          hintmask 1001110000110000
          -37 1 23 20 43 16 23 27 40 0 -26 -23 hvcurveto
          -5 -5 -45 -5 vvcurveto
          -1 hlineto
          -5 -12 -3 -4 hhcurveto
          328 -139 rmoveto
          13 vlineto
          -7 35 -20 25 -19 23 rrcurveto
          -8 8 -22 26 3 vvcurveto
          8 10 10 11 28 -17 callgsubr
          8 12 0 8 8 19 rrcurveto
          -1 vlineto
          15 35 12 27 41 vvcurveto
          27 -8 11 -15 5 vhcurveto
          19 -7 -14 5 -23 hhcurveto
          -71 hlineto
          -61 0 -32 -35 -8 hvcurveto
          -11 20 -1 14 8 vvcurveto
          9 12 19 17 25 vhcurveto
          6 9 rlineto
          24 39 25 37 48 vvcurveto
          84 -87 98 -115 vhcurveto
          hintmask 1010101001010000
          -101 -102 -70 -91 -61 41 -65 32 -43 hvcurveto
          hintmask 1010110001010000
          -50 -47 -46 -75 -69 vvcurveto
          -121 89 -130 142 vhcurveto
          49 3 53 10 40 23 rrcurveto
          -37 40 19 1 51 hhcurveto
          5 hlineto
          34 42 1 36 10 hvcurveto
          -320 136 rmoveto
          hintmask 1010100101010000
          31 10 -1 6 50 vvcurveto
          38 -11 42 -55 -33 -24 -28 -49 -29 12 -43 54 11 9 2 1 7 vhcurveto
          -28 476 rmoveto
          hintmask 1010100010110000
          -29 -14 -14 -27 -28 18 -47 13 hvcurveto
          -1 vlineto
          24 4 8 44 48 vvcurveto
          12 -5 9 -15 vhcurveto
          318 -589 rmoveto
          -29 -8 -37 -1 -31 hhcurveto
          -5 hlineto
          -49 -20 2 37 -40 hvcurveto
          -40 -27 -51 -9 -52 -3 rrcurveto
          -132 -69 114 107 71 49 71 51 48 hvcurveto
          -32 43 -45 66 61 vvcurveto
          85 97 66 96 102 70 -72 -80 vhcurveto
          hintmask 1010110001010000
          -78 -84 -73 -34 vvcurveto
          -15 4 -28 39 -49 vhcurveto
          31 18 -22 55 72 hhcurveto
          71 hlineto
          23 14 -6 -31 -43 -14 -29 -15 -35 hvcurveto
          1 vlineto
          -3 -7 -2 -5 -3 -9 rrcurveto
          -5 -8 -22 -43 -8 vvcurveto
          -8 14 -13 12 -16 -17 callsubr
          19 -24 24 -27 7 -35 rrcurveto
          -9 vlineto
          endchar
        </CharString>
        <CharString name="aring">
          -63 callsubr
          -10 71 -55 -20 23 -20 42 30 44 96 -96 150 hstemhm
          7 150 -10 23 32 89 -10 88 -30 30 69 32 hintmask 000000000000000000000000
          hintmask 100100010110101011000000
          -76 callgsubr
          hintmask 100100001110101011000000
          -40 callgsubr
          hintmask 100001000110101011000000
          -90 callgsubr
          hintmask 001100100010101011000000
          -106 callgsubr
          hintmask 100100100001011011000000
          -99 callsubr
          -83 72 -25 callgsubr
          hintmask 100100010110101011000000
          -32 callgsubr
          -179 -295 -7 callgsubr
          hintmask 010010100010010101000000
          -84 callsubr
          43 426 rmoveto
          hintmask 100100100010101011000000
          -29 callsubr
          3 -20 -36 -3 hvcurveto
          -19 hlineto
          -1 7 0 6 7 vvcurveto
          11 1 12 11 9 vhcurveto
          endchar
        </CharString>
        <CharString name="asciicircum">
          20 449 21 233 -20 hstem
          220 703 rmoveto
          -80 -77 -76 -56 -72 -101 11 -1 11 0 11 -1 -4 -7 -5 -4 -4 -7 rrcurveto
          -3 76 42 -5 16 hhcurveto
          7 6 1 1 11 hvcurveto
          15 3 34 40 16 16 3 -1 -1 -2 3 -1 5 callgsubr
          -68 52 26 10 37 hhcurveto
          48 42 7 3 hvcurveto
          1 -1 0 1 vvcurveto
          14 14 rlineto
          -27 13 rmoveto
          -2 hlineto
          -9 -35 -9 -51 hhcurveto
          -15 -16 0 3 -19 hvcurveto
          -13 -37 54 8 -16 hvcurveto
          -16 -5 -39 -54 -13 -3 rrcurveto
          -1 -9 51 callsubr
          -16 -18 1 5 -83 hvcurveto
          57 80 76 59 76 72 rrcurveto
          endchar
        </CharString>
        <CharString name="asciitilde">
          150 96 30 -30 126 -126 168 -10 91 -91 107 hstemhm
          547 31 hintmask 00000000
          hintmask 00100100
          199 116 rmoveto
          -3 12 -2 9 7 vvcurveto
          11 1 15 20 12 vhcurveto
          -1 -1 rlineto
          7 16 14 4 11 hhcurveto
          9 8 -1 -3 5 hvcurveto
          -51 25 54 -41 59 hhcurveto
          18 18 3 7 17 12 callsubr
          61 21 49 87 77 vvcurveto
          10 -1 10 -2 10 vhcurveto
          -9 9 rlineto
          -10 hlineto
          3 -1 4 4 vvcurveto
          -9 9 rlineto
          hintmask 10010100
          -32 -49 -2 -3 -39 hvcurveto
          hintmask 00100100
          -25 -6 -25 -56 -31 hhcurveto
          -7 -5 1 5 -7 hvcurveto
          hintmask 10001100
          65 -49 -40 26 -52 hhcurveto
          -43 -42 -17 -31 -31 hvcurveto
          -34 -40 -38 -103 -11 -45 rrcurveto
          7 10 0 1 9 hvcurveto
          -3 -8 -2 -7 -1 -6 rrcurveto
          1 23 34 1 20 hhcurveto
          35 35 0 -4 16 hvcurveto
          -18 30 rmoveto
          4 -16 -37 0 -35 hhcurveto
          -20 -21 0 -1 -23 hvcurveto
          88 24 47 127 115 93 16 -97 50 hhcurveto
          37 29 58 24 5 hvcurveto
          35 3 37 0 36 1 3 -3 rcurveline
          3 -9 -1 -9 -9 vvcurveto
          -92 -63 -92 -89 -45 -43 22 45 -20 vhcurveto
          hintmask 01010100
          16 -12 -11 13 -25 hhcurveto
          -53 -21 -34 -25 -7 2 -10 3 -12 hvcurveto
          endchar
        </CharString>
        <CharString name="asterisk">
          -53 349 -21 194 -20 hstem
          345 386 rmoveto
          10 10 rlineto
          9 9 14 10 16 3 -1 0 3 vvcurveto
          -11 6 -38 54 -18 15 16 24 44 26 5 32 -114 114 rcurveline
          2 2 -58 -58 -19 -13 -11 13 -58 53 -12 3 -12 -9 -20 -20 -17 -17 -9 -9 -30 -30 -10 -5 8 -29 49 -42 14 -22 -24 -24 -20 -21 -27 -37 21 -18 rcurveline
          -1 0 0 -1 -1 vhcurveto
          31 -27 32 -28 32 -31 rrcurveto
          21 38 47 15 18 hvcurveto
          8 -11 37 -35 5 -5 1 1 rcurveline
          7 -7 9 -10 3 -4 rrcurveto
          -15 34 -12 callgsubr
          0 0 -1 hhcurveto
          -1 -17 19 1 -2 hvcurveto
          -10 10 -38 37 -5 2 rrcurveto
          -5 -12 -49 -58 -12 hhcurveto
          -35 33 -22 22 -29 24 8 13 39 39 22 25 -28 callgsubr
          10 -65 63 -5 16 vhcurveto
          10 3 59 67 18 13 1 1 rcurveline
          7 -2 61 -60 11 -8 2 2 75 69 -3 -3 3 -4 18 -19 20 -19 43 -42 rcurveline
          -3 -24 -55 -36 -8 -22 rrcurveto
          6 59 -76 -3 5 hvcurveto
          -2 vlineto
          -11 -24 -16 -5 -7 vhcurveto
          -239 108 rmoveto
          -1 0 0 1 -1 0 0 1 hvcurveto
          endchar
        </CharString>
        <CharString name="at">
          144 -53 30 -30 133 -11 85 -24 24 100 129 -129 235 -10 95 -33 callgsubr
          125 hstemhm
          17 141 -38 38 85 74 82 34 94 -76 callsubr
          hintmask 1010100011011100
          477 609 rmoveto
          51 -56 -69 9 -72 hhcurveto
          -17 -21 0 -3 -15 hvcurveto
          1 hlineto
          -59 -8 -55 -13 -39 -49 rrcurveto
          -44 -57 -8 -66 -67 vvcurveto
          -30 vlineto
          -106 -9 -178 96 -75 vhcurveto
          -58 48 72 -12 83 hhcurveto
          84 75 13 59 91 hvcurveto
          -45 98 -3 -3 -3 1 -3 -3 rlinecurve
          -11 25 rlineto
          58 26 7 57 86 vvcurveto
          54 vlineto
          75 -4 95 -62 59 vhcurveto
          -8 7 -5 6 -7 7 rrcurveto
          -82 -147 rmoveto
          7 -8 3 -10 -12 -15 -2 -23 -23 vvcurveto
          -30 vlineto
          -51 4 -50 17 -3 vhcurveto
          18 13 -2 92 -3 vvcurveto
          1 15 -2 11 15 vvcurveto
          28 vlineto
          -3 57 -15 59 -53 31 14 callsubr
          hintmask 1010101000111100
          13 -28 -46 6 -25 hhcurveto
          -134 -10 -129 -96 hvcurveto
          -22 vlineto
          -176 25 -82 141 48 89 23 32 64 vhcurveto
          38 -82 rlineto
          -51 -80 -75 -14 -83 hhcurveto
          -84 -72 12 64 -47 hvcurveto
          -25 35 -22 69 -3 38 rrcurveto
          -5 68 -2 49 64 vvcurveto
          30 vlineto
          64 7 64 43 56 vhcurveto
          59 45 83 10 69 hhcurveto
          232 21 -143 -136 hvcurveto
          -54 vlineto
          -103 -16 -69 -99 -15 -14 6 7 -12 vhcurveto
          -8 7 -3 4 -4 4 -3 5 rlinecurve
          -18 -22 -27 -9 -32 hhcurveto
          -87 -27 72 71 79 45 97 124 21 21 -4 -11 17 hvcurveto
          25 -12 rmoveto
          -7 3 -5 10 -5 7 rrcurveto
          -3 hlineto
          hintmask 0101010101011100
          13 -19 -22 4 -23 hhcurveto
          -56 -56 -28 -29 -23 hvcurveto
          1 vlineto
          -23 -26 -14 -30 -5 -35 rrcurveto
          96 17 106 117 22 48 -7 -11 25 vhcurveto
          -1 hlineto
          27 -20 8 -28 5 -32 -1 3 -2 0 -1 3 rrcurveto
          -235 -263 rmoveto
          5 -7 5 -3 5 -5 5 -5 rcurveline
          -26 24 31 -13 38 hhcurveto
          31 27 8 15 21 hvcurveto
          -19 15 21 -10 25 hhcurveto
          21 22 4 9 17 hvcurveto
          -50 -26 -80 -28 -48 -3 rrcurveto
          -11 hlineto
          -5 -5 13 callgsubr
          -32 -38 3 15 -24 hvcurveto
          -1 vlineto
          -28 13 -10 90 -3 53 4 -24 9 -22 15 -17 rrcurveto
          64 97 rmoveto
          -19 12 -13 16 48 -2 83 45 vhcurveto
          hintmask 1010101001011100
          1 -7 -4 0 -5 hhcurveto
          -53 -5 -60 -34 hvcurveto
          30 -16 rmoveto
          32 5 36 27 9 vhcurveto
          -31 -5 10 -55 -37 hhcurveto
          endchar
        </CharString>
        <CharString name="atilde">
          -63 callsubr
          -10 87 -71 -20 23 -20 58 28 callgsubr
          11 163 -30 151 -10 189 -32 32 hintmask 000000000000000000000000
          hintmask 100100010100110010000000
          -76 callgsubr
          hintmask 100100001100110100000000
          -40 callgsubr
          hintmask 100001000100110100000000
          -90 callgsubr
          hintmask 001100100000110010000000
          -106 callgsubr
          hintmask 100100100000110100000000
          -99 callsubr
          -245 75 -41 callsubr
          13 9 21 4 13 hhcurveto
          3 -1 2 0 3 -1 rrcurveto
          hintmask 100100010001010100000000
          -86 callsubr
          hintmask 100100100000110100000000
          -97 callsubr
          -3 rcurveline
          1 -7 0 -5 -7 vvcurveto
          -67 -40 -75 -76 -35 -32 16 35 -15 vhcurveto
          hintmask 100100010010101010000000
          12 -8 -10 11 -17 hhcurveto
          -15 -25 -5 -17 -11 hvcurveto
          -3 -6 rlineto
          -3 -7 -1 -7 -6 vvcurveto
          35 callgsubr
          vhcurveto
          -16 -291 -7 callgsubr
          hintmask 010010100000110100000000
          -84 callsubr
          endchar
        </CharString>
        <CharString name="b">
          44 25 callsubr
          32 170 -34 34 -34 162 -10 154 -30 -76 callsubr
          hintmask 1010110001000000
          197 683 rmoveto
          3 -7 3 -13 3 vhcurveto
          11 vlineto
          7 -38 8 -40 -23 -24 -1 -4 -21 vhcurveto
          -75 vlineto
          -179 -7 -177 -160 vvcurveto
          -41 0 -51 1 -39 vhcurveto
          19 hlineto
          -7 1 -6 -7 vvcurveto
          31 32 -2 31 hhcurveto
          29 33 -5 25 hvcurveto
          19 vlineto
          -27 19 27 -9 31 hhcurveto
          173 17 156 137 5 hvcurveto
          hintmask 1001010010000000
          164 -69 83 -132 vhcurveto
          hintmask 1010101001000000
          -27 -24 -3 -7 -21 hvcurveto
          1 40 1 16 19 vvcurveto
          46 -2 -3 -3 52 vhcurveto
          -30 20 rmoveto
          3 -53 1 6 -48 vvcurveto
          -46 vlineto
          -19 0 -26 -1 -31 vhcurveto
          15 2 49 12 51 hhcurveto
          31 32 -3 -11 27 hvcurveto
          59 -21 22 -89 -93 vvcurveto
          -138 -5 -11 -145 -171 hhcurveto
          -31 -27 11 33 -16 hvcurveto
          3 -2 -1 1 -1 hhcurveto
          -8 1 -31 -10 -13 -36 3 -16 hvcurveto
          -29 -30 2 -25 hhcurveto
          -1 35 0 36 39 167 7 177 183 vvcurveto
          66 vlineto
          3 16 21 1 21 hhcurveto
          35 33 -2 -3 hvcurveto
          155 -388 rmoveto
          47 -7 -32 24 -56 hhcurveto
          -57 -4 -12 -103 -84 4 -61 68 hvcurveto
          hintmask 1010100101000000
          57 34 64 67 19 0 20 -7 19 hvcurveto
          -9 -3 rmoveto
          hintmask 0110110010000000
          7 -16 -1 -20 -19 vvcurveto
          -62 -30 -59 -51 -47 5 55 60 94 3 11 48 37 21 -6 -36 7 vhcurveto
          endchar
        </CharString>
        <CharString name="backslash">
          -8 -31 30 1 -20 741 7 callgsubr
          hintmask 10100000
          272 -17 rmoveto
          1 vlineto
          3 -7 2 -2 3 -3 17 -6 -5 6 117 -3 rrcurveto
          7 4 5 10 19 -11 28 -8 21 hvcurveto
          -1 vlineto
          -4 11 -3 8 -1 3 14 callsubr
          -9 27 -9 29 -15 33 1 -1 rcurveline
          -5 9 -8 25 -82 226 -11 25 -6 25 -8 24 14 callsubr
          -14 48 4 -52 -54 210 -7 -1 -4 -1 -3 -1 -3 8 0 7 -3 8 rrcurveto
          -3 -16 -13 -1 -12 -16 -15 1 -16 hhcurveto
          -21 -21 -2 -11 -23 hvcurveto
          4 -8 3 -4 0 -6 1 -1 rlinecurve
          -1 hlineto
          -13 24 -67 22 -71 vhcurveto
          43 -113 28 -107 43 -108 -28 callgsubr
          7 -19 7 -23 8 -19 57 -144 rcurveline
          1 vlineto
          -9 3 5 -4 9 hhcurveto
          -65 160 rmoveto
          -36 92 -29 92 -31 93 -72 217 -9 40 -8 16 rrcurveto
          7 12 16 0 17 19 20 -2 19 hhcurveto
          10 10 1 2 9 hvcurveto
          19 -75 27 -75 3 -5 108 -327 16 -28 8 -21 13 -29 10 -30 9 -29 rrcurveto
          3 -8 25 -61 -18 vvcurveto
          -3 -1 -1 -1 vhcurveto
          -1 hlineto
          hintmask 01100000
          1 -23 -18 0 -15 hhcurveto
          -36 hlineto
          -20 -13 -1 8 -3 hvcurveto
          endchar
        </CharString>
        <CharString name="bar">
          -219 -58 30 767 -20 hstemhm
          23 150 -28 28 hintmask 00000000
          hintmask 11100000
          187 -58 rmoveto
          28 -2 718 31 vvcurveto
          -1 -8 -5 13 callgsubr
          22 vlineto
          -4 -31 -15 -1 -15 -15 -21 2 -33 hhcurveto
          -771 vlineto
          1 8 42 callsubr
          -19 vlineto
          17 60 -3 36 hhcurveto
          -20 30 rmoveto
          -32 -63 3 -8 hhcurveto
          751 vlineto
          31 13 -2 16 hhcurveto
          12 14 1 4 24 hvcurveto
          -1 vlineto
          hintmask 11010000
          -11 2 -183 -184 vvcurveto
          -378 vlineto
          endchar
        </CharString>
        <CharString name="braceleft">
          -102 -31 30 104 191 -30 139 287 -20 hstemhm
          111 153 -30 30 26 31 hintmask 00000000
          hintmask 10111010
          322 -20 rmoveto
          1 11 0 11 15 vvcurveto
          75 vlineto
          -8 -5 1 3 -7 hvcurveto
          16 vlineto
          -38 3 0 31 27 12 1 11 12 vvcurveto
          47 -11 41 -31 25 vhcurveto
          36 23 7 37 43 19 -2 18 20 vvcurveto
          15 1 14 2 14 -17 callgsubr
          4 20 27 8 21 7 rrcurveto
          1 15 1 21 16 vvcurveto
          17 -1 19 -3 21 vhcurveto
          -15 -2 -3 23 -3 hvcurveto
          1 -13 -20 2 -12 hhcurveto
          -82 -58 -24 -80 51 callgsubr
          hvcurveto
          1 vlineto
          1 -12 1 -13 -11 vvcurveto
          -61 -21 -61 -75 -5 -6 0 1 -5 vhcurveto
          -4 -23 -3 -23 -25 vvcurveto
          -16 -3 -33 25 vhcurveto
          -20 12 0 8 vhcurveto
          5 hlineto
          65 6 -59 -48 hvcurveto
          hintmask 11011010
          -19 -4 -18 -17 vvcurveto
          -53 60 -81 109 11 9 1 1 11 vhcurveto
          -21 30 rmoveto
          -1 -11 -8 -1 -11 hhcurveto
          -89 -50 52 53 hvcurveto
          16 4 18 19 vvcurveto
          67 -21 70 -79 vhcurveto
          -6 hlineto
          -13 1 27 12 20 3 21 3 19 hvcurveto
          -1 5 6 0 5 hhcurveto
          76 21 66 67 hvcurveto
          21 -5 21 19 vvcurveto
          76 57 18 73 12 11 -1 -1 13 vhcurveto
          2 -16 1 -16 -16 vvcurveto
          -16 -1 -14 -1 -15 vhcurveto
          hintmask 11010110
          -36 -13 -18 -4 -62 -20 1 -20 -20 vvcurveto
          -47 -7 -40 -47 -17 vhcurveto
          40 -23 13 -41 -49 -13 -1 -11 -13 vvcurveto
          -40 10 -46 48 -3 vhcurveto
          -19 1 -19 -21 vvcurveto
          -15 -1 -15 -1 -13 vhcurveto
          endchar
        </CharString>
        <CharString name="braceright">
          -102 -31 30 -30 143 152 30 -30 139 287 -20 hstemhm
          19 68 -11 153 -31 31 hintmask 00000000
          hintmask 01101010
          45 -29 rmoveto
          -1 11 9 15 callgsubr
          95 54 58 57 hvcurveto
          16 -4 18 19 vvcurveto
          60 19 67 71 vhcurveto
          6 hlineto
          24 -2 33 16 25 -4 23 -3 23 hvcurveto
          -1 -7 -5 0 -5 hhcurveto
          -3 21 rlineto
          hintmask 10011101
          -1 -5 -6 0 -5 hhcurveto
          -71 -5 51 51 11 1 13 1 12 hvcurveto
          -1 vlineto
          3 8 -1 9 8 vvcurveto
          35 -13 32 -27 19 vhcurveto
          38 -30 -51 1 -38 hhcurveto
          -12 -20 -2 -1 -13 hvcurveto
          -4 -21 -1 -17 -19 vvcurveto
          -16 1 -17 3 -19 vhcurveto
          18 -6 rlineto
          -22 19 4 13 -8 vhcurveto
          hintmask 01101010
          -15 3 -15 -16 -20 -1 -17 -19 vvcurveto
          -43 4 -35 32 -21 vhcurveto
          1 -1 2 -2 1 -3 rrcurveto
          -29 -27 -11 -40 -44 -11 2 -11 -12 vvcurveto
          hintmask 01101101
          -36 -11 -43 -47 -3 vhcurveto
          -75 vlineto
          -15 0 -11 1 -11 vhcurveto
          9 -9 rlineto
          11 -3 -2 -9 3 hvcurveto
          -10 21 rmoveto
          -1 13 -1 15 15 21 1 19 19 vvcurveto
          48 3 10 46 40 13 -2 11 13 vvcurveto
          49 14 41 40 23 vhcurveto
          -47 17 -7 40 47 20 1 20 20 vvcurveto
          62 -18 3 -36 14 vhcurveto
          -2 14 -1 15 16 vvcurveto
          16 1 16 3 16 vhcurveto
          1 12 12 1 12 hhcurveto
          73 56 -18 -76 hvcurveto
          -19 -4 -21 -21 vvcurveto
          -67 21 -66 76 5 4 0 1 7 vhcurveto
          3 -19 3 -21 -20 vvcurveto
          -13 1 -26 -13 vhcurveto
          -7 hlineto
          -78 -21 -70 -67 -17 1 -17 3 -15 hvcurveto
          hintmask 10101101
          -55 -46 -54 -94 -9 -9 1 1 -11 vhcurveto
          endchar
        </CharString>
        <CharString name="bracketleft">
          -99 -29 29 -12 -21 588 34 -34 164 hstemhm
          25 173 -30 30 91 28 hintmask 00000000
          hintmask 10011010
          323 -29 rmoveto
          1 13 1 22 13 vvcurveto
          31 -2 40 -3 31 vhcurveto
          -15 -5 -1 21 hvcurveto
          -28 3 -30 -1 -28 4 rrcurveto
          -3 88 -5 103 100 vvcurveto
          41 1 38 3 39 vhcurveto
          5 5 -1 4 24 23 3 27 hhcurveto
          16 hlineto
          15 31 -2 36 39 vvcurveto
          33 vlineto
          -1 -8 -5 13 callgsubr
          22 vlineto
          -3 -24 -16 0 -17 -45 -46 5 -47 hhcurveto
          -21 -23 -1 -4 -24 hvcurveto
          -8 -120 -3 -131 -125 vvcurveto
          -351 vlineto
          7 1 5 0 8 1 rrcurveto
          hintmask 01101010
          -22 vlineto
          3 35 67 0 40 hhcurveto
          22 hlineto
          hintmask 10100110
          -20 30 rmoveto
          -79 hlineto
          -31 -29 -1 -1 -15 hvcurveto
          4 vlineto
          39 1 38 39 72 -1 72 75 vvcurveto
          125 2 122 8 120 -17 callsubr
          3 21 21 1 20 47 45 -5 44 hhcurveto
          16 15 -1 3 15 hvcurveto
          -66 vlineto
          -22 -2 -17 -4 -13 vhcurveto
          -3 hlineto
          -7 -3 1 -7 -23 -25 -4 -24 hhcurveto
          -7 -3 0 1 -7 12 callsubr
          -4 -39 -1 -43 -44 -108 8 -117 -92 vvcurveto
          -1 vlineto
          35 -8 40 1 32 -3 rrcurveto
          3 -31 1 -31 -31 vvcurveto
          -13 0 -13 -1 -13 vhcurveto
          endchar
        </CharString>
        <CharString name="bracketright">
          -99 -29 29 -12 -21 591 31 -31 161 hstemhm
          141 172 -30 3 callsubr
          hintmask 01101000
          144 -30 rmoveto
          22 hlineto
          40 65 0 -3 37 hvcurveto
          15 vlineto
          43 -2 41 1 43 vhcurveto
          239 vlineto
          115 -2 121 -8 109 vhcurveto
          hintmask 10010100
          -17 3 -3 -2 19 vvcurveto
          5 -24 -23 1 -21 -48 -46 -5 -44 hhcurveto
          -17 -16 0 3 -24 hvcurveto
          -33 vlineto
          -37 -2 -38 11 -31 vhcurveto
          15 hlineto
          1 35 callgsubr
          rrcurveto
          19 hlineto
          24 21 -3 25 hhcurveto
          hintmask 10101000
          2 -32 1 -32 -33 -107 -8 -112 -88 vvcurveto
          -39 -7 -35 0 -32 -3 rrcurveto
          -3 -31 -2 -40 -31 vvcurveto
          -13 1 -22 1 -13 54 callgsubr
          -11 30 rmoveto
          -1 12 0 13 13 vvcurveto
          31 1 31 3 31 vhcurveto
          32 3 40 -1 35 8 -28 callgsubr
          92 8 117 108 vvcurveto
          44 -1 43 -4 39 vhcurveto
          -1 hlineto
          -1 -7 -5 0 -5 -24 -25 4 -24 -5 -6 -1 -5 hhcurveto
          -3 hlineto
          -4 13 -2 17 22 vvcurveto
          66 vlineto
          -3 15 15 1 15 45 44 5 47 hhcurveto
          21 21 -1 -3 21 hvcurveto
          -1 vlineto
          hintmask 10100100
          8 -109 1 -113 -115 -72 -1 -70 -69 vvcurveto
          -52 1 -51 1 -51 vhcurveto
          -4 vlineto
          1 -15 -29 1 -31 hhcurveto
          -79 hlineto
          endchar
        </CharString>
        <CharString name="brokenbar">
          -273 endchar
        </CharString>
        <CharString name="bullet">
          -131 149 229 -211 -21 22 -21 230 -20 hstemhm
          18 229 -30 3 callsubr
          hintmask 01011000
          74 175 rmoveto
          -16 11 18 -13 21 hhcurveto
          hintmask 00111000
          3 3 0 1 2 12 callsubr
          hintmask 10001000
          3 15 11 -1 12 hhcurveto
          95 6 51 72 41 -25 45 -51 17 hvcurveto
          -1 vlineto
          4 -12 -9 0 -11 hhcurveto
          -54 hlineto
          hintmask 01011000
          -1 -1 -2 0 -1 hhcurveto
          -6 hlineto
          -32 -11 9 2 -11 -6 2 2 rcurveline
          -9 -5 -11 -17 -11 vvcurveto
          2 vlineto
          -4 -21 -1 -27 -21 vvcurveto
          -25 3 -31 9 -12 vhcurveto
          1 -1 5 -7 6 -7 8 -5 rlinecurve
          -11 25 rmoveto
          -11 16 0 26 21 vvcurveto
          51 -8 53 81 vhcurveto
          32 hlineto
          18 hlineto
          hintmask 10000100
          47 19 -35 -40 hvcurveto
          -7 -1 -4 -7 vvcurveto
          -4 -44 -13 -65 -61 19 -50 -8 rlinecurve
          -1 hlineto
          -3 0 -1 -3 hhcurveto
          -17 -14 10 15 -11 hvcurveto
          endchar
        </CharString>
        <CharString name="c">
          22 -43 31 27 callgsubr
          30 171 -29 29 239 -76 callsubr
          hintmask 1101010101000000
          443 182 rmoveto
          -4 1 -4 0 -5 1 rrcurveto
          3 1 1 3 vvcurveto
          -8 11 rlineto
          2 -9 -13 1 -15 -61 callgsubr
          hintmask 1101101101000000
          12 callgsubr
          hintmask 1010010101000000
          -23 callgsubr
          -52 50 71 1 71 hhcurveto
          56 54 9 43 31 hvcurveto
          20 22 5 71 5 69 rrcurveto
          -30 21 rmoveto
          -5 -69 -5 -70 -18 -18 rrcurveto
          -40 -28 -51 -7 -53 -35 -34 3 -31 hhcurveto
          -44 callsubr
          hintmask 1101101011000000
          44 callgsubr
          -37 34 -15 35 52 10 25 40 8 hvcurveto
          -1 3 callgsubr
          hintmask 1010101101000000
          20 29 2 25 hhcurveto
          16 13 -1 -2 9 hvcurveto
          endchar
        </CharString>
        <CharString name="ccedilla">
          23 -178 31 106 29 27 callgsubr
          27 171 -29 29 239 -76 callsubr
          hintmask 1110101010100000
          432 200 rmoveto
          3 -17 -15 2 -14 -61 callgsubr
          hintmask 1110110110100000
          12 callgsubr
          hintmask 1110101010100000
          -23 callgsubr
          hintmask 1101010101100000
          19 -19 23 -13 25 -9 rrcurveto
          -1 vlineto
          -5 -18 -5 -17 -29 -77 rrcurveto
          -7 8 -4 15 -1 vhcurveto
          -1 -3 -1 -2 -1 -3 rrcurveto
          -12 20 0 23 vhcurveto
          84 hlineto
          8 39 25 66 13 32 47 3 40 12 25 35 20 23 6 75 5 73 -21 3 rcurveline
          7 0 3 1 7 vhcurveto
          -151 -212 rmoveto
          -8 -29 -33 -82 -5 -24 -95 -1 rcurveline
          -9 -5 0 1 hvcurveto
          29 80 2 9 8 21 9 27 rcurveline
          -13 1 rlineto
          -44 callsubr
          44 callgsubr
          hvcurveto
          hintmask 1110110110100000
          -37 34 -15 35 52 10 25 40 8 vhcurveto
          -1 3 callgsubr
          hintmask 1101010110100000
          20 29 2 25 hhcurveto
          16 13 -1 -2 9 hvcurveto
          -5 -69 -5 -70 -18 -18 -24 -35 -41 -9 -47 -3 rrcurveto
          143 -76 rmoveto
          1 -2 rlineto
          endchar
        </CharString>
        <CharString name="cedilla">
          -230 -178 31 -31 183 13 -20 hstem
          87 6 rmoveto
          -11 -3 1 11 -9 hvcurveto
          -24 -67 15 32 -48 -130 rrcurveto
          -7 10 -3 13 -1 vhcurveto
          -3 -9 rlineto
          -11 20 0 23 vhcurveto
          84 hlineto
          6 22 38 111 8 29 -26 1 rcurveline
          3 8 2 7 1 4 rrcurveto
          -13 -10 rmoveto
          -5 -21 -34 -95 -8 -25 -95 -1 rcurveline
          -9 -5 0 1 hvcurveto
          40 112 -10 -24 21 59 3 -1 3 0 3 -1 10 -2 rcurveline
          endchar
        </CharString>
        <CharString name="cent">
          -70 -5 29 269 88 -30 30 280 -20 hstemhm
          16 141 -31 31 -9 75 -31 31 97 33 hintmask 0000000000000000
          hintmask 1011001010000000
          228 374 rmoveto
          1 -5 -1 -4 3 -7 rrcurveto
          -5 21 23 -2 23 hhcurveto
          15 14 1 3 20 hvcurveto
          7 20 3 18 17 vvcurveto
          79 -66 86 -66 16 vhcurveto
          9 2 19 15 vvcurveto
          5 -7 -7 2 -7 hhcurveto
          5 1 4 4 vvcurveto
          5 -7 -8 2 -9 hhcurveto
          -15 -12 -5 -7 -4 hvcurveto
          -51 vlineto
          1 -7 51 callsubr
          hintmask 1101100110000000
          -72 -41 -75 -68 -7 0 -5 1 -3 hvcurveto
          -57 -2 -48 -48 vvcurveto
          -36 1 -36 5 -41 vhcurveto
          6 -58 64 -46 56 -8 rrcurveto
          -23 -2 -22 23 -3 vhcurveto
          -16 17 -4 7 35 -4 22 14 vhcurveto
          9 -1 12 13 vvcurveto
          63 13 64 52 67 27 -4 19 32 vvcurveto
          -7 3 -6 0 -2 callsubr
          14 vlineto
          7 -17 -17 1 -16 hhcurveto
          -16 hlineto
          -37 hlineto
          19 -1 16 17 vvcurveto
          20 vlineto
          1 1 -1 1 hhcurveto
          -30 -168 rmoveto
          35 13 -10 45 5 29 rrcurveto
          -1 3 6 0 7 12 14 1 13 hhcurveto
          13 12 -1 -3 11 hvcurveto
          -1 vlineto
          -23 5 -23 -23 vvcurveto
          -67 -61 -50 -64 -8 vhcurveto
          -2 -1 rlineto
          -1 -3 0 -5 -6 -11 1 -11 -11 vvcurveto
          -7 0 -6 -1 -3 vhcurveto
          -3 -1 rlineto
          -3 -4 -7 -2 -7 hhcurveto
          -19 5 45 24 hvcurveto
          -1 -7 -3 0 -7 hhcurveto
          -48 -53 29 55 -8 hvcurveto
          -5 43 -1 37 36 47 2 46 57 vvcurveto
          -1 5 0 6 5 vvcurveto
          64 38 67 67 7 9 -1 -2 9 vhcurveto
          3 7 -1 8 9 vvcurveto
          26 vlineto
          12 4 6 17 6 5 -1 -3 3 -17 callgsubr
          -16 -1 -14 -15 vvcurveto
          -7 0 -30 callsubr
          vhcurveto
          1 hlineto
          78 -3 51 -77 -74 vvcurveto
          -17 -2 -15 -5 -13 -17 callgsubr
          -2 -15 -14 -1 -13 hhcurveto
          -19 -19 2 4 -20 hvcurveto
          -6 28 11 42 -28 17 rrcurveto
          -1 -27 0 -24 -20 vvcurveto
          -58 vlineto
          -37 1 -41 -61 vvcurveto
          -65 192 rmoveto
          hintmask 1101010110000000
          -3 -21 1 -21 -20 vvcurveto
          -42 -6 -70 37 -18 vhcurveto
          43 1 45 45 vvcurveto
          45 -1 44 -1 44 vhcurveto
          -32 7 -48 -26 -3 hvcurveto
          endchar
        </CharString>
        <CharString name="circumflex">
          -73 499 23 2 -20 201 7 callgsubr
          hintmask 10100000
          173 705 -55 callsubr
          -56 callsubr
          143 -156 rmoveto
          -2 hlineto
          -7 -29 -7 -40 hhcurveto
          hintmask 01100000
          -12 -12 -1 3 -13 hvcurveto
          -10 -28 41 8 -13 hvcurveto
          -10 -5 -32 -41 -10 -3 rrcurveto
          hintmask 10100000
          -1 -8 -5 -1 -5 hhcurveto
          -13 -17 1 5 -59 hvcurveto
          45 61 57 46 60 56 rrcurveto
          endchar
        </CharString>
        <CharString name="colon">
          -215 2 callsubr
          155 211 -33 callgsubr
          165 hstemhm
          21 166 -35 35 hintmask 00000000
          hintmask 00100110
          187 306 -48 callgsubr
          hintmask 01001010
          -72 callgsubr
          hintmask 00110010
          -40 callsubr
          hintmask 10010010
          -41 callgsubr
          hintmask 00110001
          -8 366 -14 callsubr
          -2 vlineto
          hintmask 10010001
          -113 -336 rmoveto
          -3 1 rlineto
          -93 callsubr
          -2 -2 vlineto
          endchar
        </CharString>
        <CharString name="comma">
          -232 -128 30 -16 -21 270 -20 hstemhm
          16 52 callsubr
          hintmask 10110000
          176 -22 callsubr
          -17 10 0 3 vhcurveto
          7 -10 hlineto
          7 -15 11 7 7 -3 rrcurveto
          hintmask 10101000
          39 callgsubr
          14 hlineto
          -9 2 -7 4 -4 vhcurveto
          42 hlineto
          hintmask 01110000
          33 callsubr
          -30 24 rmoveto
          -3 -13 -2 -13 -3 -13 rrcurveto
          hintmask 10100100
          -49 callsubr
          endchar
        </CharString>
        <CharString name="copyright">
          133 83 30 71 27 64 61 -10 50 121 30 -30 113 -88 -20 hstemhm
          17 113 -30 76 -10 98 -30 30 12 102 -31 31 -31 90 -90 180 -100 114 -30 -5 callsubr
          hintmask 111010010100001000000000
          536 228 rmoveto
          hintmask 111001010101000010000000
          3 51 11 49 51 vvcurveto
          61 -12 54 -47 39 vhcurveto
          11 -8 -26 23 -5 hhcurveto
          37 -61 -48 6 -57 hhcurveto
          -77 -87 -6 -66 -53 hvcurveto
          -45 -53 2 -66 -61 vvcurveto
          -39 3 -37 6 -37 -17 callsubr
          4 -39 18 -29 29 -25 rrcurveto
          -47 39 63 -23 88 hhcurveto
          hintmask 111010010100001000000000
          102 13 118 -8 40 139 rrcurveto
          -30 22 rmoveto
          -35 -130 -121 2 -95 -8 rrcurveto
          -204 -15 117 128 29 1 28 3 31 hvcurveto
          134 11 133 20 102 hhcurveto
          52 57 -7 -32 49 hvcurveto
          12 -8 rlineto
          hintmask 111010010101000010000000
          51 -35 12 -57 1 -61 rrcurveto
          -49 -9 -53 -5 -49 vhcurveto
          -78 233 rmoveto
          34 -29 -63 11 -64 hhcurveto
          hintmask 110100101010010010000000
          -27 -25 -5 -27 hhcurveto
          -78 -14 -6 -68 -64 vvcurveto
          -86 -9 -98 115 -8 vhcurveto
          44 4 55 -2 47 9 rrcurveto
          33 callgsubr
          -180 -56 rmoveto
          -3 -3 -2 2 -48 vvcurveto
          -35 vlineto
          hintmask 111010010101000100000000
          -21 -3 -46 29 vhcurveto
          hintmask 110110001010100100000000
          32 -6 27 24 3 hvcurveto
          6 hlineto
          25 hlineto
          28 -2 -12 -16 -56 -39 -31 -56 -69 -6 35 101 hvcurveto
          23 1 23 31 vvcurveto
          3 vlineto
          52 42 18 31 51 46 -40 -51 -17 2 -13 -27 -12 -11 1 3 -12 vhcurveto
          22 -3 3 31 -29 hhcurveto
          -5 -3 -10 0 -4 -4 rrcurveto
          hintmask 111010010101000100000000
          37 -36 rmoveto
          -36 21 29 -32 vvcurveto
          -3 15 14 -2 15 hhcurveto
          9 10 1 2 11 hvcurveto
          4 15 3 11 11 vvcurveto
          48 -45 44 -37 19 vhcurveto
          20 -1 19 0 21 -3 5 callgsubr
          23 -5 22 -7 15 -11 43 callgsubr
          -59 3 -125 -92 vhcurveto
          23 19 14 29 31 vvcurveto
          14 1 19 -22 vhcurveto
          24 -4 -16 -3 -19 hhcurveto
          -9 hlineto
          -27 hlineto
          -15 5 -32 -19 -3 vhcurveto
          6 vlineto
          -1 9 0 11 12 vvcurveto
          27 1 28 1 13 vhcurveto
          6 vlineto
          6 2 rlineto
          1 1 0 1 1 hvcurveto
          -4 1 -4 -3 vvcurveto
          -103 63 rmoveto
          -4 -8 -2 -9 -9 vvcurveto
          -4 vlineto
          -31 -1 -23 -21 vvcurveto
          -92 6 -37 48 -24 vhcurveto
          -1 -7 -4 0 -4 hhcurveto
          -23 3 -21 6 -16 11 rrcurveto
          -14 19 -1 79 46 vvcurveto
          54 2 59 63 18 vhcurveto
          -11 -9 -7 -13 -4 -15 rrcurveto
          endchar
        </CharString>
        <CharString name="currency">
          187 16 -21 84 30 -30 154 196 30 -30 148 103 -20 hstemhm
          74 146 -30 241 -10 144 -30 -76 callsubr
          hintmask 1100111010000000
          4 580 rmoveto
          25 -33 6 -6 7 -7 -28 callgsubr
          1 -3 2 1 1 -3 18 -21 1 0 16 -19 rrcurveto
          -9 -39 -4 -63 -52 vvcurveto
          -58 -3 -25 16 -51 vhcurveto
          -4 -4 -12 -15 -25 -29 -39 -47 rlinecurve
          8 -3 8 -4 9 -7 -3 -3 -1 -2 -1 -1 rrcurveto
          -16 45 53 -76 37 hhcurveto
          31 43 22 29 15 20 rrcurveto
          -5 27 27 -3 28 hhcurveto
          31 31 3 5 31 hvcurveto
          21 -21 51 -51 rlineto
          1 hlineto
          -4 3 12 -16 7 hhcurveto
          31 48 64 8 22 hvcurveto
          32 26 -9 3 -8 5 -9 7 rlinecurve
          6 5 -27 11 -27 28 -21 28 rlinecurve
          23 44 4 52 49 vvcurveto
          19 vlineto
          53 -5 31 -16 35 vhcurveto
          25 29 33 38 27 29 -22 18 rcurveline
          2 2 -118 101 -33 -35 -33 -40 -31 -35 rlinecurve
          4 -27 -33 3 -28 hhcurveto
          -28 -19 -3 -3 -17 hvcurveto
          -12 -3 -29 33 -30 32 -23 27 rlinecurve
          -1 -1 -7 7 -5 7 -7 7 rlinecurve
          95 -122 rmoveto
          3 31 28 6 24 hhcurveto
          30 30 -3 -5 31 hvcurveto
          33 36 31 38 31 33 103 -88 rcurveline
          -24 -28 -30 -33 -29 -33 rrcurveto
          hintmask 1101010101000000
          15 -29 8 -35 -39 vvcurveto
          -60 0 -66 -29 -55 vhcurveto
          29 -37 36 -41 24 -11 -19 -16 rcurveline
          -8 -21 -52 -62 -21 hhcurveto
          -50 55 1 -11 -42 50 rrcurveto
          -7 -32 -34 -3 -33 hhcurveto
          -29 -29 3 6 -28 hvcurveto
          -15 -20 -21 -28 -33 -45 rrcurveto
          -22 -71 77 9 -20 hvcurveto
          30 35 25 29 8 13 11 12 rlinecurve
          1 vlineto
          -15 43 1 36 56 vvcurveto
          56 3 60 11 39 vhcurveto
          -48 64 9 -25 -35 48 103 88 rcurveline
          29 -32 31 -35 36 -41 rrcurveto
          19 -106 rmoveto
          -43 -15 -9 -36 -51 vvcurveto
          -96 4 -39 93 vhcurveto
          25 24 8 25 hhcurveto
          2 hlineto
          63 8 5 90 52 vvcurveto
          75 -68 11 -53 -23 -24 -3 -4 -21 vhcurveto
          22 -30 rmoveto
          4 23 20 3 23 hhcurveto
          hintmask 1010111010000000
          34 57 1 -56 -40 -3 -93 -56 -8 hvcurveto
          1 hlineto
          -28 -23 -8 -25 hhcurveto
          -12 -13 -1 3 -13 hvcurveto
          -36 3 7 59 40 vvcurveto
          43 6 39 39 12 vhcurveto
          endchar
        </CharString>
        <CharString name="d">
          43 25 callsubr
          2 154 -30 159 -12 178 -37 37 hintmask 0000000000000000
          hintmask 1001010100000000
          287 692 rmoveto
          -3 -52 -2 4 -47 vvcurveto
          -21 1 -29 1 -52 vhcurveto
          11 -21 -32 6 -39 hhcurveto
          -31 -35 -4 -11 -27 hvcurveto
          -62 -24 -26 -93 -95 vvcurveto
          -98 15 -106 64 -51 vhcurveto
          -33 27 45 -25 61 hhcurveto
          23 23 6 16 19 hvcurveto
          2 -2 rlineto
          4 4 -1 5 hhcurveto
          -2 vlineto
          -25 33 5 29 vhcurveto
          31 32 2 31 hhcurveto
          1 39 0 51 41 167 -7 173 176 vvcurveto
          74 1 callgsubr
          hintmask 1010101010000000
          5 -24 -25 1 -19 hhcurveto
          -40 -38 -8 -7 hvcurveto
          10 hmoveto
          3 33 2 35 20 22 -1 -3 16 vhcurveto
          -66 vlineto
          -183 7 -178 -167 vvcurveto
          -37 0 -37 -1 -35 vhcurveto
          -25 -31 -2 -28 hhcurveto
          -19 -17 1 2 -15 hvcurveto
          -3 3 -5 51 -6 hhcurveto
          hintmask 1010110100000000
          -2 -1 -1 -3 -1 hvcurveto
          -33 -17 -26 -11 -31 hhcurveto
          -169 -15 145 138 -3 hvcurveto
          93 22 89 59 21 vhcurveto
          9 28 30 5 31 hhcurveto
          hintmask 0110101010000000
          52 46 -12 -15 5 hvcurveto
          -1 31 0 26 19 vvcurveto
          46 vlineto
          48 1 -6 3 53 vhcurveto
          -155 -377 rmoveto
          -7 -19 0 -20 -19 vvcurveto
          -67 34 -64 57 68 4 61 84 103 -4 12 -57 -56 -32 -24 -47 -7 vhcurveto
          30 -21 rmoveto
          41 6 28 21 51 hhcurveto
          37 -6 -25 -60 -78 -3 -57 -59 hvcurveto
          hintmask 1010110100000000
          -49 -12 53 48 19 -1 20 7 16 hvcurveto
          endchar
        </CharString>
        <CharString name="dagger">
          -149 228 -21 269 24 -24 117 -11 125 hstemhm
          -1 93 -10 106 -29 29 hintmask 00000000
          hintmask 10100100
          202 223 rmoveto
          -5 71 4 96 -3 84 rrcurveto
          27 28 2 31 hhcurveto
          -4 24 0 12 13 vvcurveto
          12 -1 12 3 24 vhcurveto
          -8 -7 7 callsubr
          47 callsubr
          1 -17 -14 2 -11 hhcurveto
          -7 -5 0 -1 -7 hvcurveto
          17 -2 10 19 vvcurveto
          14 1 14 2 14 vhcurveto
          1 -7 -8 2 -7 hhcurveto
          7 1 3 1 7 vhcurveto
          hintmask 11010100
          38 callsubr
          -4 -37 -1 -34 -35 vvcurveto
          -3 -11 -14 1 -11 hhcurveto
          -20 hlineto
          hintmask 11011010
          -7 -8 1 -3 -12 hvcurveto
          -38 vlineto
          -9 -1 -7 -9 vvcurveto
          -7 1 -10 2 -12 vhcurveto
          -17 25 3 -12 30 hhcurveto
          hintmask 11010100
          7 8 0 1 8 hvcurveto
          -75 vlineto
          -19 -1 -16 -19 vvcurveto
          -43 2 -40 4 -31 vhcurveto
          1 7 5 1 5 hhcurveto
          1 -8 1 -7 1 -7 rrcurveto
          7 37 22 -2 16 hhcurveto
          -20 30 rmoveto
          -17 -1 -30 1 -19 -3 rrcurveto
          hintmask 11011010
          -3 23 -1 34 39 39 1 41 36 vvcurveto
          19 5 30 -15 vhcurveto
          -12 -14 -2 -15 hhcurveto
          -23 -10 -2 35 hvcurveto
          40 vlineto
          10 vlineto
          1 8 9 0 9 hhcurveto
          22 hlineto
          15 11 1 3 9 hvcurveto
          36 1 38 3 32 vhcurveto
          3 11 14 2 15 hhcurveto
          9 8 1 -3 8 hvcurveto
          -1 -11 -1 -7 -11 -19 2 -17 -19 vvcurveto
          -8 0 -8 -1 -9 vhcurveto
          -2 vlineto
          17 17 2 17 hhcurveto
          11 8 -1 -1 11 hvcurveto
          -1 -12 0 -12 -15 vvcurveto
          -13 -1 -14 3 -11 vhcurveto
          -1 -7 vlineto
          -19 -24 -2 -23 hhcurveto
          -10 hlineto
          -1 hlineto
          3 -88 -3 -100 4 -73 rrcurveto
          endchar
        </CharString>
        <CharString name="daggerdbl">
          -134 233 -21 107 30 -30 124 -14 75 -25 25 85 119 hstemhm
          85 109 -30 30 51 -76 callsubr
          hintmask 1010111010000000
          17 425 rmoveto
          -33 vlineto
          -11 vlineto
          -21 -3 -19 24 -4 vhcurveto
          -27 3 33 7 21 hhcurveto
          3 -4 hlineto
          -31 2 -33 -17 vvcurveto
          19 hlineto
          -8 1 -9 -3 vvcurveto
          22 hlineto
          21 22 0 4 25 hvcurveto
          -3 20 0 11 11 9 1 7 9 vvcurveto
          36 vlineto
          33 22 4 29 hhcurveto
          -4 28 0 16 15 vvcurveto
          38 vlineto
          -7 -6 1 1 -7 hvcurveto
          18 vlineto
          1 -12 -14 2 -15 hhcurveto
          -22 hlineto
          -1 5 0 6 5 vvcurveto
          5 0 6 1 5 vhcurveto
          23 18 4 20 hhcurveto
          8 8 -1 -1 8 hvcurveto
          21 -2 54 24 vvcurveto
          -7 -6 7 callsubr
          19 vlineto
          1 -15 -14 2 -11 hhcurveto
          -7 -6 0 -1 -7 hvcurveto
          8 -1 8 9 vvcurveto
          61 1 callgsubr
          38 callsubr
          -43 -4 -22 -31 vvcurveto
          -9 vlineto
          -25 -3 -24 3 -33 -4 rrcurveto
          1 -7 1 -7 -8 -12 -2 -11 -12 vvcurveto
          -19 0 -16 21 -5 vhcurveto
          -25 3 31 2 12 7 4 1 7 hhcurveto
          -9 -1 -8 -11 vvcurveto
          -6 -17 vlineto
          -19 -20 0 -3 -19 hvcurveto
          2 -10 rmoveto
          hintmask 1101010110000000
          29 4 28 -2 25 1 rrcurveto
          16 1 12 15 vvcurveto
          9 0 9 -1 12 -17 callsubr
          -4 -3 1 -5 -11 -14 -2 -13 hhcurveto
          -20 -13 -3 33 hvcurveto
          13 2 15 12 4 -1 4 3 vvcurveto
          28 4 30 -3 24 3 rrcurveto
          15 vlineto
          31 2 28 1 31 -17 callsubr
          3 11 14 2 15 hhcurveto
          9 8 1 -3 8 hvcurveto
          -16 vlineto
          -25 1 -24 -27 vvcurveto
          -17 vlineto
          17 17 2 17 hhcurveto
          11 7 -1 -1 11 hvcurveto
          -40 vlineto
          -15 0 -12 1 -11 vhcurveto
          -8 hlineto
          -16 -23 -4 -21 hhcurveto
          -6 -4 0 1 -3 12 callsubr
          hintmask 1100110110000000
          -1 -8 -1 -8 -11 vvcurveto
          -17 1 -17 3 -15 vhcurveto
          3 13 18 0 17 hhcurveto
          12 11 -1 -1 8 hvcurveto
          1 -24 -2 -32 3 -21 rrcurveto
          -1 vlineto
          -1 -19 -31 -3 -31 hhcurveto
          -2 hlineto
          1 -8 0 -8 -11 vvcurveto
          -40 vlineto
          -12 0 -13 1 -12 vhcurveto
          -2 -11 -12 -1 -11 hhcurveto
          -35 19 hlineto
          9 0 8 -1 11 vhcurveto
          -1 30 rlineto
          11 0 8 1 7 vhcurveto
          1 -7 -30 callsubr
          -9 -9 -1 -11 hhcurveto
          -16 -17 -4 24 hvcurveto
          21 vlineto
          28 vlineto
          endchar
        </CharString>
        <CharString name="degree">
          -122 371 30 -30 101 -13 132 -132 201 hstemhm
          18 100 -31 132 56 3 callsubr
          hintmask 10011010
          96 380 rmoveto
          -6 20 22 -3 23 hhcurveto
          25 30 2 9 20 12 callsubr
          55 18 13 61 49 vvcurveto
          9 vlineto
          36 -3 31 -27 23 vhcurveto
          1 hlineto
          -5 5 -8 7 -8 8 14 callsubr
          -7 7 -11 6 -23 7 14 callsubr
          -1 1 -6 1 -6 2 -6 2 rlinecurve
          3 -11 -12 2 -12 -13 -18 -2 -15 hhcurveto
          -8 hlineto
          -61 -12 -29 -36 -75 vvcurveto
          -36 -14 -76 93 -42 vhcurveto
          -16 29 rmoveto
          -28 15 -16 14 -4 27 -2 14 rcurveline
          -3 17 1 19 -1 19 rrcurveto
          84 40 31 75 vhcurveto
          19 hlineto
          85 28 -50 -48 hvcurveto
          -22 vlineto
          -55 -14 -48 -57 -19 vhcurveto
          -10 -2 rlineto
          -3 -19 -17 -2 -15 hhcurveto
          -21 -21 3 6 -20 hvcurveto
          34 178 rmoveto
          hintmask 10100110
          -23 -8 -5 -20 -29 vvcurveto
          -54 3 -18 48 vhcurveto
          13 14 4 15 hhcurveto
          1 hlineto
          36 6 2 48 29 vvcurveto
          40 -39 5 -27 -13 -13 -1 -2 -12 vhcurveto
          22 -30 rmoveto
          2 12 12 1 12 hhcurveto
          8 28 2 -17 hvcurveto
          hintmask 01001010
          -6 1 -68 -34 vhcurveto
          -6 hlineto
          -2 -10 -11 -1 -12 -7 -6 1 -5 hhcurveto
          -1 24 rlineto
          21 vlineto
          21 1 16 19 7 vhcurveto
          endchar
        </CharString>
        <CharString name="dieresis">
          -71 491 30 -30 149 -118 -20 hstemhm
          23 184 hintmask 00000000
          hintmask 01010000
          165 491 -91 callgsubr
          hintmask 00110000
          -8 30 rmoveto
          -3 hlineto
          -2 10 -1 13 17 24 2 26 11 vvcurveto
          4 13 25 2 23 hhcurveto
          20 19 -1 -4 9 hvcurveto
          -2 -6 -81 -18 vvcurveto
          hintmask 10010000
          -2 -2 vlineto
          hintmask 00110000
          -271 1 rmoveto
          -3 hlineto
          -2 10 -1 13 17 24 2 26 11 vvcurveto
          4 13 25 2 23 hhcurveto
          20 19 -1 -4 9 hvcurveto
          -2 -6 -81 -18 vvcurveto
          -1 -2 vlineto
          endchar
        </CharString>
        <CharString name="divide">
          46 2 callsubr
          155 41 -25 156 -10 50 -31 31 -31 165 hstemhm
          152 121 0 35 120 -76 callsubr
          hintmask 1000101010100000
          22 161 -16 callsubr
          26 385 -5 22 hhcurveto
          -3 20 -1 17 19 27 2 29 29 vvcurveto
          -20 20 -439 hlineto
          -19 -2 -81 -26 vvcurveto
          10 27 rmoveto
          hintmask 1001010010100000
          33 2 52 4 vvcurveto
          419 hlineto
          -25 -2 -26 -25 vvcurveto
          -17 1 -15 3 -13 vhcurveto
          -37 hlineto
          -98 -276 5 -12 hhcurveto
          hintmask 0011000101100000
          291 135 -48 callgsubr
          hintmask 0100101010100000
          -72 callgsubr
          hintmask 0011010010100000
          -40 callsubr
          hintmask 1001010010100000
          -41 callgsubr
          hintmask 0011010010100000
          -8 30 rmoveto
          -3 hlineto
          -93 callsubr
          hintmask 1001010010100000
          -2 -2 vlineto
          -113 337 -21 callsubr
        </CharString>
        <CharString name="dollar">
          25 -127 30 -8 -21 257 121 158 30 -30 111 201 -20 hstemhm
          14 186 -62 184 -152 30 -17 30 -30 76 -10 199 -153 27 96 -76 callsubr
          hintmask 1011010001010000
          346 333 rmoveto
          -38 27 -91 45 51 vvcurveto
          19 20 16 17 vhcurveto
          3 hlineto
          -20 4 -26 23 -9 vhcurveto
          -15 7 14 -11 35 23 13 2 20 hhcurveto
          16 hlineto
          27 17 8 28 hvcurveto
          6 vlineto
          35 0 25 -15 31 vhcurveto
          hintmask 1010110100000100
          -16 35 -49 55 -50 16 rrcurveto
          71 vlineto
          -1 -8 1 -11 hhcurveto
          23 vlineto
          9 -11 -21 8 -51 hhcurveto
          -24 hlineto
          -27 -30 2 -28 hvcurveto
          -7 5 -63 -4 vvcurveto
          -5 vlineto
          hintmask 1010111000010000
          -72 -21 -57 -58 -72 vvcurveto
          -51 24 -51 33 -39 vhcurveto
          43 -51 135 -73 -75 vvcurveto
          hintmask 1010110001010000
          -15 -20 -11 -16 vhcurveto
          hintmask 1010111000010000
          -17 4 14 15 hvcurveto
          16 vlineto
          24 -8 10 -15 5 vhcurveto
          23 -7 -24 0 -24 -19 -16 4 -25 hhcurveto
          -56 0 -13 -48 -71 5 -51 45 -36 hvcurveto
          17 -23 26 -16 40 -13 14 callsubr
          3 -7 -1 -4 -7 -9 -1 -9 -8 vvcurveto
          -19 4 -15 19 -7 vhcurveto
          -13 5 11 -10 27 hhcurveto
          28 hlineto
          hintmask 0110111000001100
          8 7 1 7 hhcurveto
          20 hlineto
          35 13 14 23 hvcurveto
          39 vlineto
          13 1 9 7 vvcurveto
          84 40 38 61 60 vvcurveto
          71 -42 75 -64 47 vhcurveto
          -6 -8 rmoveto
          51 -38 31 -71 -56 vvcurveto
          -43 -16 -38 -43 -35 vhcurveto
          -7 -7 -51 -31 -5 hhcurveto
          -4 -1 -16 -15 vvcurveto
          -40 vlineto
          hintmask 1010110010010000
          -27 -21 -1 -59 vhcurveto
          -28 hlineto
          -31 -4 15 19 hvcurveto
          9 1 10 9 vvcurveto
          20 -4 17 -27 9 vhcurveto
          -97 32 -9 59 89 vvcurveto
          40 0 11 46 15 12 -2 -1 12 vhcurveto
          32 -3 37 11 -41 vvcurveto
          hintmask 1010110001010000
          -24 -8 -51 51 vhcurveto
          hintmask 1011010000101100
          21 25 15 21 85 -123 57 -58 64 hvcurveto
          -31 35 -23 51 48 vvcurveto
          33 11 32 25 25 vhcurveto
          9 9 24 14 21 12 12 7 13 8 15 7 rrcurveto
          3 -1 2 4 5 -5 64 5 vvcurveto
          15 17 1 19 vhcurveto
          22 hlineto
          10 hlineto
          21 50 0 -13 5 hvcurveto
          -82 vlineto
          -9 4 -4 9 -1 vhcurveto
          50 -5 38 -47 15 -31 rrcurveto
          13 -27 1 -23 -31 vvcurveto
          -31 -6 -7 -28 vhcurveto
          -16 hlineto
          -20 -16 -2 -20 hhcurveto
          hintmask 1010110001010000
          -86 64 81 -64 hhcurveto
          -21 -26 -21 -24 -58 97 -53 56 -40 hvcurveto
          -192 330 rmoveto
          -1 hlineto
          1 0 0 1 1 vhcurveto
          endchar
        </CharString>
        <CharString name="e">
          -57 callsubr
          -20 hstemhm
          160 0 callsubr
          hintmask 0100100010010000
          -50 callsubr
          hintmask 1010101001010000
          -51 callgsubr
          hintmask 0101001001010000
          -10 vlineto
          -55 callgsubr
          hintmask 1010101001101000
          -30 31 rmoveto
          -85 2 27 -43 51 hhcurveto
          31 29 23 56 hvcurveto
          8 vlineto
          -1 3 callgsubr
          hintmask 1001001001101000
          20 28 2 24 hhcurveto
          16 13 -1 -2 10 hvcurveto
          -5 -68 -4 -72 -19 -16 rrcurveto
          -40 -28 -52 -7 -53 -35 -33 3 -29 hhcurveto
          -107 16 -37 129 122 vvcurveto
          56 4 59 19 51 vhcurveto
          60 26 77 32 77 hhcurveto
          163 40 -95 -118 -15 -1 -13 -1 -15 hvcurveto
          -5 -21 -104 -6 -74 hhcurveto
          -31 -26 0 3 -12 hvcurveto
          121 155 rmoveto
          7 -11 -9 3 -15 hhcurveto
          hintmask 1010010101101000
          -67 -18 -36 -41 hvcurveto
          hintmask 1010101001101000
          -92 callsubr
          hintmask 1010010101101000
          -69 callsubr
        </CharString>
        <CharString name="eacute">
          -57 callsubr
          70 -30 -43 callsubr
          152 16 callgsubr
          5 0 11 hhcurveto
          70 145 5 8 29 -103 callsubr
          176 496 -50 callgsubr
          hintmask 1010101000111010
          -44 callgsubr
          -34 -348 -88 callsubr
        </CharString>
        <CharString name="ecircumflex">
          -57 callsubr
          73 -23 -4 callgsubr
          156 16 callgsubr
          5 0 11 hhcurveto
          70 145 5 8 29 -103 callsubr
          78 520 -55 callsubr
          hintmask 1010101000111010
          -4 -5 -5 -5 -4 -7 rrcurveto
          -4 64 33 -3 11 hhcurveto
          33 15 35 14 19 hvcurveto
          -56 43 21 7 26 -79 callsubr
          43 -351 -88 callsubr
        </CharString>
        <CharString name="edieresis">
          -57 callsubr
          104 -28 28 151 -20 hstemhm
          57 179 -75 140 -95 45 -10 179 -130 171 -71 30 11 -5 callsubr
          hintmask 010010001011100010000000
          -50 callsubr
          hintmask 101010100101100010000000
          -51 callgsubr
          hintmask 010100100101100010000000
          -10 vlineto
          hintmask 010100100101100100100000
          -55 callgsubr
          hintmask 101010100101010001100000
          -30 31 rmoveto
          hintmask 101010100101100100100000
          -85 2 27 -43 51 hhcurveto
          hintmask 100100100101010001100000
          31 29 23 56 hvcurveto
          8 vlineto
          34 callsubr
          20 28 2 24 hhcurveto
          16 13 -1 -2 10 hvcurveto
          -5 -68 -4 -72 -19 -16 rrcurveto
          -40 -28 -52 -7 -53 -35 -33 3 -29 hhcurveto
          -107 16 -37 129 122 vvcurveto
          56 4 59 19 51 vhcurveto
          60 26 77 32 77 hhcurveto
          163 40 -95 -118 -15 -1 -13 -1 -15 hvcurveto
          -5 -21 -104 -6 -74 hhcurveto
          -31 -26 0 3 -12 hvcurveto
          hintmask 101010100011100100100000
          -104 519 -106 callsubr
          28 3 -106 callsubr
          -10 -10 rmoveto
          hintmask 101010100101001001100000
          -17 3 -71 -40 vvcurveto
          -8 -5 -15 -2 -19 -54 callsubr
          215 -354 rmoveto
          7 -11 -9 3 -15 hhcurveto
          hintmask 101001010101100100100000
          -67 -18 -36 -41 hvcurveto
          hintmask 101010100101010001100000
          -92 callsubr
          hintmask 101001010101100100100000
          -69 callsubr
        </CharString>
        <CharString name="egrave">
          -57 callsubr
          70 -30 -43 callsubr
          157 140 -11 171 -30 30 hintmask 0000000000000000
          hintmask 0100100010110100
          186 219 rmoveto
          -1 7 6 0 9 hhcurveto
          72 145 5 8 28 -103 callsubr
          -78 433 -83 callgsubr
          hintmask 1010101000111010
          -47 callsubr
          185 -278 -88 callsubr
        </CharString>
        <CharString name="eight">
          70 -42 30 185 104 160 94 -31 31 -31 218 1 -20 hstemhm
          58 193 -30 105 1 198 -30 -76 callsubr
          hintmask 1110011010000000
          493 503 rmoveto
          7 0 5 -1 3 -17 callgsubr
          -1 1 0 2 3 vvcurveto
          -4 27 -4 33 -19 32 -35 54 -17 8 -15 10 -9 6 rcurveline
          20 -35 -34 6 -56 hhcurveto
          hintmask 1100101001000000
          -19 -20 0 -1 -24 hvcurveto
          -112 -5 -65 -108 -107 vvcurveto
          -53 17 -54 33 -39 vhcurveto
          -41 -43 -18 -56 -57 vvcurveto
          -130 94 -108 158 147 77 94 120 56 -20 55 -45 39 vhcurveto
          -3 3 40 36 16 34 11 47 rlinecurve
          -1 -1 rlineto
          4 11 1 12 11 vvcurveto
          -30 20 rmoveto
          -60 -29 -50 -48 -39 -17 callgsubr
          51 -37 23 -57 -60 vvcurveto
          -112 -70 -91 -144 -143 -79 84 124 57 20 56 43 43 vhcurveto
          -37 39 -17 52 55 vvcurveto
          101 60 104 107 5 vhcurveto
          1 24 20 0 19 hhcurveto
          55 32 -5 -19 33 hvcurveto
          21 -16 59 -49 -97 vvcurveto
          -162 -310 rmoveto
          1 1 2 3 vvcurveto
          5 vlineto
          32 -36 21 -29 vhcurveto
          hintmask 1110010110000000
          -31 -20 -30 -29 -27 18 -18 39 48 5 21 19 5 hvcurveto
          -106 293 rmoveto
          -2 vlineto
          -3 -1 -2 -3 vvcurveto
          -27 16 -32 36 29 16 25 24 23 -14 22 -31 -6 -36 -2 -22 -8 vhcurveto
          95 -295 rmoveto
          -1 -3 1 -1 -3 -3 -3 -6 rcurveline
          1 vlineto
          -5 -11 -2 0 -12 -4 14 callsubr
          -2 -8 -9 -1 -9 hhcurveto
          hintmask 1110011010000000
          -12 -13 -3 19 20 11 22 19 7 hvcurveto
          -1 -1 rlineto
          1 3 3 0 5 hhcurveto
          19 17 -7 -21 hvcurveto
          hintmask 1101010110000000
          -3 -1 -1 -1 vvcurveto
          -61 274 rmoveto
          1 1 2 1 1 1 rrcurveto
          -3 -3 3 12 31 hhcurveto
          12 4 -2 -12 -20 -13 -19 -23 -11 -7 7 14 -3 hvcurveto
          endchar
        </CharString>
        <CharString name="ellipsis">
          100 2 callsubr
          hstemhm
          23 166 -1 166 0 166 hintmask 00000000
          hintmask 00101000
          179 -30 rmoveto
          1 13 3 44 3 33 rrcurveto
          -8 vlineto
          -40 callsubr
          hintmask 01010100
          -41 callgsubr
          hintmask 00110100
          134 -1 rlineto
          -60 callgsubr
          hintmask 01010100
          8 -17 -24 4 -23 hhcurveto
          -27 -30 -3 -9 -21 hvcurveto
          -5 -1 -14 -9 vvcurveto
          -13 vlineto
          4 vlineto
          23 -9 -3 -11 3 vhcurveto
          -2 14 rlineto
          -72 callgsubr
          hintmask 00110100
          -40 callsubr
          hintmask 01010100
          -41 callgsubr
          hintmask 00110100
          465 -1 rmoveto
          -60 callgsubr
          hintmask 01001000
          -72 callgsubr
          hintmask 00110100
          -40 callsubr
          hintmask 10010100
          -41 callgsubr
          hintmask 00110100
          -8 29 rmoveto
          -3 1 rlineto
          -93 callsubr
          -2 -2 vlineto
          -444 hmoveto
          -3 1 rlineto
          -93 callsubr
          -2 -2 vlineto
          52 1 rmoveto
          -3 hlineto
          -2 12 -1 15 19 28 2 29 13 vvcurveto
          7 15 26 1 27 hhcurveto
          25 23 -2 -4 9 hvcurveto
          -2 -6 -96 -19 vvcurveto
          -2 -2 vlineto
          -128 82 rmoveto
          hintmask 10010100
          -4 -1 -4 -4 vvcurveto
          hintmask 10001000
          5 0 4 1 3 vhcurveto
          endchar
        </CharString>
        <CharString name="emdash">
          272 123 30 -30 243 hstemhm
          645 3 callsubr
          hintmask 01100000
          38 150 -16 callsubr
          22 578 -7 28 hhcurveto
          -4 32 -1 35 35 41 2 44 36 vvcurveto
          -21 hlineto
          7 1 6 7 vvcurveto
          -632 hlineto
          -32 -3 -140 -34 vvcurveto
          10 25 rmoveto
          56 3 106 9 vvcurveto
          612 hlineto
          -31 -2 -42 -41 vvcurveto
          hintmask 10100000
          -33 1 -32 4 -24 vhcurveto
          -33 hlineto
          -124 -442 7 -19 hhcurveto
          endchar
        </CharString>
        <CharString name="endash">
          35 136 23 -23 230 -216 -21 hstemhm
          412 29 hintmask 00000000
          hintmask 01010000
          37 156 -16 callsubr
          hintmask 00110000
          27 336 -7 27 hhcurveto
          -3 117 1 44 56 vvcurveto
          -20 hlineto
          hintmask 01010000
          20 -395 vlineto
          -29 -3 -136 -35 vvcurveto
          10 hmoveto
          32 3 149 9 vvcurveto
          375 hlineto
          hintmask 10010000
          -55 0 -25 3 -117 vhcurveto
          -36 hlineto
          -89 -238 7 -18 hhcurveto
          endchar
        </CharString>
        <CharString name="equal">
          46 89 24 -24 177 -162 -21 173 64 -24 24 -24 177 hstemhm
          412 29 hintmask 00000000
          hintmask 01000110
          41 316 -16 callsubr
          22 callgsubr
          20 -399 hlineto
          -23 -3 -93 -31 vvcurveto
          10 -217 -16 callsubr
          hintmask 00110010
          22 callgsubr
          hlineto
          hintmask 01001010
          20 -399 vlineto
          -23 -3 -93 -31 vvcurveto
          10 hmoveto
          hintmask 10010010
          -1 callsubr
          207 vmoveto
          -1 callsubr
          endchar
        </CharString>
        <CharString name="eth">
          111 -54 30 -30 191 -10 183 -30 180 408 -20 hstemhm
          16 169 -31 218 -10 186 -30 -76 callsubr
          hintmask 1010101010000000
          149 192 rmoveto
          -46 14 53 -19 46 hhcurveto
          64 37 29 45 79 -80 30 -59 -59 -20 -36 -44 -7 1 -8 1 -7 hvcurveto
          30 -19 rmoveto
          hintmask 0101110100000000
          -1 7 0 4 7 vvcurveto
          39 20 34 45 43 69 -13 -64 -39 -34 -27 -56 -31 -42 8 30 -11 vhcurveto
          -93 623 rmoveto
          -10 -9 -19 -16 -27 -25 rrcurveto
          -5 -5 -3 -5 -4 vvcurveto
          8 -4 9 -4 9 -5 rrcurveto
          -4 -4 -2 -2 -1 vvcurveto
          24 -11 27 -20 23 -9 -36 -28 -44 -25 -19 -9 -10 -5 rcurveline
          15 -23 4 -3 7 -4 13 -19 3 2 11 -8 12 -11 10 -8 15 -15 2 1 rcurveline
          7 -7 6 -7 5 -7 8 5 73 47 78 52 40 -50 0 -63 5 -47 rrcurveto
          9 -20 -29 9 -51 hhcurveto
          -167 -47 -84 -144 hvcurveto
          -9 1 -8 -9 vvcurveto
          1 -28 3 -65 23 -53 43 -33 rlinecurve
          -56 47 76 -25 83 hhcurveto
          195 60 131 165 41 -3 43 -5 43 hvcurveto
          -11 95 -11 97 -36 71 rrcurveto
          -1 vlineto
          -15 28 -20 26 -20 19 34 21 22 12 37 24 -22 22 rcurveline
          -53 53 -13 -14 -13 26 rrcurveto
          -1 -1 0 0 -1 hhcurveto
          -6 5 -6 7 -6 9 -55 -25 7 -8 -64 -45 -29 11 -16 7 -15 11 rrcurveto
          9 -15 -27 20 -16 hhcurveto
          -12 -33 -23 -27 -29 hvcurveto
          8 -91 rmoveto
          -15 9 -18 12 -21 13 33 29 19 17 6 7 rrcurveto
          43 40 10 2 8 hhcurveto
          3 hlineto
          48 -19 21 -25 51 -16 52 37 41 31 15 8 32 -43 19 11 38 -40 -9 -7 -9 -4 -7 -5 -22 -13 rcurveline
          -15 -9 -13 -8 -19 -12 88 -74 15 -125 16 -138 rrcurveto
          hintmask 1010110010000000
          5 -43 3 -42 -41 vvcurveto
          -162 -52 -124 -193 -125 -120 60 142 vhcurveto
          -1 28 rlineto
          9 -1 9 8 vvcurveto
          139 45 79 159 64 30 -16 -9 19 vhcurveto
          -16 71 15 75 -75 64 -83 -56 -67 -43 -8 -5 -19 27 -50 31 -5 8 10 7 rcurveline
          20 15 40 29 51 36 -17 4 -18 8 -18 11 rrcurveto
          endchar
        </CharString>
        <CharString name="exclam">
          -203 -28 29 -29 163 -143 -21 748 -20 hstemhm
          25 165 -33 33 hintmask 00000000
          hintmask 01011000
          146 -28 rmoveto
          20 hlineto
          hintmask 00111000
          7 5 -1 8 hhcurveto
          17 hlineto
          47 3 53 40 vvcurveto
          -21 hlineto
          8 1 7 5 vvcurveto
          hintmask 01011000
          -31 -31 4 -29 hhcurveto
          -15 -16 -1 -9 -20 hvcurveto
          -35 -6 -40 -28 vvcurveto
          -19 2 -12 11 vhcurveto
          7 hlineto
          hintmask 00111000
          -13 1 5 -7 7 hhcurveto
          hintmask 10010100
          -32 741 rmoveto
          -4 -64 -2 -70 -63 -96 2 -93 -96 vvcurveto
          -70 20 -20 vlineto
          53 38 -1 7 60 hvcurveto
          -4 77 -2 90 80 101 4 101 97 vvcurveto
          -7 3 -7 1 -7 1 rrcurveto
          5 1 6 4 vvcurveto
          7 -19 -17 0 -17 hhcurveto
          -29 -28 -4 -3 -24 hvcurveto
          1 -10 rmoveto
          3 23 30 4 29 hhcurveto
          15 13 -1 -4 13 hvcurveto
          -3 -96 -1 -102 -101 vvcurveto
          -79 1 -75 4 -76 vhcurveto
          -35 -4 -55 0 -39 -1 rrcurveto
          -1 68 hlineto
          92 -2 91 92 vvcurveto
          63 1 62 4 64 vhcurveto
          3 -701 rmoveto
          -2 -1 5 10 hvcurveto
          25 6 50 27 vvcurveto
          1 vlineto
          5 12 14 1 16 27 28 -4 25 hhcurveto
          -1 -37 -2 -44 -39 vvcurveto
          -7 hlineto
          -16 -7 1 -15 hhcurveto
          -2 hlineto
          endchar
        </CharString>
        <CharString name="exclamdown">
          -204 -107 30 554 30 -30 163 1 -20 hstemhm
          23 165 -26 26 hintmask 00000000
          hintmask 10101000
          91 640 rmoveto
          -20 hlineto
          hintmask 11011000
          -7 -5 1 -8 hhcurveto
          -17 hlineto
          -47 -3 -54 -39 vvcurveto
          5 8 0 -1 7 hvcurveto
          -19 vlineto
          31 29 -4 31 hhcurveto
          16 16 1 8 19 hvcurveto
          35 6 40 29 vvcurveto
          19 -2 12 -11 vhcurveto
          -7 hlineto
          13 -1 -5 7 -7 hhcurveto
          hintmask 10101000
          33 -741 rmoveto
          3 65 1 72 64 79 -2 77 79 vvcurveto
          35 0 46 1 35 vhcurveto
          -5 -8 0 -1 -8 hvcurveto
          7 1 7 7 vvcurveto
          -53 -39 -1 -5 -59 hvcurveto
          4 -77 2 -90 -80 -101 -4 -101 -97 vvcurveto
          7 -3 6 -1 7 -1 rrcurveto
          -15 vlineto
          -7 19 17 0 17 hhcurveto
          29 27 3 4 25 hvcurveto
          -21 30 rmoveto
          -3 -23 -30 -4 -29 hhcurveto
          -15 -14 1 4 -12 hvcurveto
          3 96 1 102 100 vvcurveto
          79 -2 76 -3 76 vhcurveto
          35 4 55 0 39 1 14 callsubr
          -1 -27 0 -28 -27 vvcurveto
          hintmask 11010100
          -87 2 -84 -88 vvcurveto
          -64 -1 -63 -3 -64 vhcurveto
          -3 701 rmoveto
          2 1 -5 -10 hvcurveto
          -24 -6 -52 -26 vvcurveto
          -1 vlineto
          -5 -12 -15 -1 -15 -27 -29 4 -24 hhcurveto
          1 37 2 44 39 vvcurveto
          7 hlineto
          16 7 -1 15 hhcurveto
          2 hlineto
          endchar
        </CharString>
</ttFont>
